<svg width="512" height="512" viewBox="0 0 512 512" fill="none" xmlns="http://www.w3.org/2000/svg">
<rect width="512" height="512" fill="#37BA95"/>
<g opacity="0.64">
<path d="M235.388 418.834C275.972 442.965 310.979 397.147 306.023 359.882C302.615 334.224 300.136 293.905 292.701 278.327C285.266 262.749 262.341 260.305 250.878 256.029C239.416 252.058 219.589 239.84 204.099 247.476C188.609 255.113 161.036 285.047 142.139 302.763C114.257 328.726 119.523 385.235 159.487 392.566C199.761 399.591 209.675 403.562 235.388 418.834Z" fill="white"/>
<path d="M217.73 219.986C209.675 217.237 203.479 208.073 201.001 195.855C198.522 183.637 195.425 139.958 255.835 88.0309C257.075 87.1145 258.624 86.8091 260.173 87.1145C260.482 87.1145 260.482 87.42 260.792 87.42C262.341 88.3363 263.271 90.1691 262.961 92.0018C261.412 103.303 261.102 116.743 260.792 131.1C259.863 172.335 258.624 219.069 223.616 220.902C221.448 221.208 219.589 220.902 217.73 219.986Z" fill="white"/>
<path d="M123.861 273.44C115.186 270.385 108.681 261.222 106.202 247.476C100.626 216.931 114.257 170.197 151.123 139.652C152.362 138.736 153.911 138.43 155.46 138.736C155.77 138.736 156.39 139.041 156.699 139.347C158.248 140.569 158.868 142.707 157.939 144.539C146.166 170.197 153.292 192.495 159.488 212.35C167.233 236.175 174.358 258.473 138.731 272.523C133.774 274.662 128.508 274.967 123.861 273.44Z" fill="white"/>
<path d="M300.757 249.004C298.898 248.393 297.039 247.476 295.49 245.949C269.157 223.04 297.968 185.775 323.682 153.092C332.666 141.79 341.031 130.794 346.917 121.02C347.846 119.492 349.705 118.576 351.564 118.881C351.874 118.881 352.183 118.881 352.183 119.187C353.732 119.798 354.662 121.02 354.971 122.547C368.912 200.437 338.552 232.509 328.948 240.451C319.344 248.698 308.811 251.753 300.757 249.004Z" fill="white"/>
<path d="M339.791 348.275C335.144 346.748 331.117 343.388 328.328 338.196C309.431 305.512 329.567 292.378 350.634 278.633C368.292 267.025 388.12 254.196 395.245 226.706C395.865 224.873 397.724 223.346 399.582 223.346C400.202 223.346 400.512 223.346 400.821 223.651C402.37 224.262 403.3 225.484 403.61 227.011C412.904 273.44 393.696 318.341 370.151 338.806C359.308 347.97 348.465 351.33 339.791 348.275Z" fill="white"/>
</g>
</svg>
