<svg width="81" height="80" viewBox="0 0 81 80" fill="none" xmlns="http://www.w3.org/2000/svg">
<circle cx="40.9897" cy="40" r="40" fill="white"/>
<path d="M55.9673 2.92405C35.4801 -5.35043 12.1883 4.5352 3.9138 25.0225C-4.36068 45.5097 5.52492 68.8017 26.0123 77.0762C46.4996 85.3507 69.7913 75.465 78.0657 54.9777C86.3401 34.5102 76.4546 11.1985 55.9673 2.92405ZM68.7769 51.2382C62.571 66.594 45.1071 73.9932 29.7516 67.8072C14.3961 61.6012 6.99683 44.1375 13.1828 28.7817C18.7521 15.0573 33.2723 7.7177 47.2553 10.7212C48.926 11.0792 50.5771 11.5566 52.228 12.213C53.859 12.8693 55.3905 13.6849 56.8426 14.5799L52.944 24.2468L43.7545 46.9617L34.1873 43.103L43.3569 20.388C34.7045 19.3338 26.0918 24.1274 22.6706 32.6007C18.5731 42.7252 23.4662 54.2617 33.5904 58.3392C43.7147 62.4367 55.2514 57.5437 59.3289 47.4192C61.278 42.566 61.1587 37.4145 59.4284 32.8992L64.2219 21.0643C70.8852 29.2392 73.0334 40.736 68.7769 51.2382Z" fill="#6A1B76"/>
</svg>
