<svg width="13" height="13" viewBox="0 0 13 13" fill="none" xmlns="http://www.w3.org/2000/svg">
<path d="M6.14147 1.0598C6.28819 0.762503 6.71213 0.762504 6.85886 1.0598L8.36638 4.11437C8.42464 4.23243 8.53727 4.31426 8.66755 4.33319L12.0385 4.82301C12.3666 4.87069 12.4976 5.27388 12.2602 5.50529L9.82094 7.88295C9.72666 7.97484 9.68364 8.10724 9.7059 8.237L10.2817 11.5943C10.3378 11.9211 9.99479 12.1702 9.70134 12.016L6.6863 10.4309C6.56977 10.3696 6.43056 10.3696 6.31403 10.4309L3.29898 12.016C3.00553 12.1702 2.66256 11.9211 2.7186 11.5943L3.29443 8.237C3.31668 8.10724 3.27366 7.97484 3.17939 7.88295L0.740166 5.50529C0.502759 5.27388 0.633763 4.87069 0.961851 4.82301L4.33277 4.33319C4.46306 4.31426 4.57568 4.23243 4.63395 4.11437L6.14147 1.0598Z" fill="white"/>
</svg>
