<svg width="24" height="24" viewBox="0 0 24 24" fill="none" xmlns="http://www.w3.org/2000/svg">
<path d="M12.1622 11C12.0608 10.9899 11.9392 10.9899 11.8277 11C9.41554 10.9188 7.5 8.94025 7.5 6.50507C7.5 4.01917 9.50676 2 12 2C14.4831 2 16.5 4.01917 16.5 6.50507C16.4899 8.94025 14.5743 10.9188 12.1622 11Z" fill="#B8B8B9"/>
<path d="M6.8629 14.4326C4.37903 16.1235 4.37903 18.8791 6.8629 20.5596C9.68548 22.4801 14.3145 22.4801 17.1371 20.5596C19.621 18.8687 19.621 16.1131 17.1371 14.4326C14.3248 12.5225 9.69575 12.5225 6.8629 14.4326Z" fill="#B8B8B9"/>
</svg>
