<svg width="76" height="73" viewBox="0 0 76 73" fill="none" xmlns="http://www.w3.org/2000/svg">
<path fill-rule="evenodd" clip-rule="evenodd" d="M16 45C23.1797 45 29 39.1797 29 32C29 24.8203 23.1797 19 16 19C8.8203 19 3 24.8203 3 32C3 39.1797 8.8203 45 16 45ZM48 29C55.1797 29 61 23.1797 61 16C61 8.8203 55.1797 3 48 3C40.8203 3 35 8.8203 35 16C35 23.1797 40.8203 29 48 29ZM61 48C61 55.1797 55.1797 61 48 61C40.8203 61 35 55.1797 35 48C35 40.8203 40.8203 35 48 35C55.1797 35 61 40.8203 61 48Z" fill="url(#paint0_linear_1504_19785)"/>
<g filter="url(#filter0_bd_1504_19785)">
<path d="M53 31.9591C53 43.4868 43.5683 52.9183 32.0409 52.9183C28.2682 52.9183 24.7052 51.8704 21.5613 50.1936L13.3872 52.9183C11.9201 53.3374 10.6625 52.08 11.0817 50.6128L13.8064 42.4387C12.1297 39.2949 11.0817 35.7319 11.0817 31.9591C11.0817 20.4316 20.5133 11 32.0409 11C43.5683 11 53 20.4316 53 31.9591Z" fill="url(#paint1_linear_1504_19785)" shape-rendering="crispEdges"/>
<path d="M21.9378 49.4877L21.6345 49.3259L21.3083 49.4346L13.1526 52.1532C12.3007 52.3864 11.6136 51.6993 11.8468 50.8474L14.5654 42.6917L14.6741 42.3656L14.5123 42.0622C12.888 39.0167 11.8817 35.582 11.8817 31.9591C11.8817 20.8735 20.9552 11.8 32.0409 11.8C43.1265 11.8 52.2 20.8735 52.2 31.9591C52.2 43.0449 43.1265 52.1183 32.0409 52.1183C28.418 52.1183 24.9833 51.1121 21.9378 49.4877Z" stroke="url(#paint2_linear_1504_19785)" stroke-width="1.6" shape-rendering="crispEdges"/>
</g>
<circle cx="22.6667" cy="32.3339" r="2.66667" fill="white"/>
<circle cx="32.0007" cy="32.3339" r="2.66667" fill="white"/>
<circle cx="41.3327" cy="32.3339" r="2.66667" fill="white"/>
<defs>
<filter id="filter0_bd_1504_19785" x="1.4" y="1.4" width="74" height="70.8" filterUnits="userSpaceOnUse" color-interpolation-filters="sRGB">
<feFlood flood-opacity="0" result="BackgroundImageFix"/>
<feGaussianBlur in="BackgroundImageFix" stdDeviation="4.8"/>
<feComposite in2="SourceAlpha" operator="in" result="effect1_backgroundBlur_1504_19785"/>
<feColorMatrix in="SourceAlpha" type="matrix" values="0 0 0 0 0 0 0 0 0 0 0 0 0 0 0 0 0 0 127 0" result="hardAlpha"/>
<feOffset dx="9.6" dy="6.4"/>
<feGaussianBlur stdDeviation="6.4"/>
<feComposite in2="hardAlpha" operator="out"/>
<feColorMatrix type="matrix" values="0 0 0 0 0.937255 0 0 0 0 0.4 0 0 0 0 0.309804 0 0 0 0.3 0"/>
<feBlend mode="normal" in2="effect1_backgroundBlur_1504_19785" result="effect2_dropShadow_1504_19785"/>
<feBlend mode="normal" in="SourceGraphic" in2="effect2_dropShadow_1504_19785" result="shape"/>
</filter>
<linearGradient id="paint0_linear_1504_19785" x1="3" y1="3" x2="8.81335" y2="65.8287" gradientUnits="userSpaceOnUse">
<stop stop-color="#EF664F"/>
<stop offset="1" stop-color="#FAAF42"/>
</linearGradient>
<linearGradient id="paint1_linear_1504_19785" x1="7.325" y1="11" x2="54.6324" y2="48.3404" gradientUnits="userSpaceOnUse">
<stop stop-color="#FFF0D9" stop-opacity="0.5"/>
<stop offset="1" stop-color="#712007" stop-opacity="0.01"/>
</linearGradient>
<linearGradient id="paint2_linear_1504_19785" x1="32" y1="11" x2="32" y2="53" gradientUnits="userSpaceOnUse">
<stop stop-color="#EF664F"/>
<stop offset="1" stop-color="#EF664F" stop-opacity="0"/>
</linearGradient>
</defs>
</svg>
