<svg width="20" height="17" viewBox="0 0 20 17" fill="none" xmlns="http://www.w3.org/2000/svg">
<path d="M10 0C10.5531 0 11 0.424531 11 0.95V2.05H14.75C15.9937 2.05 17 3.00594 17 4.1875V14.8625C17 16.0441 15.9937 17 14.75 17H5.25C4.00625 17 3 16.0441 3 14.8625V4.1875C3 3.00594 4.00625 2.05 5.25 2.05H9V0.95C9 0.424531 9.44687 0 10 0ZM6.5 12.4C6.225 12.4 6 12.6138 6 12.875C6 13.1362 6.225 13.35 6.5 13.35H7.5C7.775 13.35 8 13.1362 8 12.875C8 12.6138 7.775 12.4 7.5 12.4H6.5ZM9.5 12.4C9.225 12.4 9 12.6138 9 12.875C9 13.1362 9.225 13.35 9.5 13.35H10.5C10.775 13.35 11 13.1362 11 12.875C11 12.6138 10.775 12.4 10.5 12.4H9.5ZM12.5 12.4C12.225 12.4 12 12.6138 12 12.875C12 13.1362 12.225 13.35 12.5 13.35H13.5C13.775 13.35 14 13.1362 14 12.875C14 12.6138 13.775 12.4 13.5 12.4H12.5ZM8.25 7.6C8.25 7.28506 8.1183 6.98301 7.88388 6.76031C7.64946 6.53761 7.33152 6.4125 7 6.4125C6.66848 6.4125 6.35054 6.53761 6.11612 6.76031C5.8817 6.98301 5.75 7.28506 5.75 7.6C5.75 7.91494 5.8817 8.21699 6.11612 8.43969C6.35054 8.66239 6.66848 8.7875 7 8.7875C7.33152 8.7875 7.64946 8.66239 7.88388 8.43969C8.1183 8.21699 8.25 7.91494 8.25 7.6ZM13 8.7875C13.3315 8.7875 13.6495 8.66239 13.8839 8.43969C14.1183 8.21699 14.25 7.91494 14.25 7.6C14.25 7.28506 14.1183 6.98301 13.8839 6.76031C13.6495 6.53761 13.3315 6.4125 13 6.4125C12.6685 6.4125 12.3505 6.53761 12.1161 6.76031C11.8817 6.98301 11.75 7.28506 11.75 7.6C11.75 7.91494 11.8817 8.21699 12.1161 8.43969C12.3505 8.66239 12.6685 8.7875 13 8.7875ZM1.5 6.65H2V12.35H1.5C0.671875 12.35 0 11.7117 0 10.925V8.075C0 7.28828 0.671875 6.65 1.5 6.65ZM18.5 6.65C19.3281 6.65 20 7.28828 20 8.075V10.925C20 11.7117 19.3281 12.35 18.5 12.35H18V6.65H18.5Z" fill="#B8B8B9"/>
</svg>
