<svg width="145" height="140" viewBox="0 0 145 140" fill="none" xmlns="http://www.w3.org/2000/svg">
<g clip-path="url(#clip0_693_32433)">
<path d="M70.2966 59.1745C66.9344 57.7647 63.9862 57.1572 61.675 56.8297L61.6738 56.8295C50.2161 55.2523 41.3343 59.0601 34.6088 65.7001C27.8942 72.3293 23.3356 81.7729 20.4735 91.4766C18.9288 96.7035 18.3116 105.242 20.6431 111.711C22.2843 116.27 25.3725 119.856 30.494 120.751C36.0559 121.744 41.819 119.003 46.9609 114.668C54.4096 108.4 60.7024 98.7219 63.4385 92.6345L63.4386 92.6344C66.5498 85.7069 70.1911 74.5656 72.3637 63.2048C75.8625 65.1088 79.7192 67.9521 83.7014 72.2909L83.7022 72.2917C85.4681 74.2018 86.9953 76.8238 88.239 79.8253C83.7516 82.192 79.5245 85.5383 75.7895 89.8613L75.7892 89.8616C72.5898 93.5752 67.3463 102.606 65.7336 110.62L65.7336 110.62C64.5882 116.334 65.2985 121.648 69.5305 124.484L69.5309 124.484C72.1167 126.212 74.6348 126.784 77.0214 126.487C79.4019 126.191 81.6218 125.034 83.6264 123.357C86.4497 120.997 88.851 117.545 90.6667 114.027C92.4831 110.508 93.7264 106.898 94.2203 104.202L94.2203 104.202C95.3504 98.0133 94.3257 88.9132 91.6633 81.2338C107.232 74.3215 125.472 79.5038 135.54 96.0319L135.542 96.0346C135.937 96.6688 136.777 96.8691 137.419 96.4904L137.419 96.4905L137.426 96.4859C138.066 96.0836 138.27 95.2291 137.875 94.5916C127.065 76.854 107.445 71.2198 90.674 78.6346C89.3265 75.4067 87.6607 72.5311 85.713 70.4207C81.1997 65.5098 76.8204 62.3826 72.8758 60.3632C73.2284 58.2735 73.5253 56.1838 73.7544 54.1121C74.8221 44.5022 74.3911 35.4214 71.2806 29.421C64.1141 15.5919 49.9175 11.7736 36.1286 14.3821L36.1284 14.3821C22.4833 16.9687 9.19887 25.8623 3.56208 37.4227L3.56198 37.4229C3.23112 38.1027 3.50724 38.9373 4.19002 39.2687L4.19006 39.2688C4.86803 39.5977 5.68929 39.3197 6.0222 38.6356C11.2885 27.834 23.7918 19.5099 36.6342 17.0893L36.6343 17.0893C49.3352 14.6903 62.3215 18.098 68.8506 30.6862C71.7187 36.242 72.0433 44.6935 71.0318 53.8084C70.8354 55.5792 70.5875 57.3679 70.2966 59.1745ZM77.859 91.6782L77.6318 91.4823L77.8591 91.6782C81.2795 87.7091 85.138 84.6404 89.2242 82.4333C91.6619 89.5916 92.5641 98.0315 91.5259 103.698C91.0776 106.148 89.9473 109.47 88.2819 112.716C86.6159 115.964 84.4273 119.112 81.8763 121.234L81.8756 121.234C80.295 122.556 78.5815 123.458 76.7759 123.7C74.9773 123.942 73.0578 123.534 71.0486 122.185L71.0478 122.185C67.8321 120.041 67.4759 115.871 68.4188 111.173C69.9316 103.632 74.8678 95.1485 77.859 91.6782ZM23.0998 92.2602L23.0999 92.2599C25.7989 83.1118 30.0286 74.1947 36.2437 67.9382C42.4475 61.6932 50.635 58.0913 61.3009 59.5611C63.5702 59.8879 66.4842 60.4961 69.812 61.9559C67.7045 73.3523 64.0483 84.5827 60.9421 91.498C58.3292 97.3049 52.3077 106.586 45.2013 112.567C40.6327 116.411 35.6988 118.889 30.9701 118.042L30.9692 118.042C26.9455 117.335 24.5487 114.455 23.2189 110.775C21.0976 104.876 21.6827 97.0478 23.0998 92.2602Z" fill="#37BA95" stroke="#37BA95" stroke-width="0.6"/>
<path d="M135.909 94.1299C134.707 93.6645 132.218 92.7091 131.804 92.5627L131.802 92.5621C130.508 92.1143 129.777 92.0689 129.03 92.1107L129.03 92.1106L129.025 92.1109C128.869 92.1218 128.717 92.1376 128.559 92.1541C128.111 92.2008 127.615 92.2524 126.843 92.2097C126.075 92.1592 125.442 92.7747 125.405 93.5234C125.367 94.286 125.953 94.9155 126.701 94.9657L126.701 94.9658L126.708 94.9661C127.697 95.0065 128.328 94.9457 128.874 94.8855C129.18 94.8564 129.431 94.8393 129.73 94.8706C130.031 94.9021 130.393 94.984 130.908 95.1667L130.908 95.1667L130.91 95.1676C131.054 95.2169 131.382 95.3589 131.818 95.5475C132.132 95.6837 132.503 95.8441 132.901 96.0115C133.827 96.4009 134.884 96.8211 135.599 96.996C136.363 97.1853 136.989 97.0956 137.315 96.9043C137.315 96.9042 137.315 96.9041 137.315 96.9041L137.163 96.6454C137.501 96.4475 137.82 96.0911 138.038 95.537C138.28 94.9147 138.434 93.9299 138.609 92.807C138.634 92.6444 138.66 92.4789 138.687 92.3112C138.881 91.0645 139.129 89.6594 139.652 88.4325M135.909 94.1299L139.928 88.5509M135.909 94.1299C136.006 93.6966 136.085 93.1769 136.173 92.5993C136.206 92.3833 136.24 92.1591 136.277 91.9282L135.909 94.1299ZM139.652 88.4325L139.927 88.5518C139.927 88.5515 139.927 88.5512 139.928 88.5509M139.652 88.4325L139.928 88.5501C139.928 88.5504 139.928 88.5507 139.928 88.5509M139.652 88.4325C140.098 87.4034 140.743 86.5127 141.816 86.0774M139.928 88.5509C140.358 87.5581 140.959 86.7494 141.928 86.3557M141.816 86.0774L141.927 86.3562C141.927 86.356 141.928 86.3559 141.928 86.3557M141.816 86.0774C142.365 85.8597 142.636 85.2462 142.42 84.692C142.204 84.1379 141.58 83.8609 141.032 84.0786M141.816 86.0774L141.929 86.3554C141.929 86.3555 141.928 86.3556 141.928 86.3557M141.928 86.3557L141.032 84.0786M141.032 84.0786C139.408 84.7119 138.364 86.0179 137.69 87.5813C137.094 88.9666 136.794 90.5499 136.573 91.9748C136.538 92.1993 136.504 92.4198 136.471 92.6339C136.38 93.2312 136.297 93.7793 136.194 94.2309L141.032 84.0786Z" fill="#37BA95" stroke="#37BA95" stroke-width="0.6"/>
</g>
<defs>
<clipPath id="clip0_693_32433">
<rect width="140" height="145" fill="white" transform="translate(0 140) rotate(-90)"/>
</clipPath>
</defs>
</svg>
