<svg width="48" height="48" viewBox="0 0 48 48" fill="none" xmlns="http://www.w3.org/2000/svg">
<path fill-rule="evenodd" clip-rule="evenodd" d="M4.27736 22.8073C5.76813 29.01 5.67051 34.9831 5.84917 41.2746C5.88389 42.5032 4.94067 43.5247 3.74356 43.5617C2.54574 43.5988 1.54607 42.6291 1.51063 41.4004C1.34137 35.4346 1.4781 29.7576 0.0632744 23.8658C-0.223162 22.6741 0.489328 21.4677 1.65244 21.179C2.81482 20.8829 3.99165 21.6157 4.27736 22.8073Z" fill="#EF664F"/>
<path fill-rule="evenodd" clip-rule="evenodd" d="M16.9428 10.7847C27.0564 20.244 36.5855 32.4124 43.2458 44.6992C43.8267 45.7725 43.4484 47.127 42.401 47.7192C41.3536 48.3113 40.0314 47.9264 39.4506 46.8532C33.0101 34.9734 23.7942 23.2047 14.0148 14.0636C13.1309 13.2346 13.0694 11.8282 13.8774 10.9252C14.6854 10.0222 16.0589 9.95566 16.9428 10.7847Z" fill="#EF664F"/>
<path fill-rule="evenodd" clip-rule="evenodd" d="M19.5048 0.454886C28.7547 -1.10687 38.2889 1.55771 46.6997 5.32518C47.797 5.82109 48.2975 7.13116 47.818 8.24881C47.3377 9.37387 46.0566 9.88463 44.9594 9.39611C37.2993 5.96172 28.6361 3.41551 20.2115 4.83664C19.0296 5.03648 17.9121 4.21492 17.7175 3.00844C17.5222 1.80196 18.3236 0.654732 19.5048 0.454886Z" fill="#EF664F"/>
</svg>
