<svg width="21" height="18" viewBox="0 0 21 18" fill="none" xmlns="http://www.w3.org/2000/svg">
<path d="M20.1531 9.8144C20.3734 9.60346 20.5 9.30815 20.5 8.99877C20.5 8.6894 20.3734 8.39877 20.1531 8.18315L11.9031 0.308149C11.4531 -0.123101 10.7406 -0.104351 10.3141 0.345649C9.8875 0.795649 9.90156 1.50815 10.3516 1.93471L16.5672 7.87377H1.625C1.00156 7.87377 0.5 8.37534 0.5 8.99877C0.5 9.62221 1.00156 10.1238 1.625 10.1238H16.5672L10.3469 16.0581C9.89687 16.4894 9.88281 17.1972 10.3094 17.6472C10.7359 18.0972 11.4484 18.1113 11.8984 17.6847L20.1484 9.80971L20.1531 9.8144Z" fill="#243B4A"/>
</svg>
