<svg width="14" height="13" viewBox="0 0 14 13" fill="none" xmlns="http://www.w3.org/2000/svg">
<path d="M0.56442 7.54358C0.417544 7.40296 0.33317 7.20608 0.33317 6.99983C0.33317 6.79358 0.417544 6.59983 0.56442 6.45608L6.06442 1.20608C6.36442 0.918584 6.83942 0.931084 7.1238 1.23108C7.40817 1.53108 7.3988 2.00608 7.0988 2.29046L2.95504 6.24983H12.9165C13.3321 6.24983 13.6665 6.58421 13.6665 6.99983C13.6665 7.41546 13.3321 7.74983 12.9165 7.74983H2.95504L7.10192 11.7061C7.40192 11.9936 7.41129 12.4655 7.12692 12.7655C6.84255 13.0655 6.36755 13.0748 6.06755 12.7905L0.567545 7.54046L0.56442 7.54358Z" fill="#243B4A"/>
</svg>
