<svg width="32" height="32" viewBox="0 0 32 32" fill="none" xmlns="http://www.w3.org/2000/svg">
<circle cx="16" cy="16" r="16" transform="matrix(-4.37114e-08 1 1 4.37114e-08 0 0)" fill="#EAEEEE"/>
<g clip-path="url(#clip0_741_45692)">
<path d="M12.9097 15.4622C12.5841 15.7597 12.5841 16.2429 12.9097 16.5404L17.9097 21.1103C18.2352 21.4078 18.7638 21.4078 19.0894 21.1103C19.4149 20.8128 19.4149 20.3296 19.0894 20.0321L14.6779 16.0001L19.0868 11.9681C19.4123 11.6706 19.4123 11.1874 19.0868 10.8899C18.7612 10.5924 18.2326 10.5924 17.9071 10.8899L12.9071 15.4598L12.9097 15.4622Z" fill="#243B4A"/>
</g>
<defs>
<clipPath id="clip0_741_45692">
<rect width="16" height="16" fill="white" transform="matrix(-4.37114e-08 1 1 4.37114e-08 8 8)"/>
</clipPath>
</defs>
</svg>
