<svg width="96" height="97" viewBox="0 0 96 97" fill="none" xmlns="http://www.w3.org/2000/svg">
<path d="M19.542 93.9329C17.6251 83.9776 17.5683 73.6802 16.5309 63.6455C16.1537 59.9966 15.4963 56.4227 14.839 52.8488C14.5493 51.2076 12.4132 47.7175 14.0711 47.742C15.4099 47.6957 18.1845 51.3273 19.1974 52.3059C23.8024 57.1658 27.6842 62.6883 31.8071 67.9899C32.5008 68.8978 34.8714 73.2626 35.6499 73.3665C37.0668 73.6119 39.6311 69.1748 40.2372 68.0749C42.3813 63.7503 44.4132 48.3619 46.3028 46.4493C46.886 45.8243 49.9865 48.4311 50.563 48.9016C53.999 52.1998 56.3858 57.1853 58.2971 61.517C59.046 63.1913 59.6547 64.9032 60.0225 66.8359C60.0615 66.9817 60.4131 68.2938 60.4131 68.2938C69.433 66.6582 70.3674 51.0951 73.7358 49.0988C74.7783 48.507 78.0216 53.888 78.3961 54.7252C79.6595 57.1992 85.5849 74.8305 84.933 76.8801C83.6294 80.9795 74.3589 81.1197 70.9581 81.8747C57.0976 84.4948 43.4486 88.4646 29.9397 92.3968" stroke="#FAAF42" stroke-width="3" stroke-miterlimit="1.5" stroke-linecap="round"/>
<path d="M15.827 19.8086C18.5804 22.0092 21.4371 24.0189 23.5919 26.8697" stroke="#FAAF42" stroke-width="3" stroke-miterlimit="1.5" stroke-linecap="round"/>
<path d="M36.9818 11.0898C37.6166 13.4591 38.2515 15.8283 38.8863 18.1976" stroke="#FAAF42" stroke-width="3" stroke-miterlimit="1.5" stroke-linecap="round"/>
<path d="M61.0388 7.69181C60.2354 11.4622 59.5848 14.8361 59.5955 18.7438" stroke="#FAAF42" stroke-width="3" stroke-miterlimit="1.5" stroke-linecap="round"/>
<path d="M78.0083 10.762C77.2757 14.0055 77.3156 13.6562 76.7922 17.1823" stroke="#FAAF42" stroke-width="3" stroke-miterlimit="1.5" stroke-linecap="round"/>
</svg>
