<svg width="16" height="14" viewBox="0 0 16 14" fill="none" xmlns="http://www.w3.org/2000/svg">
<path d="M14.3553 3.74247C14.3655 3.88459 14.3655 4.02675 14.3655 4.16887C14.3655 8.50387 11.066 13.4988 5.03553 13.4988C3.17766 13.4988 1.45178 12.9607 0 12.0267C0.263969 12.0572 0.51775 12.0673 0.791875 12.0673C2.32484 12.0673 3.73603 11.5496 4.86294 10.6663C3.42131 10.6359 2.21319 9.69172 1.79694 8.39222C2 8.42266 2.20303 8.44297 2.41625 8.44297C2.71066 8.44297 3.00509 8.40234 3.27919 8.33131C1.77666 8.02672 0.649719 6.70694 0.649719 5.11303V5.07244C1.08625 5.31609 1.59391 5.46837 2.13194 5.48866C1.24869 4.89981 0.670031 3.89475 0.670031 2.75769C0.670031 2.14856 0.832438 1.59019 1.11672 1.10287C2.73094 3.09272 5.15734 4.39219 7.87813 4.53434C7.82738 4.29069 7.79691 4.03691 7.79691 3.78309C7.79691 1.97597 9.25884 0.503906 11.0761 0.503906C12.0203 0.503906 12.873 0.899844 13.472 1.53944C14.2131 1.39731 14.9238 1.12319 15.5533 0.747563C15.3096 1.509 14.7918 2.14859 14.1116 2.55466C14.7715 2.48363 15.4111 2.30084 15.9999 2.04706C15.5533 2.69678 14.9949 3.27544 14.3553 3.74247Z" fill="#243B4A"/>
</svg>
