<svg width="20" height="18" viewBox="0 0 20 18" fill="none" xmlns="http://www.w3.org/2000/svg">
<path d="M0.346874 9.81831C0.126562 9.60737 0 9.31205 0 9.00268C0 8.69331 0.126562 8.40268 0.346874 8.18706L8.59687 0.312055C9.04687 -0.119195 9.75938 -0.100445 10.1859 0.349555C10.6125 0.799555 10.5984 1.51206 10.1484 1.93862L3.93281 7.87768H18.875C19.4984 7.87768 20 8.37924 20 9.00268C20 9.62612 19.4984 10.1277 18.875 10.1277H3.93281L10.1531 16.0621C10.6031 16.4933 10.6172 17.2011 10.1906 17.6511C9.76406 18.1011 9.05156 18.1152 8.60156 17.6886L0.351562 9.81362L0.346874 9.81831Z" fill="#243B4A"/>
</svg>
