<svg width="30" height="30" viewBox="0 0 30 30" fill="none" xmlns="http://www.w3.org/2000/svg">
<path d="M11.5591 17C12.0786 17 12.4966 17.418 12.4966 17.9375V27.3125C12.4966 27.832 12.0786 28.25 11.5591 28.25C11.0396 28.25 10.6216 27.832 10.6216 27.3125V20.1992L1.59815 29.2266C1.23096 29.5937 0.637209 29.5937 0.273928 29.2266C-0.0893535 28.8594 -0.0932598 28.2656 0.273928 27.9023L9.29737 18.8789H2.18408C1.66455 18.8789 1.24658 18.4609 1.24658 17.9414C1.24658 17.4219 1.66455 17.0039 2.18408 17.0039H11.5591V17Z" fill="#E03315"/>
<path d="M28.5591 0C29.0786 0 29.4966 0.417969 29.4966 0.9375V10.3125C29.4966 10.832 29.0786 11.25 28.5591 11.25C28.0396 11.25 27.6216 10.832 27.6216 10.3125V3.19922L18.5981 12.2266C18.231 12.5937 17.6372 12.5937 17.2739 12.2266C16.9106 11.8594 16.9067 11.2656 17.2739 10.9023L26.2974 1.87891H19.1841C18.6646 1.87891 18.2466 1.46094 18.2466 0.941406C18.2466 0.421875 18.6646 0.00390619 19.1841 0.00390619H28.5591V0Z" fill="#E03315"/>
</svg>
