<svg width="20" height="20" viewBox="0 0 20 20" fill="none" xmlns="http://www.w3.org/2000/svg">
<g clip-path="url(#clip0_653_42300)">
<circle cx="10" cy="10" r="10" fill="#37BA95"/>
<path fill-rule="evenodd" clip-rule="evenodd" d="M9.89561 11.7638C9.81068 11.5964 9.74242 11.4642 9.72618 11.4359C8.95271 10.0891 9.43778 10.9049 8.52402 9.63636C8.268 9.28095 7.75056 9.18599 7.36882 9.42435C6.98708 9.66272 6.88509 10.1445 7.14111 10.4999C8.02407 11.7255 7.51024 10.8654 8.2579 12.1669C8.31494 12.2662 8.69502 13.1479 8.96644 13.5157C9.21247 13.8487 9.52136 13.9677 9.69829 13.9921C9.97928 14.0308 10.4189 13.937 10.7757 13.4936C11.2415 12.915 11.8455 11.3689 11.945 11.1123C12.1273 10.6402 12.2818 10.1449 12.425 9.6631C12.6964 8.74917 12.8525 7.81895 12.992 6.88176C13.0553 6.45774 12.7368 6.06628 12.2814 6.00737C11.8264 5.94884 11.4055 6.24536 11.3426 6.66899C11.2132 7.53835 11.0721 8.40189 10.8202 9.24954C10.6878 9.6941 10.5463 10.1519 10.3781 10.5875C10.3273 10.7181 10.13 11.2576 9.89561 11.7638Z" fill="white"/>
</g>
<defs>
<clipPath id="clip0_653_42300">
<rect width="20" height="20" fill="white"/>
</clipPath>
</defs>
</svg>
