<svg width="381" height="187" viewBox="0 0 381 187" fill="none" xmlns="http://www.w3.org/2000/svg">
<g clip-path="url(#clip0_1602_19352)">
<path fill-rule="evenodd" clip-rule="evenodd" d="M324.32 154.008C309.629 160.118 294.938 165.559 276.455 166.111C274.401 166.176 272.664 167.253 272.822 168.515C272.822 169.777 274.717 170.749 276.929 170.684C296.991 170.086 313.104 164.358 328.902 157.729C380.716 136.163 397.776 102.672 362.233 69.792C309.313 20.797 185.623 -11.1584 89.8926 3.64107C88.0844 3.92003 86.2229 4.19798 84.3171 4.48255C63.2464 7.62876 36.7568 11.5841 16.91 26.6485C0.48104 39.1784 -2.51978 53.5822 1.74542 67.6727C8.06424 88.2888 30.1789 108.214 47.0817 120.151C108.216 163.133 230.959 201.907 341.697 181.312C343.75 180.927 344.857 179.636 344.225 178.433C343.593 177.229 341.381 176.566 339.17 176.952C231.592 196.963 112.64 159.004 53.2432 117.239C39.6577 107.667 22.5969 92.7747 13.7506 76.5942C5.06218 60.8129 4.27233 43.7669 23.2288 29.4281C41.6684 15.4738 66.1874 11.8674 85.9007 8.96784C87.9731 8.66302 89.9924 8.366 91.9459 8.0656C184.675 -6.26308 304.259 24.7847 355.599 72.2237C388.615 102.814 372.501 133.945 324.32 154.008Z" fill="#37BA95"/>
</g>
<defs>
<clipPath id="clip0_1602_19352">
<rect width="381" height="187" fill="white"/>
</clipPath>
</defs>
</svg>
