<svg width="14" height="14" viewBox="0 0 14 14" fill="none" xmlns="http://www.w3.org/2000/svg">
<path d="M12.9765 2.35156C13.3437 1.98437 13.3437 1.39062 12.9765 1.02734C12.6093 0.664062 12.0156 0.660156 11.6523 1.02734L7.00385 5.67578L2.3515 1.02344C1.98431 0.65625 1.39056 0.65625 1.02728 1.02344C0.664001 1.39062 0.660095 1.98437 1.02728 2.34766L5.67572 6.99609L1.02338 11.6484C0.656189 12.0156 0.656189 12.6094 1.02338 12.9727C1.39056 13.3359 1.98431 13.3398 2.3476 12.9727L6.99603 8.32422L11.6484 12.9766C12.0156 13.3437 12.6093 13.3437 12.9726 12.9766C13.3359 12.6094 13.3398 12.0156 12.9726 11.6523L8.32416 7.00391L12.9765 2.35156Z" fill="#B8B8B9"/>
</svg>
