<svg width="49" height="50" viewBox="0 0 49 50" fill="none" xmlns="http://www.w3.org/2000/svg">
<path d="M10.0213 47.7529C9.03831 42.6478 9.00917 37.3671 8.47719 32.2212C8.28375 30.3499 7.94664 28.5172 7.60953 26.6845C7.46101 25.8429 6.36555 24.0531 7.21579 24.0656C7.90233 24.0419 9.32518 25.9042 9.84459 26.4061C12.2061 28.8983 14.1968 31.7303 16.311 34.449C16.6667 34.9146 17.8824 37.153 18.2817 37.2062C19.0083 37.3321 20.3233 35.0567 20.6341 34.4926C21.7336 32.2749 22.7756 24.3835 23.7446 23.4027C24.0437 23.0822 25.6337 24.419 25.9293 24.6603C27.6913 26.3516 28.9153 28.9083 29.8954 31.1296C30.2795 31.9882 30.5917 32.8661 30.7802 33.8573C30.8003 33.932 30.9806 34.6049 30.9806 34.6049C35.6061 33.7661 36.0852 25.7852 37.8126 24.7614C38.3472 24.4579 40.0105 27.2174 40.2025 27.6467C40.8504 28.9154 43.889 37.957 43.5547 39.0081C42.8862 41.1103 38.1322 41.1822 36.3882 41.5693C29.2803 42.913 22.281 44.9487 15.3534 46.9652" stroke="#FAAF42" stroke-width="3" stroke-miterlimit="1.5" stroke-linecap="round"/>
<path d="M8.11621 9.74121C9.52816 10.8697 10.9931 11.9003 12.0981 13.3622" stroke="#FAAF42" stroke-width="3" stroke-miterlimit="1.5" stroke-linecap="round"/>
<path d="M18.9648 5.271C19.2904 6.48597 19.616 7.70096 19.9415 8.91594" stroke="#FAAF42" stroke-width="3" stroke-miterlimit="1.5" stroke-linecap="round"/>
<path d="M31.3013 3.52857C30.8893 5.46206 30.5557 7.19225 30.5612 9.19619" stroke="#FAAF42" stroke-width="3" stroke-miterlimit="1.5" stroke-linecap="round"/>
<path d="M40.0036 5.10254C39.6279 6.76587 39.6484 6.58675 39.38 8.39496" stroke="#FAAF42" stroke-width="3" stroke-miterlimit="1.5" stroke-linecap="round"/>
</svg>
