<svg width="51" height="84" viewBox="0 0 51 84" fill="none" xmlns="http://www.w3.org/2000/svg">
<path fill-rule="evenodd" clip-rule="evenodd" d="M23.5996 57.859C23.5732 57.2794 23.5785 56.7151 23.6049 56.1854C23.6946 54.5925 25.1197 54.598 25.2305 54.6002C25.4628 54.6056 26.4973 54.6736 26.7454 55.9156C26.7612 55.9897 26.7982 56.526 26.8087 56.7327C26.8298 57.1736 26.8404 57.6068 26.7823 58.0416C26.8351 58.7792 26.9512 59.5381 27.1729 60.252C27.4948 61.306 28.0174 62.2787 28.9621 62.7969C30.6511 63.7291 32.8731 63.6913 34.731 63.9282C35.5069 64.0269 36.098 64.6992 36.1244 65.5107C36.1455 66.3228 35.5966 67.0313 34.826 67.1788C32.5037 67.6252 29.833 69.8192 28.1334 71.5859C27.6109 72.1288 27.0251 73.4218 26.3706 74.2498C25.8428 74.9133 25.2569 75.3581 24.7027 75.5346C24.4863 75.6032 23.2882 75.8532 22.7499 74.5646C22.6021 74.2027 22.0796 72.3076 22.0321 72.0915C21.747 70.8533 21.3407 69.7473 20.5437 68.7625C19.8523 67.9087 19.013 67.1629 18.0049 66.7495C17.5985 66.5828 17.1763 66.4561 16.754 66.3256C16.6062 66.3069 16.1893 66.2521 16.0415 66.2C15.7406 66.0958 15.5189 65.9324 15.3606 65.7696C15.0598 65.4614 14.9067 65.0934 14.8803 64.6745C14.8592 64.3981 14.8961 64.0702 15.0861 63.7067C15.2286 63.4484 15.5506 63.0596 16.1312 62.8073C16.7382 62.5436 18.0419 62.293 18.2741 62.2277C19.8892 61.7759 21.4726 61.0888 22.7129 59.8978C23.3305 59.3023 23.473 58.6602 23.5996 57.859ZM24.6342 62.5222C25.257 63.8635 26.1859 64.9926 27.479 65.7038C28.0121 65.9993 28.5926 66.2236 29.1943 66.398C27.954 67.2951 26.8034 68.315 25.8903 69.2604C25.5947 69.568 25.2728 70.0659 24.9297 70.6126C24.5286 69.1529 23.9374 67.8418 22.9663 66.642C22.391 65.9346 21.7417 65.2881 21.0187 64.7491C22.3276 64.2106 23.568 63.4901 24.6342 62.5222Z" fill="#FAAF42"/>
<path fill-rule="evenodd" clip-rule="evenodd" d="M31.0053 27.3287C30.8625 26.8852 30.7474 26.4472 30.6558 26.0316C30.3885 24.7799 31.4884 24.4948 31.5743 24.474C31.7545 24.4311 32.5666 24.2738 33.0202 25.1852C33.0481 25.2393 33.1898 25.6471 33.2417 25.805C33.3511 26.1421 33.4507 26.4755 33.4978 26.824C33.6943 27.3844 33.9441 27.9485 34.2659 28.4564C34.7368 29.2072 35.3452 29.8544 36.1831 30.0639C37.6823 30.4429 39.3875 29.9626 40.87 29.7688C41.4891 29.6878 42.0869 30.0884 42.2787 30.7115C42.4665 31.3361 42.193 31.9961 41.63 32.2668C39.9337 33.0839 38.338 35.325 37.4008 37.0382C37.1126 37.5646 36.934 38.6848 36.6043 39.4589C36.3375 40.0798 35.9798 40.5432 35.5898 40.7924C35.4374 40.8894 34.5664 41.3262 33.8791 40.4376C33.6887 40.1874 32.8855 38.8259 32.8032 38.6683C32.3219 37.7673 31.7749 36.9933 30.9524 36.3924C30.2389 35.8716 29.4343 35.4645 28.5697 35.349C28.2211 35.3024 27.8688 35.29 27.5156 35.2747C27.3978 35.2902 27.0647 35.3324 26.9397 35.3221C26.6858 35.3025 26.4803 35.2209 26.3238 35.127C26.0268 34.9494 25.831 34.6955 25.7222 34.3765C25.6475 34.1668 25.6067 33.9053 25.6764 33.5852C25.7317 33.3563 25.8978 32.9899 26.2922 32.6767C26.7045 32.3492 27.6567 31.8905 27.822 31.7928C28.9718 31.115 30.0476 30.2616 30.7523 29.0875C31.1026 28.501 31.0768 27.9748 31.0053 27.3287ZM32.788 30.7298C33.5516 31.642 34.5063 32.3277 35.6536 32.616C36.127 32.7366 36.6221 32.7925 37.1228 32.8054C36.356 33.7518 35.6843 34.7752 35.18 35.6926C35.0171 35.9909 34.874 36.4418 34.725 36.9348C34.1073 35.8858 33.3746 34.9906 32.3724 34.2586C31.7793 33.8276 31.1422 33.4588 30.4708 33.1881C31.3663 32.5054 32.1704 31.6957 32.788 30.7298Z" fill="#FAAF42"/>
<path fill-rule="evenodd" clip-rule="evenodd" d="M14.9234 10.2048C15 9.86418 15.0924 9.53727 15.1916 9.23364C15.4959 8.32213 16.3191 8.54229 16.3828 8.56044C16.5163 8.59898 17.1037 8.79598 17.0504 9.55509C17.0478 9.60049 16.9842 9.91758 16.9576 10.0393C16.8999 10.2985 16.8374 10.5517 16.7349 10.7954C16.6486 11.2318 16.5955 11.6903 16.6106 12.1387C16.6298 12.7998 16.7778 13.4443 17.2421 13.8891C18.0711 14.6877 19.362 15.004 20.3988 15.4245C20.8318 15.5999 21.0672 16.0804 20.9539 16.5557C20.8374 17.0306 20.4077 17.3585 19.9387 17.3268C18.5251 17.2325 16.6331 18.1001 15.3703 18.8675C14.9822 19.1032 14.4385 19.765 13.9289 20.1462C13.5185 20.4512 13.1093 20.6203 12.7608 20.6385C12.6248 20.6454 11.8924 20.6082 11.7852 19.7778C11.7571 19.5451 11.7552 18.3649 11.762 18.2322C11.7933 17.4697 11.7336 16.7654 11.4287 16.0721C11.1642 15.471 10.797 14.9101 10.2796 14.5165C10.0709 14.3578 9.84685 14.2199 9.62335 14.0798C9.54084 14.0465 9.30842 13.9512 9.23121 13.8984C9.07375 13.7921 8.97143 13.6635 8.90567 13.5448C8.78052 13.32 8.7503 13.083 8.80141 12.8356C8.83299 12.6719 8.90632 12.4871 9.07379 12.3049C9.19712 12.1766 9.4449 11.9998 9.8206 11.9417C10.2134 11.8809 11.007 11.9338 11.1516 11.9313C12.1572 11.9148 13.1817 11.7568 14.0876 11.2539C14.5391 11.0021 14.7232 10.6508 14.9234 10.2048ZM14.7828 13.0707C14.9305 13.9445 15.2887 14.7416 15.9238 15.3516C16.1853 15.6044 16.4855 15.823 16.8058 16.0159C15.9464 16.3481 15.1194 16.7653 14.4416 17.1753C14.222 17.309 13.9569 17.5491 13.6719 17.8144C13.6712 16.9056 13.5371 16.0541 13.1656 15.2094C12.945 14.711 12.672 14.2367 12.3393 13.8135C13.1815 13.7001 14.013 13.4704 14.7828 13.0707Z" fill="#FAAF42"/>
</svg>
