<svg width="20" height="20" viewBox="0 0 20 20" fill="none" xmlns="http://www.w3.org/2000/svg">
<path fill-rule="evenodd" clip-rule="evenodd" d="M2.54676 8.84585C3.43907 8.52791 4.37806 8.10533 5.10216 7.49354C5.96216 6.76687 6.31191 5.83099 6.54679 4.84586C6.84833 3.58022 6.96881 2.232 7.33445 0.964307C7.46984 0.493538 7.73038 0.315586 7.84217 0.236611C8.12474 0.037124 8.41036 -0.0161988 8.67907 0.00380122C8.99753 0.0268781 9.43499 0.147383 9.72268 0.681229C9.76371 0.757639 9.81702 0.874055 9.85292 1.03354C9.87907 1.15047 9.896 1.5161 9.92369 1.66687C9.99292 2.03815 10.0509 2.40945 10.1052 2.78278C10.2863 4.02534 10.3904 5.08071 10.9622 6.22225C11.7381 7.77199 12.5155 8.7202 13.5699 9.1402C14.5894 9.54636 15.8083 9.46996 17.3658 9.1515C17.514 9.1156 17.6606 9.08483 17.8057 9.0597C18.4924 8.9397 19.1488 9.39047 19.2837 10.0746C19.4186 10.7582 18.9822 11.4243 18.3017 11.5746C18.1596 11.6058 18.0196 11.6356 17.8811 11.6628C15.7765 12.1838 13.3401 14.0433 11.9242 15.6715C11.4878 16.1735 10.8488 17.5771 10.197 18.4725C9.71601 19.133 9.17549 19.5684 8.72164 19.7223C8.41754 19.8258 8.16114 19.81 7.94934 19.7577C7.64165 19.6818 7.38628 19.5151 7.19038 19.2499C7.08371 19.1048 6.98472 18.9105 6.93754 18.6623C6.91497 18.5428 6.91242 18.2392 6.91294 18.1018C6.78011 17.6448 6.61755 17.1987 6.49909 16.7376C6.21652 15.6376 5.66215 14.9412 5.00369 14.0212C4.3878 13.1602 3.72628 12.6192 2.75653 12.1874C2.63038 12.1566 1.61243 11.9074 1.25294 11.7643C0.727813 11.5546 0.477543 11.2033 0.386774 11.014C0.232415 10.693 0.216532 10.4125 0.247301 10.1787C0.292942 9.83355 0.447815 9.53817 0.722687 9.29971C0.892943 9.1515 1.1473 9.00738 1.48782 8.93713C1.75089 8.88225 2.44881 8.85047 2.54676 8.84585ZM8.51857 7.05302C8.56575 7.15815 8.61601 7.2638 8.66934 7.37046C9.80575 9.64021 11.0765 10.9074 12.6211 11.5223L12.6729 11.5423C11.6396 12.3094 10.7042 13.1669 9.98933 13.9889C9.69497 14.3274 9.30524 15.0305 8.88421 15.7515C8.50165 14.5079 7.87601 13.6289 7.08934 12.5289C6.48832 11.6894 5.85857 11.0577 5.08473 10.5428C5.68524 10.2346 6.25806 9.87355 6.75703 9.45201C7.5878 8.74996 8.13703 7.93661 8.51857 7.05302Z" fill="#EF664F"/>
</svg>
