<svg width="25" height="24" viewBox="0 0 25 24" fill="none" xmlns="http://www.w3.org/2000/svg">
<g clip-path="url(#clip0_1306_15398)">
<path d="M24.3154 12C24.3154 5.57812 19.1123 0.375 12.6904 0.375C6.26855 0.375 1.06543 5.57812 1.06543 12C1.06543 17.8022 5.31652 22.6116 10.874 23.4844V15.3605H7.9209V12H10.874V9.43875C10.874 6.52547 12.6084 4.91625 15.2648 4.91625C16.537 4.91625 17.8673 5.14313 17.8673 5.14313V8.0025H16.4011C14.9573 8.0025 14.5068 8.89875 14.5068 9.81797V12H17.7309L17.2153 15.3605H14.5068V23.4844C20.0643 22.6116 24.3154 17.8022 24.3154 12Z" fill="#EAEEEE"/>
</g>
<defs>
<clipPath id="clip0_1306_15398">
<rect width="24" height="24" fill="white" transform="translate(0.69043)"/>
</clipPath>
</defs>
</svg>
