<svg width="381" height="187" viewBox="0 0 381 187" fill="none" xmlns="http://www.w3.org/2000/svg">
<path d="M324.512 154.47L324.512 154.47C348.642 144.422 364.868 131.555 370.869 117.257C373.876 110.093 374.308 102.585 371.892 94.936C369.48 87.2965 364.236 79.5447 355.939 71.8569L355.938 71.8564C330.182 48.057 287.36 28.4075 239.414 16.4965C191.459 4.58325 138.312 0.395004 91.8696 7.57146M324.512 154.47L91.9459 8.0656M324.512 154.47C309.809 160.584 295.048 166.056 276.471 166.61C275.519 166.641 274.664 166.906 274.081 167.283C273.486 167.669 273.273 168.095 273.318 168.453L273.322 168.484V168.515C273.322 168.872 273.596 169.297 274.278 169.654C274.94 170 275.879 170.214 276.914 170.184C296.883 169.589 312.929 163.889 328.708 157.268L328.709 157.267C354.577 146.501 371.642 132.805 377.864 117.811C380.969 110.33 381.382 102.509 378.83 94.5227C376.274 86.5273 370.736 78.3391 361.893 70.1591L362.233 69.792M324.512 154.47L362.233 69.792M91.8696 7.57146L91.9459 8.0656M91.8696 7.57146C91.8697 7.57146 91.8698 7.57141 91.8699 7.57141L91.9459 8.0656M91.8696 7.57146C89.9177 7.8716 87.8979 8.1685 85.8231 8.4735C66.1273 11.3687 41.476 14.9924 22.9271 29.0294M91.9459 8.0656C89.9924 8.366 87.9731 8.66301 85.9007 8.96783C66.1874 11.8674 41.6685 15.4738 23.2288 29.4281M22.9271 29.0294L23.2288 29.4281M22.9271 29.0294C22.9271 29.0294 22.9271 29.0294 22.9271 29.0294L23.2288 29.4281M22.9271 29.0294L23.2288 29.4281M362.233 69.792L361.893 70.1589C335.52 45.7419 291.459 25.5321 241.996 13.279C192.543 1.02815 137.756 -3.25241 89.969 4.13519L89.9688 4.13522C88.1621 4.41394 86.3038 4.69154 84.4028 4.97556C63.3123 8.12627 36.951 12.0644 17.2123 27.0468C9.0611 33.2637 4.27531 39.9182 2.04253 46.7311C-0.190109 53.5435 0.114949 60.56 2.22373 67.5271C5.35158 77.7315 12.403 87.8011 20.8104 96.8258C29.2125 105.845 38.9385 113.788 47.3693 119.742C108.406 162.656 231.014 201.388 341.605 180.821C342.559 180.641 343.232 180.262 343.591 179.851C343.932 179.459 343.988 179.056 343.782 178.665C343.556 178.234 342.995 177.826 342.148 177.576C341.318 177.331 340.292 177.264 339.258 177.444C339.257 177.444 339.256 177.444 339.255 177.444L362.233 69.792ZM13.3122 76.8347C13.3121 76.8345 13.312 76.8342 13.3118 76.834L13.7506 76.5942L13.3125 76.8353C13.3124 76.8351 13.3123 76.8349 13.3122 76.8347Z" fill="#37BA95" stroke="white"/>
</svg>
