<svg width="20" height="18" viewBox="0 0 20 18" fill="none" xmlns="http://www.w3.org/2000/svg">
<path d="M19.6531 9.81831C19.8734 9.60737 20 9.31205 20 9.00268C20 8.69331 19.8734 8.40268 19.6531 8.18706L11.4031 0.312055C10.9531 -0.119195 10.2406 -0.100445 9.81406 0.349555C9.3875 0.799555 9.40156 1.51206 9.85156 1.93862L16.0672 7.87768H1.125C0.501562 7.87768 0 8.37924 0 9.00268C0 9.62612 0.501562 10.1277 1.125 10.1277H16.0672L9.84687 16.0621C9.39687 16.4933 9.38281 17.2011 9.80938 17.6511C10.2359 18.1011 10.9484 18.1152 11.3984 17.6886L19.6484 9.81362L19.6531 9.81831Z" fill="#B8B8B9"/>
</svg>
