<svg width="289" height="169" viewBox="0 0 289 169" fill="none" xmlns="http://www.w3.org/2000/svg">
<path fill-rule="evenodd" clip-rule="evenodd" d="M280.345 116.469C274.261 130.965 257.874 143.901 233.707 153.965C218.992 160.084 204.16 165.587 185.486 166.144C184.61 166.172 183.849 166.417 183.358 166.735C182.837 167.073 182.825 167.328 182.832 167.385L182.841 167.45V167.516C182.841 167.573 182.898 167.858 183.513 168.179C184.084 168.478 184.934 168.68 185.899 168.652C205.774 168.06 221.751 162.389 237.512 155.775L237.515 155.774C263.344 145.023 280.247 131.398 286.387 116.603C289.443 109.239 289.85 101.551 287.337 93.6899C284.817 85.8084 279.344 77.6945 270.546 69.5559C244.263 45.2226 200.296 25.0411 150.874 12.7981C101.938 0.675308 47.7848 -3.63091 0.396973 3.45778L1.54425 5.92995C47.887 -1.09824 100.788 3.11736 148.535 14.9791C196.522 26.9003 239.438 46.5781 265.285 70.4608L265.286 70.4617C273.628 78.1912 278.937 86.0181 281.386 93.7722C283.841 101.547 283.401 109.188 280.345 116.469Z" fill="#37BA95"/>
</svg>
