<svg width="58" height="58" viewBox="0 0 58 58" fill="none" xmlns="http://www.w3.org/2000/svg">
<rect x="16.46" y="2" width="30" height="30" rx="4" transform="rotate(10 16.46 2)" fill="url(#paint0_linear_655_44342)"/>
<g filter="url(#filter0_bd_655_44342)">
<rect x="8" y="8" width="32" height="32" rx="4" fill="url(#paint1_linear_655_44342)" shape-rendering="crispEdges"/>
<rect x="8.5" y="8.5" width="31" height="31" rx="3.5" stroke="url(#paint2_linear_655_44342)" shape-rendering="crispEdges"/>
</g>
<path d="M25.6665 16.5L27.6999 18.45L21.0749 18.4333C18.0999 18.4333 15.6582 20.875 15.6582 23.8667C15.6582 25.3584 16.2665 26.7167 17.2499 27.7" stroke="white" stroke-width="1.8" stroke-linecap="round" stroke-linejoin="round"/>
<path d="M22.3331 31.5008L20.2998 29.5508L26.9248 29.5674C29.8998 29.5674 32.3415 27.1258 32.3415 24.1341C32.3415 22.6424 31.7331 21.2841 30.7498 20.3008" stroke="white" stroke-width="1.8" stroke-linecap="round" stroke-linejoin="round"/>
<defs>
<filter id="filter0_bd_655_44342" x="2" y="2" width="56" height="56" filterUnits="userSpaceOnUse" color-interpolation-filters="sRGB">
<feFlood flood-opacity="0" result="BackgroundImageFix"/>
<feGaussianBlur in="BackgroundImageFix" stdDeviation="3"/>
<feComposite in2="SourceAlpha" operator="in" result="effect1_backgroundBlur_655_44342"/>
<feColorMatrix in="SourceAlpha" type="matrix" values="0 0 0 0 0 0 0 0 0 0 0 0 0 0 0 0 0 0 127 0" result="hardAlpha"/>
<feOffset dx="6" dy="6"/>
<feGaussianBlur stdDeviation="6"/>
<feComposite in2="hardAlpha" operator="out"/>
<feColorMatrix type="matrix" values="0 0 0 0 0.223529 0 0 0 0 0.435294 0 0 0 0 0.690196 0 0 0 0.2 0"/>
<feBlend mode="normal" in2="effect1_backgroundBlur_655_44342" result="effect2_dropShadow_655_44342"/>
<feBlend mode="normal" in="SourceGraphic" in2="effect2_dropShadow_655_44342" result="shape"/>
</filter>
<linearGradient id="paint0_linear_655_44342" x1="16.46" y1="2" x2="48.9576" y2="5.0069" gradientUnits="userSpaceOnUse">
<stop stop-color="#396FB0"/>
<stop offset="1" stop-color="#7EAEE6"/>
</linearGradient>
<linearGradient id="paint1_linear_655_44342" x1="5.2" y1="8" x2="41.2437" y2="36.4498" gradientUnits="userSpaceOnUse">
<stop stop-color="#C0D4EB" stop-opacity="0.5"/>
<stop offset="1" stop-color="#396FB0" stop-opacity="0"/>
</linearGradient>
<linearGradient id="paint2_linear_655_44342" x1="24" y1="8" x2="24" y2="40" gradientUnits="userSpaceOnUse">
<stop stop-color="white" stop-opacity="0.6"/>
<stop offset="1" stop-color="white" stop-opacity="0"/>
</linearGradient>
</defs>
</svg>
