<svg width="58" height="58" viewBox="0 0 58 58" fill="none" xmlns="http://www.w3.org/2000/svg">
<rect x="16.46" y="2" width="30" height="30" rx="4" transform="rotate(10 16.46 2)" fill="url(#paint0_linear_1529_5985)"/>
<g filter="url(#filter0_bd_1529_5985)">
<rect x="8" y="8" width="32" height="32" rx="4" fill="url(#paint1_linear_1529_5985)" shape-rendering="crispEdges"/>
<rect x="8.5" y="8.5" width="31" height="31" rx="3.5" stroke="url(#paint2_linear_1529_5985)" shape-rendering="crispEdges"/>
</g>
<path d="M32.3332 27.9501V17.8917C32.3332 16.8917 31.5165 16.1501 30.5248 16.2334H30.4748C28.7248 16.3834 26.0665 17.2751 24.5832 18.2084L24.4415 18.3001C24.1998 18.4501 23.7998 18.4501 23.5582 18.3001L23.3498 18.1751C21.8665 17.2501 19.2165 16.3667 17.4665 16.2251C16.4748 16.1417 15.6665 16.8917 15.6665 17.8834V27.9501C15.6665 28.7501 16.3165 29.5001 17.1165 29.6001L17.3582 29.6334C19.1665 29.8751 21.9582 30.7917 23.5582 31.6667L23.5915 31.6834C23.8165 31.8084 24.1748 31.8084 24.3915 31.6834C25.9915 30.8001 28.7915 29.8751 30.6082 29.6334L30.8832 29.6001C31.6832 29.5001 32.3332 28.7501 32.3332 27.9501Z" stroke="white" stroke-width="1.8" stroke-linecap="round" stroke-linejoin="round"/>
<path d="M24 18.5742V31.0742" stroke="white" stroke-width="1.8" stroke-linecap="round" stroke-linejoin="round"/>
<path d="M20.4585 21.0742H18.5835" stroke="white" stroke-width="1.4" stroke-linecap="round" stroke-linejoin="round"/>
<path d="M21.0835 23.5742H18.5835" stroke="white" stroke-width="1.4" stroke-linecap="round" stroke-linejoin="round"/>
<defs>
<filter id="filter0_bd_1529_5985" x="2" y="2" width="56" height="56" filterUnits="userSpaceOnUse" color-interpolation-filters="sRGB">
<feFlood flood-opacity="0" result="BackgroundImageFix"/>
<feGaussianBlur in="BackgroundImageFix" stdDeviation="3"/>
<feComposite in2="SourceAlpha" operator="in" result="effect1_backgroundBlur_1529_5985"/>
<feColorMatrix in="SourceAlpha" type="matrix" values="0 0 0 0 0 0 0 0 0 0 0 0 0 0 0 0 0 0 127 0" result="hardAlpha"/>
<feOffset dx="6" dy="6"/>
<feGaussianBlur stdDeviation="6"/>
<feComposite in2="hardAlpha" operator="out"/>
<feColorMatrix type="matrix" values="0 0 0 0 0.980392 0 0 0 0 0.686275 0 0 0 0 0.258824 0 0 0 0.2 0"/>
<feBlend mode="normal" in2="effect1_backgroundBlur_1529_5985" result="effect2_dropShadow_1529_5985"/>
<feBlend mode="normal" in="SourceGraphic" in2="effect2_dropShadow_1529_5985" result="shape"/>
</filter>
<linearGradient id="paint0_linear_1529_5985" x1="16.46" y1="2" x2="48.9576" y2="5.0069" gradientUnits="userSpaceOnUse">
<stop stop-color="#FAAF42"/>
<stop offset="1" stop-color="#F6DA76"/>
</linearGradient>
<linearGradient id="paint1_linear_1529_5985" x1="5.2" y1="8" x2="41.2437" y2="36.4498" gradientUnits="userSpaceOnUse">
<stop stop-color="#F0E2D3"/>
<stop offset="1" stop-color="#FAAF42" stop-opacity="0"/>
</linearGradient>
<linearGradient id="paint2_linear_1529_5985" x1="24" y1="8" x2="24" y2="40" gradientUnits="userSpaceOnUse">
<stop stop-color="white" stop-opacity="0.6"/>
<stop offset="1" stop-color="white" stop-opacity="0"/>
</linearGradient>
</defs>
</svg>
