<svg width="58" height="58" viewBox="0 0 58 58" fill="none" xmlns="http://www.w3.org/2000/svg">
<rect x="16.46" y="2" width="30" height="30" rx="4" transform="rotate(10 16.46 2)" fill="url(#paint0_linear_655_44296)"/>
<g filter="url(#filter0_bd_655_44296)">
<rect x="8" y="8" width="32" height="32" rx="4" fill="url(#paint1_linear_655_44296)" shape-rendering="crispEdges"/>
<rect x="8.5" y="8.5" width="31" height="31" rx="3.5" stroke="url(#paint2_linear_655_44296)" shape-rendering="crispEdges"/>
</g>
<path d="M32.3332 24.0013C32.3332 28.6013 28.5998 32.3346 23.9998 32.3346C19.3998 32.3346 15.6665 28.6013 15.6665 24.0013C15.6665 19.4013 19.3998 15.668 23.9998 15.668C28.5998 15.668 32.3332 19.4013 32.3332 24.0013Z" stroke="white" stroke-width="1.8" stroke-linecap="round" stroke-linejoin="round"/>
<path d="M27.0919 26.6495L24.5086 25.1078C24.0586 24.8411 23.6919 24.1995 23.6919 23.6745V20.2578" stroke="white" stroke-width="1.4" stroke-linecap="round" stroke-linejoin="round"/>
<defs>
<filter id="filter0_bd_655_44296" x="2" y="2" width="56" height="56" filterUnits="userSpaceOnUse" color-interpolation-filters="sRGB">
<feFlood flood-opacity="0" result="BackgroundImageFix"/>
<feGaussianBlur in="BackgroundImageFix" stdDeviation="3"/>
<feComposite in2="SourceAlpha" operator="in" result="effect1_backgroundBlur_655_44296"/>
<feColorMatrix in="SourceAlpha" type="matrix" values="0 0 0 0 0 0 0 0 0 0 0 0 0 0 0 0 0 0 127 0" result="hardAlpha"/>
<feOffset dx="6" dy="6"/>
<feGaussianBlur stdDeviation="6"/>
<feComposite in2="hardAlpha" operator="out"/>
<feColorMatrix type="matrix" values="0 0 0 0 0.937255 0 0 0 0 0.4 0 0 0 0 0.309804 0 0 0 0.2 0"/>
<feBlend mode="normal" in2="effect1_backgroundBlur_655_44296" result="effect2_dropShadow_655_44296"/>
<feBlend mode="normal" in="SourceGraphic" in2="effect2_dropShadow_655_44296" result="shape"/>
</filter>
<linearGradient id="paint0_linear_655_44296" x1="16.46" y1="2" x2="48.9576" y2="5.0069" gradientUnits="userSpaceOnUse">
<stop stop-color="#EF664F"/>
<stop offset="1" stop-color="#FAAF42"/>
</linearGradient>
<linearGradient id="paint1_linear_655_44296" x1="5.2" y1="8" x2="41.2437" y2="36.4498" gradientUnits="userSpaceOnUse">
<stop stop-color="#FBD1B4" stop-opacity="0.5"/>
<stop offset="1" stop-color="#EF664F" stop-opacity="0"/>
</linearGradient>
<linearGradient id="paint2_linear_655_44296" x1="24" y1="8" x2="24" y2="40" gradientUnits="userSpaceOnUse">
<stop stop-color="white" stop-opacity="0.6"/>
<stop offset="1" stop-color="white" stop-opacity="0"/>
</linearGradient>
</defs>
</svg>
