<svg width="58" height="58" viewBox="0 0 58 58" fill="none" xmlns="http://www.w3.org/2000/svg">
<rect x="16.46" y="2" width="30" height="30" rx="4" transform="rotate(10 16.46 2)" fill="url(#paint0_linear_703_36146)"/>
<g filter="url(#filter0_bd_703_36146)">
<rect x="8" y="8" width="32" height="32" rx="4" fill="url(#paint1_linear_703_36146)" shape-rendering="crispEdges"/>
<rect x="8.5" y="8.5" width="31" height="31" rx="3.5" stroke="url(#paint2_linear_703_36146)" shape-rendering="crispEdges"/>
</g>
<path d="M20.0583 24.8433C19.6166 24.6183 19.125 24.5016 18.625 24.5016C14.725 24.7766 14.725 30.4516 18.625 30.7266H27.8666C28.9916 30.7349 30.075 30.3183 30.9 29.5599C33.6416 27.1683 32.175 22.3599 28.5666 21.9016C27.2666 14.0933 15.9916 17.0599 18.6666 24.5016" stroke="white" stroke-width="1.8" stroke-linecap="round" stroke-linejoin="round"/>
<path d="M27.2083 22.2674C27.6416 22.0508 28.1166 21.9341 28.5999 21.9258" stroke="white" stroke-width="1.8" stroke-linecap="round" stroke-linejoin="round"/>
<defs>
<filter id="filter0_bd_703_36146" x="2" y="2" width="56" height="56" filterUnits="userSpaceOnUse" color-interpolation-filters="sRGB">
<feFlood flood-opacity="0" result="BackgroundImageFix"/>
<feGaussianBlur in="BackgroundImageFix" stdDeviation="3"/>
<feComposite in2="SourceAlpha" operator="in" result="effect1_backgroundBlur_703_36146"/>
<feColorMatrix in="SourceAlpha" type="matrix" values="0 0 0 0 0 0 0 0 0 0 0 0 0 0 0 0 0 0 127 0" result="hardAlpha"/>
<feOffset dx="6" dy="6"/>
<feGaussianBlur stdDeviation="6"/>
<feComposite in2="hardAlpha" operator="out"/>
<feColorMatrix type="matrix" values="0 0 0 0 0.521569 0 0 0 0 0.470588 0 0 0 0 0.964706 0 0 0 0.2 0"/>
<feBlend mode="normal" in2="effect1_backgroundBlur_703_36146" result="effect2_dropShadow_703_36146"/>
<feBlend mode="normal" in="SourceGraphic" in2="effect2_dropShadow_703_36146" result="shape"/>
</filter>
<linearGradient id="paint0_linear_703_36146" x1="16.46" y1="2" x2="48.9576" y2="5.0069" gradientUnits="userSpaceOnUse">
<stop stop-color="#8578F6"/>
<stop offset="1" stop-color="#BCB2FB"/>
</linearGradient>
<linearGradient id="paint1_linear_703_36146" x1="5.2" y1="8" x2="41.2437" y2="36.4498" gradientUnits="userSpaceOnUse">
<stop stop-color="#D2D5F5" stop-opacity="0.5"/>
<stop offset="1" stop-color="#8578F6" stop-opacity="0"/>
</linearGradient>
<linearGradient id="paint2_linear_703_36146" x1="24" y1="8" x2="24" y2="40" gradientUnits="userSpaceOnUse">
<stop stop-color="white" stop-opacity="0.6"/>
<stop offset="1" stop-color="white" stop-opacity="0"/>
</linearGradient>
</defs>
</svg>
