<svg width="20" height="20" viewBox="0 0 20 20" fill="none" xmlns="http://www.w3.org/2000/svg">
<path d="M15.1807 9.12932C16.3849 8.95843 17.312 7.91567 17.3146 6.65232C17.3146 5.40729 16.4159 4.37499 15.2376 4.17969" stroke="white" stroke-width="1.4" stroke-linecap="round" stroke-linejoin="round"/>
<path d="M16.7695 12.0508C17.9357 12.2269 18.7498 12.6393 18.7498 13.4894C18.7498 14.0744 18.3665 14.4545 17.7467 14.6934" stroke="white" stroke-width="1.4" stroke-linecap="round" stroke-linejoin="round"/>
<path fill-rule="evenodd" clip-rule="evenodd" d="M9.85735 12.5C7.16037 12.5 4.85693 12.9161 4.85693 14.5778C4.85693 16.2386 7.1461 16.6667 9.85735 16.6667C12.5543 16.6667 14.8569 16.2549 14.8569 14.5923C14.8569 12.9297 12.5686 12.5 9.85735 12.5Z" stroke="white" stroke-width="1.8" stroke-linecap="round" stroke-linejoin="round"/>
<path fill-rule="evenodd" clip-rule="evenodd" d="M9.99985 9.9987C11.8406 9.9987 13.3332 8.50703 13.3332 6.66536C13.3332 4.82457 11.8406 3.33203 9.99985 3.33203C8.15906 3.33203 6.66653 4.82457 6.66653 6.66536C6.65955 8.50005 8.14073 9.99259 9.97541 9.9987H9.99985Z" stroke="white" stroke-width="1.8" stroke-linecap="round" stroke-linejoin="round"/>
<path d="M4.81944 9.12932C3.61438 8.95843 2.68814 7.91567 2.68555 6.65232C2.68555 5.40729 3.58416 4.37499 4.76246 4.17969" stroke="white" stroke-width="1.4" stroke-linecap="round" stroke-linejoin="round"/>
<path d="M3.23023 12.0508C2.06402 12.2269 1.25 12.6393 1.25 13.4894C1.25 14.0744 1.63327 14.4545 2.25307 14.6934" stroke="white" stroke-width="1.4" stroke-linecap="round" stroke-linejoin="round"/>
</svg>
