<svg width="58" height="58" viewBox="0 0 58 58" fill="none" xmlns="http://www.w3.org/2000/svg">
<rect x="16.46" y="2" width="30" height="30" rx="4" transform="rotate(10 16.46 2)" fill="url(#paint0_linear_655_44273)"/>
<g filter="url(#filter0_bd_655_44273)">
<rect x="8" y="8" width="32" height="32" rx="4" fill="url(#paint1_linear_655_44273)" shape-rendering="crispEdges"/>
<rect x="8.5" y="8.5" width="31" height="31" rx="3.5" stroke="url(#paint2_linear_655_44273)" shape-rendering="crispEdges"/>
</g>
<path d="M21.7583 26.2513L23.0083 27.5013L26.3416 24.168" stroke="white" stroke-width="1.4" stroke-linecap="round" stroke-linejoin="round"/>
<path d="M22.3332 19.0013H25.6665C27.3332 19.0013 27.3332 18.168 27.3332 17.3346C27.3332 15.668 26.4998 15.668 25.6665 15.668H22.3332C21.4998 15.668 20.6665 15.668 20.6665 17.3346C20.6665 19.0013 21.4998 19.0013 22.3332 19.0013Z" stroke="white" stroke-width="1.4" stroke-linecap="round" stroke-linejoin="round"/>
<path d="M27.75 17.332C30.525 17.482 31.5 18.5237 31.5 22.332V27.332C31.5 30.6654 30.6667 32.332 26.5 32.332H21.5C17.3333 32.332 16.5 30.6654 16.5 27.332V22.332C16.5 18.532 17.475 17.482 20.25 17.332" stroke="white" stroke-width="1.8" stroke-linecap="round" stroke-linejoin="round"/>
<defs>
<filter id="filter0_bd_655_44273" x="2" y="2" width="56" height="56" filterUnits="userSpaceOnUse" color-interpolation-filters="sRGB">
<feFlood flood-opacity="0" result="BackgroundImageFix"/>
<feGaussianBlur in="BackgroundImageFix" stdDeviation="3"/>
<feComposite in2="SourceAlpha" operator="in" result="effect1_backgroundBlur_655_44273"/>
<feColorMatrix in="SourceAlpha" type="matrix" values="0 0 0 0 0 0 0 0 0 0 0 0 0 0 0 0 0 0 127 0" result="hardAlpha"/>
<feOffset dx="6" dy="6"/>
<feGaussianBlur stdDeviation="6"/>
<feComposite in2="hardAlpha" operator="out"/>
<feColorMatrix type="matrix" values="0 0 0 0 0.980392 0 0 0 0 0.686275 0 0 0 0 0.258824 0 0 0 0.2 0"/>
<feBlend mode="normal" in2="effect1_backgroundBlur_655_44273" result="effect2_dropShadow_655_44273"/>
<feBlend mode="normal" in="SourceGraphic" in2="effect2_dropShadow_655_44273" result="shape"/>
</filter>
<linearGradient id="paint0_linear_655_44273" x1="16.46" y1="2" x2="48.9576" y2="5.0069" gradientUnits="userSpaceOnUse">
<stop stop-color="#FAAF42"/>
<stop offset="1" stop-color="#F6DA76"/>
</linearGradient>
<linearGradient id="paint1_linear_655_44273" x1="5.2" y1="8" x2="41.2437" y2="36.4498" gradientUnits="userSpaceOnUse">
<stop stop-color="#F0E2D3"/>
<stop offset="1" stop-color="#FAAF42" stop-opacity="0"/>
</linearGradient>
<linearGradient id="paint2_linear_655_44273" x1="24" y1="8" x2="24" y2="40" gradientUnits="userSpaceOnUse">
<stop stop-color="white" stop-opacity="0.6"/>
<stop offset="1" stop-color="white" stop-opacity="0"/>
</linearGradient>
</defs>
</svg>
