<svg width="58" height="58" viewBox="0 0 58 58" fill="none" xmlns="http://www.w3.org/2000/svg">
<rect x="16.46" y="2" width="30" height="30" rx="4" transform="rotate(10 16.46 2)" fill="url(#paint0_linear_655_44327)"/>
<g filter="url(#filter0_bd_655_44327)">
<rect x="8" y="8" width="32" height="32" rx="4" fill="url(#paint1_linear_655_44327)" shape-rendering="crispEdges"/>
<rect x="8.5" y="8.5" width="31" height="31" rx="3.5" stroke="url(#paint2_linear_655_44327)" shape-rendering="crispEdges"/>
</g>
<path d="M15.6665 32.5H32.3332" stroke="white" stroke-width="1.4" stroke-linecap="round" stroke-linejoin="round"/>
<path d="M22.3335 17.3346V32.3346H25.3335V17.3346C25.3335 16.418 25.0002 15.668 24.0002 15.668H23.6668C22.6668 15.668 22.3335 16.418 22.3335 17.3346Z" stroke="white" stroke-width="1.8" stroke-linecap="round" stroke-linejoin="round"/>
<path d="M16.5 22.3346V32.3346H19.5V22.3346C19.5 21.418 19.1667 20.668 18.1667 20.668H17.8333C16.8333 20.668 16.5 21.418 16.5 22.3346Z" stroke="white" stroke-width="1.8" stroke-linecap="round" stroke-linejoin="round"/>
<path d="M28.5835 26.4987V32.332H31.5002V26.4987C31.5002 25.582 31.1668 24.832 30.1668 24.832H29.9168C28.9168 24.832 28.5835 25.582 28.5835 26.4987Z" stroke="white" stroke-width="1.8" stroke-linecap="round" stroke-linejoin="round"/>
<defs>
<filter id="filter0_bd_655_44327" x="2" y="2" width="56" height="56" filterUnits="userSpaceOnUse" color-interpolation-filters="sRGB">
<feFlood flood-opacity="0" result="BackgroundImageFix"/>
<feGaussianBlur in="BackgroundImageFix" stdDeviation="3"/>
<feComposite in2="SourceAlpha" operator="in" result="effect1_backgroundBlur_655_44327"/>
<feColorMatrix in="SourceAlpha" type="matrix" values="0 0 0 0 0 0 0 0 0 0 0 0 0 0 0 0 0 0 127 0" result="hardAlpha"/>
<feOffset dx="6" dy="6"/>
<feGaussianBlur stdDeviation="6"/>
<feComposite in2="hardAlpha" operator="out"/>
<feColorMatrix type="matrix" values="0 0 0 0 0.980392 0 0 0 0 0.686275 0 0 0 0 0.258824 0 0 0 0.2 0"/>
<feBlend mode="normal" in2="effect1_backgroundBlur_655_44327" result="effect2_dropShadow_655_44327"/>
<feBlend mode="normal" in="SourceGraphic" in2="effect2_dropShadow_655_44327" result="shape"/>
</filter>
<linearGradient id="paint0_linear_655_44327" x1="16.46" y1="2" x2="48.9576" y2="5.0069" gradientUnits="userSpaceOnUse">
<stop stop-color="#FAAF42"/>
<stop offset="1" stop-color="#F6DA76"/>
</linearGradient>
<linearGradient id="paint1_linear_655_44327" x1="5.2" y1="8" x2="41.2437" y2="36.4498" gradientUnits="userSpaceOnUse">
<stop stop-color="#F0E2D3"/>
<stop offset="1" stop-color="#FAAF42" stop-opacity="0"/>
</linearGradient>
<linearGradient id="paint2_linear_655_44327" x1="24" y1="8" x2="24" y2="40" gradientUnits="userSpaceOnUse">
<stop stop-color="white" stop-opacity="0.6"/>
<stop offset="1" stop-color="white" stop-opacity="0"/>
</linearGradient>
</defs>
</svg>
