<svg width="58" height="58" viewBox="0 0 58 58" fill="none" xmlns="http://www.w3.org/2000/svg">
<rect x="16.46" y="2" width="30" height="30" rx="4" transform="rotate(10 16.46 2)" fill="url(#paint0_linear_655_44265)"/>
<g filter="url(#filter0_bd_655_44265)">
<rect x="8" y="8" width="32" height="32" rx="4" fill="url(#paint1_linear_655_44265)" shape-rendering="crispEdges"/>
<rect x="8.5" y="8.5" width="31" height="31" rx="3.5" stroke="url(#paint2_linear_655_44265)" shape-rendering="crispEdges"/>
</g>
<path d="M30.4917 26.4406C28.775 28.149 26.3167 28.674 24.1584 27.999L20.2334 31.9156C19.95 32.2073 19.3917 32.3823 18.9917 32.324L17.175 32.074C16.575 31.9906 16.0167 31.424 15.925 30.824L15.675 29.0073C15.6167 28.6073 15.8084 28.049 16.0834 27.7656L20 23.849C19.3334 21.6823 19.85 19.224 21.5667 17.5156C24.025 15.0573 28.0167 15.0573 30.4834 17.5156C32.95 19.974 32.95 23.9823 30.4917 26.4406Z" stroke="white" stroke-width="1.8" stroke-linecap="round" stroke-linejoin="round"/>
<path d="M19.7417 28.5742L21.6584 30.4909" stroke="white" stroke-width="1.4" stroke-linecap="round" stroke-linejoin="round"/>
<path d="M26.0835 23.168C26.7739 23.168 27.3335 22.6083 27.3335 21.918C27.3335 21.2276 26.7739 20.668 26.0835 20.668C25.3931 20.668 24.8335 21.2276 24.8335 21.918C24.8335 22.6083 25.3931 23.168 26.0835 23.168Z" stroke="white" stroke-width="1.4" stroke-linecap="round" stroke-linejoin="round"/>
<defs>
<filter id="filter0_bd_655_44265" x="2" y="2" width="56" height="56" filterUnits="userSpaceOnUse" color-interpolation-filters="sRGB">
<feFlood flood-opacity="0" result="BackgroundImageFix"/>
<feGaussianBlur in="BackgroundImageFix" stdDeviation="3"/>
<feComposite in2="SourceAlpha" operator="in" result="effect1_backgroundBlur_655_44265"/>
<feColorMatrix in="SourceAlpha" type="matrix" values="0 0 0 0 0 0 0 0 0 0 0 0 0 0 0 0 0 0 127 0" result="hardAlpha"/>
<feOffset dx="6" dy="6"/>
<feGaussianBlur stdDeviation="6"/>
<feComposite in2="hardAlpha" operator="out"/>
<feColorMatrix type="matrix" values="0 0 0 0 0.223529 0 0 0 0 0.435294 0 0 0 0 0.690196 0 0 0 0.2 0"/>
<feBlend mode="normal" in2="effect1_backgroundBlur_655_44265" result="effect2_dropShadow_655_44265"/>
<feBlend mode="normal" in="SourceGraphic" in2="effect2_dropShadow_655_44265" result="shape"/>
</filter>
<linearGradient id="paint0_linear_655_44265" x1="16.46" y1="2" x2="48.9576" y2="5.0069" gradientUnits="userSpaceOnUse">
<stop stop-color="#396FB0"/>
<stop offset="1" stop-color="#7EAEE6"/>
</linearGradient>
<linearGradient id="paint1_linear_655_44265" x1="5.2" y1="8" x2="41.2437" y2="36.4498" gradientUnits="userSpaceOnUse">
<stop stop-color="#C0D4EB" stop-opacity="0.5"/>
<stop offset="1" stop-color="#396FB0" stop-opacity="0"/>
</linearGradient>
<linearGradient id="paint2_linear_655_44265" x1="24" y1="8" x2="24" y2="40" gradientUnits="userSpaceOnUse">
<stop stop-color="white" stop-opacity="0.6"/>
<stop offset="1" stop-color="white" stop-opacity="0"/>
</linearGradient>
</defs>
</svg>
