<svg width="58" height="58" viewBox="0 0 58 58" fill="none" xmlns="http://www.w3.org/2000/svg">
<rect x="16.46" y="2" width="30" height="30" rx="4" transform="rotate(10 16.46 2)" fill="url(#paint0_linear_703_36136)"/>
<g filter="url(#filter0_bd_703_36136)">
<rect x="8" y="8" width="32" height="32" rx="4" fill="url(#paint1_linear_703_36136)" shape-rendering="crispEdges"/>
<rect x="8.5" y="8.5" width="31" height="31" rx="3.5" stroke="url(#paint2_linear_703_36136)" shape-rendering="crispEdges"/>
</g>
<path d="M16.5 21.5013V26.3096C16.5 28.0763 16.5 28.0763 18.1667 29.2013L22.75 31.8513C23.4417 32.2513 24.5667 32.2513 25.25 31.8513L29.8333 29.2013C31.5 28.0763 31.5 28.0763 31.5 26.318V21.5013C31.5 19.743 31.5 19.743 29.8333 18.618L25.25 15.968C24.5667 15.568 23.4417 15.568 22.75 15.968L18.1667 18.618C16.5 19.743 16.5 19.743 16.5 21.5013Z" stroke="white" stroke-width="1.8" stroke-linecap="round" stroke-linejoin="round"/>
<path d="M24 26.5C25.3807 26.5 26.5 25.3807 26.5 24C26.5 22.6193 25.3807 21.5 24 21.5C22.6193 21.5 21.5 22.6193 21.5 24C21.5 25.3807 22.6193 26.5 24 26.5Z" stroke="white" stroke-width="1.4" stroke-linecap="round" stroke-linejoin="round"/>
<defs>
<filter id="filter0_bd_703_36136" x="2" y="2" width="56" height="56" filterUnits="userSpaceOnUse" color-interpolation-filters="sRGB">
<feFlood flood-opacity="0" result="BackgroundImageFix"/>
<feGaussianBlur in="BackgroundImageFix" stdDeviation="3"/>
<feComposite in2="SourceAlpha" operator="in" result="effect1_backgroundBlur_703_36136"/>
<feColorMatrix in="SourceAlpha" type="matrix" values="0 0 0 0 0 0 0 0 0 0 0 0 0 0 0 0 0 0 127 0" result="hardAlpha"/>
<feOffset dx="6" dy="6"/>
<feGaussianBlur stdDeviation="6"/>
<feComposite in2="hardAlpha" operator="out"/>
<feColorMatrix type="matrix" values="0 0 0 0 0.215686 0 0 0 0 0.729412 0 0 0 0 0.584314 0 0 0 0.2 0"/>
<feBlend mode="normal" in2="effect1_backgroundBlur_703_36136" result="effect2_dropShadow_703_36136"/>
<feBlend mode="normal" in="SourceGraphic" in2="effect2_dropShadow_703_36136" result="shape"/>
</filter>
<linearGradient id="paint0_linear_703_36136" x1="16.46" y1="2" x2="48.9576" y2="5.0069" gradientUnits="userSpaceOnUse">
<stop stop-color="#65BFA1"/>
<stop offset="1" stop-color="#85E0A3"/>
</linearGradient>
<linearGradient id="paint1_linear_703_36136" x1="5.2" y1="8" x2="41.2437" y2="36.4498" gradientUnits="userSpaceOnUse">
<stop stop-color="#C4ECD9" stop-opacity="0.5"/>
<stop offset="1" stop-color="#37BA95" stop-opacity="0"/>
</linearGradient>
<linearGradient id="paint2_linear_703_36136" x1="24" y1="8" x2="24" y2="40" gradientUnits="userSpaceOnUse">
<stop stop-color="white" stop-opacity="0.6"/>
<stop offset="1" stop-color="white" stop-opacity="0"/>
</linearGradient>
</defs>
</svg>
