<svg width="58" height="58" viewBox="0 0 58 58" fill="none" xmlns="http://www.w3.org/2000/svg">
<rect x="16.46" y="2" width="30" height="30" rx="4" transform="rotate(10 16.46 2)" fill="url(#paint0_linear_655_44257)"/>
<g filter="url(#filter0_bd_655_44257)">
<rect x="8" y="8" width="32" height="32" rx="4" fill="url(#paint1_linear_655_44257)" shape-rendering="crispEdges"/>
<rect x="8.5" y="8.5" width="31" height="31" rx="3.5" stroke="url(#paint2_linear_655_44257)" shape-rendering="crispEdges"/>
</g>
<path d="M20.2334 29.292L22.8167 31.292C23.1501 31.6254 23.9001 31.792 24.4001 31.792H27.5667C28.5667 31.792 29.6501 31.042 29.9001 30.042L31.9001 23.9587C32.3167 22.792 31.5667 21.792 30.3167 21.792H26.9834C26.4834 21.792 26.0667 21.3754 26.1501 20.792L26.5667 18.1254C26.7334 17.3754 26.2334 16.542 25.4834 16.292C24.8167 16.042 23.9834 16.3754 23.6501 16.8754L20.2334 21.9587" stroke="white" stroke-width="1.8" stroke-linecap="round" stroke-linejoin="round"/>
<path d="M15.9834 29.293V21.1263C15.9834 19.9596 16.4834 19.543 17.6501 19.543H18.4834C19.6501 19.543 20.1501 19.9596 20.1501 21.1263V29.293C20.1501 30.4596 19.6501 30.8763 18.4834 30.8763H17.6501C16.4834 30.8763 15.9834 30.4596 15.9834 29.293Z" stroke="white" stroke-width="1.8" stroke-linecap="round" stroke-linejoin="round"/>
<defs>
<filter id="filter0_bd_655_44257" x="2" y="2" width="56" height="56" filterUnits="userSpaceOnUse" color-interpolation-filters="sRGB">
<feFlood flood-opacity="0" result="BackgroundImageFix"/>
<feGaussianBlur in="BackgroundImageFix" stdDeviation="3"/>
<feComposite in2="SourceAlpha" operator="in" result="effect1_backgroundBlur_655_44257"/>
<feColorMatrix in="SourceAlpha" type="matrix" values="0 0 0 0 0 0 0 0 0 0 0 0 0 0 0 0 0 0 127 0" result="hardAlpha"/>
<feOffset dx="6" dy="6"/>
<feGaussianBlur stdDeviation="6"/>
<feComposite in2="hardAlpha" operator="out"/>
<feColorMatrix type="matrix" values="0 0 0 0 0.980392 0 0 0 0 0.686275 0 0 0 0 0.258824 0 0 0 0.2 0"/>
<feBlend mode="normal" in2="effect1_backgroundBlur_655_44257" result="effect2_dropShadow_655_44257"/>
<feBlend mode="normal" in="SourceGraphic" in2="effect2_dropShadow_655_44257" result="shape"/>
</filter>
<linearGradient id="paint0_linear_655_44257" x1="16.46" y1="2" x2="48.9576" y2="5.0069" gradientUnits="userSpaceOnUse">
<stop stop-color="#FAAF42"/>
<stop offset="1" stop-color="#F6DA76"/>
</linearGradient>
<linearGradient id="paint1_linear_655_44257" x1="5.2" y1="8" x2="41.2437" y2="36.4498" gradientUnits="userSpaceOnUse">
<stop stop-color="#F0E2D3"/>
<stop offset="1" stop-color="#FAAF42" stop-opacity="0"/>
</linearGradient>
<linearGradient id="paint2_linear_655_44257" x1="24" y1="8" x2="24" y2="40" gradientUnits="userSpaceOnUse">
<stop stop-color="white" stop-opacity="0.6"/>
<stop offset="1" stop-color="white" stop-opacity="0"/>
</linearGradient>
</defs>
</svg>
