<svg width="58" height="58" viewBox="0 0 58 58" fill="none" xmlns="http://www.w3.org/2000/svg">
<rect x="16.46" y="2" width="30" height="30" rx="4" transform="rotate(10 16.46 2)" fill="url(#paint0_linear_655_44304)"/>
<g filter="url(#filter0_bd_655_44304)">
<rect x="8" y="8" width="32" height="32" rx="4" fill="url(#paint1_linear_655_44304)" shape-rendering="crispEdges"/>
<rect x="8.5" y="8.5" width="31" height="31" rx="3.5" stroke="url(#paint2_linear_655_44304)" shape-rendering="crispEdges"/>
</g>
<path d="M18.55 29.407V26.9737C18.55 26.1654 19.1834 25.4404 20.0834 25.4404C20.8917 25.4404 21.6167 26.0737 21.6167 26.9737V29.3154C21.6167 30.9404 20.2667 32.2904 18.6417 32.2904C17.0167 32.2904 15.6667 30.932 15.6667 29.3154V24.182C15.575 19.4987 19.275 15.707 23.9584 15.707C28.6417 15.707 32.3334 19.4987 32.3334 24.0904V29.2237C32.3334 30.8487 30.9834 32.1987 29.3584 32.1987C27.7334 32.1987 26.3834 30.8487 26.3834 29.2237V26.882C26.3834 26.0737 27.0167 25.3487 27.9167 25.3487C28.725 25.3487 29.45 25.982 29.45 26.882V29.407" stroke="white" stroke-width="1.8" stroke-linecap="round" stroke-linejoin="round"/>
<defs>
<filter id="filter0_bd_655_44304" x="2" y="2" width="56" height="56" filterUnits="userSpaceOnUse" color-interpolation-filters="sRGB">
<feFlood flood-opacity="0" result="BackgroundImageFix"/>
<feGaussianBlur in="BackgroundImageFix" stdDeviation="3"/>
<feComposite in2="SourceAlpha" operator="in" result="effect1_backgroundBlur_655_44304"/>
<feColorMatrix in="SourceAlpha" type="matrix" values="0 0 0 0 0 0 0 0 0 0 0 0 0 0 0 0 0 0 127 0" result="hardAlpha"/>
<feOffset dx="6" dy="6"/>
<feGaussianBlur stdDeviation="6"/>
<feComposite in2="hardAlpha" operator="out"/>
<feColorMatrix type="matrix" values="0 0 0 0 0.521569 0 0 0 0 0.470588 0 0 0 0 0.964706 0 0 0 0.2 0"/>
<feBlend mode="normal" in2="effect1_backgroundBlur_655_44304" result="effect2_dropShadow_655_44304"/>
<feBlend mode="normal" in="SourceGraphic" in2="effect2_dropShadow_655_44304" result="shape"/>
</filter>
<linearGradient id="paint0_linear_655_44304" x1="16.46" y1="2" x2="48.9576" y2="5.0069" gradientUnits="userSpaceOnUse">
<stop stop-color="#8578F6"/>
<stop offset="1" stop-color="#BCB2FB"/>
</linearGradient>
<linearGradient id="paint1_linear_655_44304" x1="5.2" y1="8" x2="41.2437" y2="36.4498" gradientUnits="userSpaceOnUse">
<stop stop-color="#D2D5F5" stop-opacity="0.5"/>
<stop offset="1" stop-color="#8578F6" stop-opacity="0"/>
</linearGradient>
<linearGradient id="paint2_linear_655_44304" x1="24" y1="8" x2="24" y2="40" gradientUnits="userSpaceOnUse">
<stop stop-color="white" stop-opacity="0.6"/>
<stop offset="1" stop-color="white" stop-opacity="0"/>
</linearGradient>
</defs>
</svg>
