<svg width="58" height="58" viewBox="0 0 58 58" fill="none" xmlns="http://www.w3.org/2000/svg">
<rect x="16.46" y="2" width="30" height="30" rx="4" transform="rotate(10 16.46 2)" fill="url(#paint0_linear_655_44311)"/>
<g filter="url(#filter0_bd_655_44311)">
<rect x="8" y="8" width="32" height="32" rx="4" fill="url(#paint1_linear_655_44311)" shape-rendering="crispEdges"/>
<rect x="8.5" y="8.5" width="31" height="31" rx="3.5" stroke="url(#paint2_linear_655_44311)" shape-rendering="crispEdges"/>
</g>
<path d="M15.6499 24.8326H18.8082C19.4416 24.8326 20.0166 25.1909 20.2999 25.7576L21.0416 27.2492C21.4999 28.1659 22.3332 28.1659 22.5332 28.1659H25.4749C26.1082 28.1659 26.6832 27.8076 26.9666 27.2409L27.7082 25.7492C27.9916 25.1826 28.5666 24.8242 29.1999 24.8242H32.3166" stroke="white" stroke-width="1.4" stroke-linecap="round" stroke-linejoin="round"/>
<path d="M29.8335 20.668C31.2142 20.668 32.3335 19.5487 32.3335 18.168C32.3335 16.7873 31.2142 15.668 29.8335 15.668C28.4528 15.668 27.3335 16.7873 27.3335 18.168C27.3335 19.5487 28.4528 20.668 29.8335 20.668Z" stroke="white" stroke-width="1.4" stroke-linecap="round" stroke-linejoin="round"/>
<path d="M25.6665 15.668H21.4998C17.3332 15.668 15.6665 17.3346 15.6665 21.5013V26.5013C15.6665 30.668 17.3332 32.3346 21.4998 32.3346H26.4998C30.6665 32.3346 32.3332 30.668 32.3332 26.5013V22.3346" stroke="white" stroke-width="1.8" stroke-linecap="round" stroke-linejoin="round"/>
<defs>
<filter id="filter0_bd_655_44311" x="2" y="2" width="56" height="56" filterUnits="userSpaceOnUse" color-interpolation-filters="sRGB">
<feFlood flood-opacity="0" result="BackgroundImageFix"/>
<feGaussianBlur in="BackgroundImageFix" stdDeviation="3"/>
<feComposite in2="SourceAlpha" operator="in" result="effect1_backgroundBlur_655_44311"/>
<feColorMatrix in="SourceAlpha" type="matrix" values="0 0 0 0 0 0 0 0 0 0 0 0 0 0 0 0 0 0 127 0" result="hardAlpha"/>
<feOffset dx="6" dy="6"/>
<feGaussianBlur stdDeviation="6"/>
<feComposite in2="hardAlpha" operator="out"/>
<feColorMatrix type="matrix" values="0 0 0 0 0.980392 0 0 0 0 0.686275 0 0 0 0 0.258824 0 0 0 0.2 0"/>
<feBlend mode="normal" in2="effect1_backgroundBlur_655_44311" result="effect2_dropShadow_655_44311"/>
<feBlend mode="normal" in="SourceGraphic" in2="effect2_dropShadow_655_44311" result="shape"/>
</filter>
<linearGradient id="paint0_linear_655_44311" x1="16.46" y1="2" x2="48.9576" y2="5.0069" gradientUnits="userSpaceOnUse">
<stop stop-color="#FAAF42"/>
<stop offset="1" stop-color="#F6DA76"/>
</linearGradient>
<linearGradient id="paint1_linear_655_44311" x1="5.2" y1="8" x2="41.2437" y2="36.4498" gradientUnits="userSpaceOnUse">
<stop stop-color="#F0E2D3"/>
<stop offset="1" stop-color="#FAAF42" stop-opacity="0"/>
</linearGradient>
<linearGradient id="paint2_linear_655_44311" x1="24" y1="8" x2="24" y2="40" gradientUnits="userSpaceOnUse">
<stop stop-color="white" stop-opacity="0.6"/>
<stop offset="1" stop-color="white" stop-opacity="0"/>
</linearGradient>
</defs>
</svg>
