<svg width="14" height="20" viewBox="0 0 14 20" fill="none" xmlns="http://www.w3.org/2000/svg">
<path d="M13.869 5.70953C13.4216 2.97511 11.1847 0.68173 8.41083 0.152493C6.35283 -0.288545 4.20542 0.240696 2.59483 1.5638C0.894772 2.8869 0 4.82746 0 6.85622C0 8.70855 0.715818 10.3845 2.05797 11.7076C2.68431 12.3251 3.04222 13.0307 3.22117 13.8246L3.40013 14.9713C3.66856 16.118 4.6528 17 5.90545 17H8.05295C9.21609 17 10.2899 16.118 10.5582 14.9713L10.8267 13.8246C11.0056 13.0307 11.3636 12.3251 11.9899 11.7076C13.6005 10.1199 14.3164 7.9147 13.869 5.70953Z" fill="#B8B8B9"/>
<path d="M9.12003 18H4.8C4.32 18 4 18.4 4 19C4 19.6 4.32 20 4.8 20H9.19998C9.67998 20 10 19.6 10 19C10 18.4 9.60003 18 9.12003 18Z" fill="#B8B8B9"/>
</svg>
