<svg width="25" height="24" viewBox="0 0 25 24" fill="none" xmlns="http://www.w3.org/2000/svg">
<path d="M12.6928 6.61587C9.71318 6.61587 7.30984 9.01975 7.30984 12C7.30984 14.9803 9.71318 17.3841 12.6928 17.3841C15.6724 17.3841 18.0757 14.9803 18.0757 12C18.0757 9.01975 15.6724 6.61587 12.6928 6.61587ZM12.6928 15.5004C10.7673 15.5004 9.19316 13.9306 9.19316 12C9.19316 10.0694 10.7626 8.49961 12.6928 8.49961C14.6229 8.49961 16.1924 10.0694 16.1924 12C16.1924 13.9306 14.6183 15.5004 12.6928 15.5004ZM19.5514 6.39563C19.5514 7.09383 18.9893 7.65146 18.2959 7.65146C17.5978 7.65146 17.0403 7.08914 17.0403 6.39563C17.0403 5.70211 17.6025 5.1398 18.2959 5.1398C18.9893 5.1398 19.5514 5.70211 19.5514 6.39563ZM23.1166 7.6702C23.037 5.98795 22.6528 4.49782 21.4207 3.27011C20.1933 2.0424 18.7035 1.65815 17.0216 1.5738C15.2882 1.4754 10.0927 1.4754 8.35925 1.5738C6.68206 1.65346 5.19227 2.03771 3.96015 3.26542C2.72802 4.49314 2.34854 5.98326 2.26422 7.66551C2.16583 9.39931 2.16583 14.596 2.26422 16.3298C2.34386 18.012 2.72802 19.5022 3.96015 20.7299C5.19227 21.9576 6.67738 22.3419 8.35925 22.4262C10.0927 22.5246 15.2882 22.5246 17.0216 22.4262C18.7035 22.3465 20.1933 21.9623 21.4207 20.7299C22.6482 19.5022 23.0323 18.012 23.1166 16.3298C23.215 14.596 23.215 9.40399 23.1166 7.6702ZM20.8773 18.1901C20.5118 19.1086 19.8044 19.8161 18.8815 20.1863C17.4995 20.7346 14.22 20.6081 12.6928 20.6081C11.1655 20.6081 7.88139 20.7299 6.50404 20.1863C5.5858 19.8208 4.87838 19.1132 4.50828 18.1901C3.96015 16.8078 4.08664 13.5276 4.08664 12C4.08664 10.4724 3.96483 7.18755 4.50828 5.80989C4.8737 4.89144 5.58112 4.18387 6.50404 3.81368C7.88608 3.26542 11.1655 3.39194 12.6928 3.39194C14.22 3.39194 17.5042 3.27011 18.8815 3.81368C19.7997 4.17918 20.5072 4.88676 20.8773 5.80989C21.4254 7.19223 21.2989 10.4724 21.2989 12C21.2989 13.5276 21.4254 16.8125 20.8773 18.1901Z" fill="#EAEEEE"/>
</svg>
