<svg width="25" height="24" viewBox="0 0 25 24" fill="none" xmlns="http://www.w3.org/2000/svg">
<path d="M6.89105 22.4995H2.5373V8.47922H6.89105V22.4995ZM4.71184 6.56672C3.31965 6.56672 2.19043 5.41359 2.19043 4.02141C2.19043 3.35269 2.45608 2.71136 2.92893 2.2385C3.40179 1.76565 4.04312 1.5 4.71184 1.5C5.38055 1.5 6.02188 1.76565 6.49474 2.2385C6.96759 2.71136 7.23324 3.35269 7.23324 4.02141C7.23324 5.41359 6.10355 6.56672 4.71184 6.56672ZM23.1857 22.4995H18.8414V15.6745C18.8414 14.048 18.8086 11.962 16.5778 11.962C14.3142 11.962 13.9673 13.7292 13.9673 15.5573V22.4995H9.61824V8.47922H13.7939V10.3917H13.8548C14.4361 9.29016 15.8559 8.12766 17.9742 8.12766C22.3804 8.12766 23.1904 11.0292 23.1904 14.798V22.4995H23.1857Z" fill="#EAEEEE"/>
</svg>
