<svg width="32" height="32" viewBox="0 0 32 32" fill="none" xmlns="http://www.w3.org/2000/svg">
<circle cx="16" cy="16" r="16" transform="matrix(-4.37114e-08 -1 -1 4.37114e-08 32 32)" fill="#EAEEEE"/>
<g clip-path="url(#clip0_741_45432)">
<path d="M19.0903 16.5378C19.4159 16.2403 19.4159 15.7571 19.0903 15.4596L14.0903 10.8897C13.7648 10.5922 13.2362 10.5922 12.9106 10.8897C12.5851 11.1872 12.5851 11.6704 12.9106 11.9679L17.3221 15.9999L12.9132 20.0319C12.5877 20.3294 12.5877 20.8126 12.9132 21.1101C13.2388 21.4076 13.7674 21.4076 14.0929 21.1101L19.0929 16.5402L19.0903 16.5378Z" fill="#243B4A"/>
</g>
<defs>
<clipPath id="clip0_741_45432">
<rect width="16" height="16" fill="white" transform="matrix(-4.37114e-08 -1 -1 4.37114e-08 24 24)"/>
</clipPath>
</defs>
</svg>
