<svg width="20" height="18" viewBox="0 0 20 18" fill="none" xmlns="http://www.w3.org/2000/svg">
<path d="M19.6531 9.8144C19.8734 9.60346 20 9.30815 20 8.99877C20 8.6894 19.8734 8.39877 19.6531 8.18315L11.4031 0.308149C10.9531 -0.123101 10.2406 -0.104351 9.81406 0.345649C9.3875 0.795649 9.40156 1.50815 9.85156 1.93471L16.0672 7.87377H1.125C0.501562 7.87377 0 8.37534 0 8.99877C0 9.62221 0.501562 10.1238 1.125 10.1238H16.0672L9.84687 16.0581C9.39687 16.4894 9.38281 17.1972 9.80938 17.6472C10.2359 18.0972 10.9484 18.1113 11.3984 17.6847L19.6484 9.80971L19.6531 9.8144Z" fill="#243B4A"/>
</svg>
