<svg width="16" height="16" viewBox="0 0 16 16" fill="none" xmlns="http://www.w3.org/2000/svg">
<path d="M15.1718 2.42422C15.6124 1.98359 15.6124 1.27109 15.1718 0.835156C14.7312 0.399219 14.0187 0.394531 13.5827 0.835156L8.00459 6.41328L2.42178 0.830469C1.98115 0.389844 1.26865 0.389844 0.832715 0.830469C0.396777 1.27109 0.39209 1.98359 0.832715 2.41953L6.41084 7.99766L0.828027 13.5805C0.387402 14.0211 0.387402 14.7336 0.828027 15.1695C1.26865 15.6055 1.98115 15.6102 2.41709 15.1695L7.99521 9.59141L13.578 15.1742C14.0187 15.6148 14.7312 15.6148 15.1671 15.1742C15.603 14.7336 15.6077 14.0211 15.1671 13.5852L9.58896 8.00703L15.1718 2.42422Z" fill="#4D4D4F"/>
</svg>
