<svg width="20" height="18" viewBox="0 0 20 18" fill="none" xmlns="http://www.w3.org/2000/svg">
<path d="M0.346874 8.1856C0.126562 8.39654 0 8.69185 0 9.00123C0 9.3106 0.126562 9.60123 0.346874 9.81685L8.59687 17.6919C9.04687 18.1231 9.75938 18.1044 10.1859 17.6544C10.6125 17.2044 10.5984 16.4919 10.1484 16.0653L3.93281 10.1262L18.875 10.1262C19.4984 10.1262 20 9.62466 20 9.00123C20 8.37779 19.4984 7.87623 18.875 7.87623L3.93281 7.87623L10.1531 1.94185C10.6031 1.5106 10.6172 0.80279 10.1906 0.352789C9.76406 -0.0972118 9.05156 -0.111275 8.60156 0.315289L0.351562 8.19029L0.346874 8.1856Z" fill="#243B4A"/>
</svg>
