<svg width="34" height="28" viewBox="0 0 34 28" fill="none" xmlns="http://www.w3.org/2000/svg">
<path d="M0.333496 18.4817C0.333496 22.8339 1.98515 25.6001 5.28845 26.7804C6.18935 27.1492 7.16533 27.3337 8.21638 27.3337C11.2194 27.3337 13.3966 25.9321 14.7479 23.129C15.2734 22.0962 15.5362 20.9897 15.5362 19.8095C15.5362 16.6375 14.0722 14.3876 11.1443 13.0598C10.5437 12.8385 9.98064 12.6541 9.45512 12.5065C7.65332 11.9902 6.71488 11.105 6.6398 9.85095C6.71488 7.63795 8.10377 5.12988 10.8065 2.32674L8.55422 0.666992C4.04971 5.31429 1.38455 10.4042 0.558721 15.9367C0.408571 16.8219 0.333496 17.6702 0.333496 18.4817ZM18.4641 18.4817C18.4641 22.8339 20.1158 25.6001 23.4191 26.7804C24.32 27.1492 25.296 27.3337 26.347 27.3337C29.35 27.3337 31.5272 25.9321 32.8785 23.129C33.4041 22.0962 33.6668 20.9897 33.6668 19.8095C33.6668 16.6375 32.2029 14.3876 29.2749 13.0598C28.6743 12.8385 28.1113 12.6541 27.5858 12.5065C25.7839 11.9902 24.8455 11.105 24.7704 9.85095C24.8455 7.63795 26.2344 5.12988 28.9371 2.32674L26.6849 0.666992C22.1803 5.31429 19.5152 10.4042 18.6894 15.9367C18.5392 16.8219 18.4641 17.6702 18.4641 18.4817Z" fill="#37BA95"/>
</svg>
