<svg width="40" height="40" viewBox="0 0 40 40" fill="none" xmlns="http://www.w3.org/2000/svg">
<circle cx="20" cy="20" r="20" fill="#F4F7F9"/>
<g clip-path="url(#clip0_738_16468)">
<path d="M10 22.6888C10 25.3001 10.991 26.9599 12.973 27.668C13.5135 27.8893 14.0991 28 14.7297 28C16.5315 28 17.8378 27.1591 18.6486 25.4772C18.964 24.8575 19.1216 24.1936 19.1216 23.4855C19.1216 21.5823 18.2432 20.2324 16.4865 19.4357C16.1261 19.3029 15.7883 19.1923 15.473 19.1037C14.3919 18.7939 13.8288 18.2628 13.7838 17.5104C13.8288 16.1826 14.6622 14.6777 16.2838 12.9959L14.9324 12C12.2297 14.7884 10.6306 17.8423 10.1351 21.1618C10.045 21.6929 10 22.2019 10 22.6888ZM20.8784 22.6888C20.8784 25.3001 21.8694 26.9599 23.8514 27.668C24.3919 27.8893 24.9775 28 25.6081 28C27.4099 28 28.7162 27.1591 29.527 25.4772C29.8423 24.8575 30 24.1936 30 23.4855C30 21.5823 29.1216 20.2324 27.3649 19.4357C27.0045 19.3029 26.6667 19.1923 26.3514 19.1037C25.2703 18.7939 24.7072 18.2628 24.6622 17.5104C24.7072 16.1826 25.5405 14.6777 27.1622 12.9959L25.8108 12C23.1081 14.7884 21.509 17.8423 21.0135 21.1618C20.9234 21.6929 20.8784 22.2019 20.8784 22.6888Z" fill="#37BA95"/>
</g>
<defs>
<clipPath id="clip0_738_16468">
<rect width="24" height="24" fill="white" transform="translate(8 8)"/>
</clipPath>
</defs>
</svg>
