<svg width="48" height="48" viewBox="0 0 48 48" fill="none" xmlns="http://www.w3.org/2000/svg">
<g clip-path="url(#clip0_472_26564)">
<path d="M4 29.3776C4 34.6003 5.98198 37.9198 9.94595 39.3361C11.027 39.7787 12.1982 40 13.4595 40C17.0631 40 19.6757 38.3181 21.2973 34.9544C21.9279 33.7151 22.2432 32.3873 22.2432 30.971C22.2432 27.1646 20.4865 24.4647 16.973 22.8714C16.2523 22.6058 15.5766 22.3845 14.9459 22.2075C12.7838 21.5878 11.6577 20.5256 11.5676 19.0207C11.6577 16.3651 13.3243 13.3555 16.5676 9.9917L13.8649 8C8.45946 13.5768 5.26126 19.6846 4.27027 26.3237C4.09009 27.3859 4 28.4039 4 29.3776ZM25.7568 29.3776C25.7568 34.6003 27.7387 37.9198 31.7027 39.3361C32.7838 39.7787 33.955 40 35.2162 40C38.8198 40 41.4324 38.3181 43.0541 34.9544C43.6847 33.7151 44 32.3873 44 30.971C44 27.1646 42.2432 24.4647 38.7297 22.8714C38.009 22.6058 37.3333 22.3845 36.7027 22.2075C34.5405 21.5878 33.4144 20.5256 33.3243 19.0207C33.4144 16.3651 35.0811 13.3555 38.3243 9.9917L35.6216 8C30.2162 13.5768 27.018 19.6846 26.027 26.3237C25.8468 27.3859 25.7568 28.4039 25.7568 29.3776Z" fill="#37BA95"/>
</g>
<defs>
<clipPath id="clip0_472_26564">
<rect width="48" height="48" fill="white"/>
</clipPath>
</defs>
</svg>
