<svg width="191" height="40" viewBox="0 0 191 40" fill="none" xmlns="http://www.w3.org/2000/svg">
<g clip-path="url(#clip0_1306_6985)">
<path d="M171.725 37.5445C176.308 40.2757 180.261 35.0899 179.701 30.8721C179.316 27.968 179.037 23.4045 178.197 21.6413C177.357 19.8781 174.769 19.6016 173.475 19.1176C172.18 18.6681 169.941 17.2852 168.192 18.1495C166.443 19.0138 163.33 22.4019 161.196 24.4071C158.048 27.3457 158.642 33.7416 163.155 34.5713C167.703 35.3665 168.822 35.8159 171.725 37.5445Z" fill="#37BA95"/>
<path d="M169.731 15.0362C168.822 14.7251 168.122 13.6879 167.842 12.305C167.562 10.9221 167.213 5.97833 174.034 0.101056C174.174 -0.00266044 174.349 -0.0372326 174.524 -0.00266043C174.559 -0.00266043 174.559 0.0319117 174.594 0.0319117C174.769 0.135628 174.874 0.343061 174.839 0.550494C174.664 1.82966 174.629 3.35084 174.594 4.97573C174.489 9.64298 174.349 14.9325 170.396 15.1399C170.151 15.1745 169.941 15.14 169.731 15.0362Z" fill="#37BA95"/>
<path d="M159.132 21.0874C158.152 20.7417 157.418 19.7045 157.138 18.1488C156.508 14.6916 158.047 9.40202 162.21 5.94481C162.35 5.84109 162.525 5.80652 162.7 5.84109C162.735 5.84109 162.805 5.87566 162.84 5.91023C163.015 6.04852 163.085 6.29053 162.98 6.49796C161.65 9.40202 162.455 11.9258 163.155 14.173C164.029 16.8696 164.834 19.3934 160.811 20.9837C160.251 21.2257 159.656 21.2603 159.132 21.0874Z" fill="#37BA95"/>
<path d="M179.106 18.3203C178.896 18.2512 178.686 18.1474 178.512 17.9746C175.538 15.3817 178.791 11.1639 181.695 7.46465C182.709 6.18548 183.654 4.94088 184.318 3.83457C184.423 3.66171 184.633 3.55799 184.843 3.59256C184.878 3.59256 184.913 3.59256 184.913 3.62713C185.088 3.69628 185.193 3.83457 185.228 4.00743C186.802 12.8233 183.374 16.4534 182.29 17.3523C181.205 18.2857 180.016 18.6315 179.106 18.3203Z" fill="#37BA95"/>
<path d="M183.514 29.5541C182.989 29.3812 182.534 29.0009 182.219 28.4132C180.085 24.714 182.359 23.2274 184.738 21.6716C186.732 20.3579 188.971 18.9059 189.775 15.7944C189.845 15.5869 190.055 15.4141 190.265 15.4141C190.335 15.4141 190.37 15.4141 190.405 15.4486C190.58 15.5178 190.685 15.6561 190.72 15.8289C191.769 21.0839 189.601 26.166 186.942 28.4823C185.718 29.5195 184.493 29.8998 183.514 29.5541Z" fill="#37BA95"/>
<path fill-rule="evenodd" clip-rule="evenodd" d="M36.0318 16.0061C39.8798 15.9369 42.2235 17.5272 43.3429 20.1893C44.0426 21.9179 44.3224 25.2023 43.7277 27.3112C42.8882 30.3881 41.4539 32.1167 38.2356 32.9119C37.536 33.0847 36.6265 33.1884 35.7869 33.1884C35.2972 33.1884 34.7724 33.1193 34.2827 33.0502C33.8279 32.981 33.3732 32.9119 32.9534 32.8081C31.3092 32.3241 30.0499 31.4598 29.2453 30.1461C28.7206 29.3164 28.3358 28.3138 28.1259 27.1729C28.0559 26.7234 28.021 26.4814 27.986 26.0666C27.951 25.548 27.916 24.7528 27.916 24.1651C27.916 23.7502 27.951 23.3354 28.021 22.9205C28.3358 21.2956 28.6856 20.0856 29.4902 18.9447C30.5396 17.4927 31.9389 16.7321 33.9678 16.2135C34.3876 16.1098 34.9124 16.0752 35.3321 16.0406C35.507 16.0061 35.8569 16.0061 36.0318 16.0061ZM39.6349 20.8462C39.9497 21.5722 40.0896 22.3674 40.1946 23.0588C40.2296 23.2662 40.2645 23.854 40.2645 24.1651C40.2645 24.5108 40.2645 25.0986 40.2296 25.306C40.2296 25.4788 40.1946 26.2049 40.0896 26.6543C39.5649 28.9015 38.9352 30.0424 36.5215 30.4572C35.7519 30.5955 34.8074 30.3535 34.3177 30.1461C32.8834 29.5929 32.2537 28.2446 31.9389 26.6197C31.9039 26.3432 31.8689 26.1011 31.834 25.8246C31.834 25.6517 31.799 25.4788 31.799 25.3406C31.799 24.8565 31.764 24.1997 31.799 23.7157C31.799 23.5082 31.834 23.3354 31.834 23.1279C31.9039 22.6785 31.9739 22.1945 32.1138 21.8142C32.4986 20.535 33.1982 19.6016 34.4226 19.1521C34.7374 19.0139 35.3671 18.8756 35.8569 18.8756C37.7809 18.7718 39.0402 19.4287 39.6349 20.8462Z" fill="#243B4A"/>
<path fill-rule="evenodd" clip-rule="evenodd" d="M91.4077 16.0061C95.2557 15.9369 97.5995 17.5272 98.7189 20.1893C99.4186 21.9179 99.6984 25.2023 99.1037 27.3112C98.2641 30.3881 96.8299 32.1167 93.6116 32.9119C92.912 33.0847 92.0024 33.1884 91.1629 33.1884C90.6731 33.1884 90.1484 33.1193 89.6587 33.0502C89.2039 32.981 88.7491 32.9119 88.3294 32.8081C86.6852 32.3241 85.4259 31.4598 84.6213 30.1461C84.0966 29.3164 83.7118 28.3138 83.5019 27.1729C83.4319 26.7234 83.3969 26.4814 83.362 26.0666C83.327 25.548 83.292 24.7528 83.292 24.1651C83.292 23.7502 83.327 23.3354 83.3969 22.9205C83.7118 21.2956 84.0616 20.0856 84.8662 18.9447C85.9156 17.4927 87.3149 16.7321 89.3438 16.2135C89.7636 16.1098 90.2883 16.0752 90.7081 16.0406C90.883 16.0061 91.1978 16.0061 91.4077 16.0061ZM94.9759 20.8462C95.2907 21.5722 95.4306 22.3674 95.5356 23.0588C95.5706 23.2662 95.6055 23.854 95.6055 24.1651C95.6055 24.5108 95.6055 25.0986 95.5706 25.306C95.5706 25.4788 95.5356 26.2049 95.4306 26.6543C94.9059 28.9015 94.2762 30.0424 91.8625 30.4572C91.0929 30.5955 90.1484 30.3535 89.6587 30.1461C88.2594 29.5929 87.6297 28.3138 87.2799 26.6889C87.2449 26.4123 87.2099 26.1357 87.175 25.8937C87.175 25.7209 87.14 25.4788 87.14 25.306C87.14 24.822 87.105 24.1651 87.14 23.6811C87.14 23.4737 87.175 23.3008 87.175 23.0934C87.2449 22.6439 87.3149 22.1599 87.4548 21.7796C87.8396 20.5005 88.5392 19.567 89.7636 19.1176C90.0784 18.9793 90.7081 18.841 91.2328 18.841C93.1568 18.7718 94.3812 19.4287 94.9759 20.8462Z" fill="#243B4A"/>
<path fill-rule="evenodd" clip-rule="evenodd" d="M109.738 16.0061C113.586 15.9369 115.93 17.5272 117.049 20.1893C117.749 21.9179 118.028 25.2023 117.434 27.3112C116.594 30.3881 115.16 32.1167 111.942 32.9119C111.242 33.0847 110.333 33.1884 109.493 33.1884C109.003 33.1884 108.478 33.1193 107.989 33.0502C107.534 32.981 107.079 32.9119 106.659 32.8081C105.015 32.3241 103.756 31.4598 102.951 30.1461C102.427 29.3164 102.042 28.3138 101.832 27.1729C101.762 26.7234 101.727 26.4814 101.692 26.0666C101.657 25.548 101.622 24.7528 101.622 24.1651C101.622 23.7502 101.657 23.3354 101.727 22.9205C102.042 21.2956 102.392 20.0856 103.196 18.9447C104.246 17.4927 105.645 16.7321 107.674 16.2135C108.094 16.1098 108.618 16.0752 109.038 16.0406C109.213 16.0061 109.528 16.0061 109.738 16.0061ZM113.306 20.8462C113.621 21.5722 113.761 22.3674 113.866 23.0588C113.901 23.2662 113.936 23.854 113.936 24.1651C113.936 24.5108 113.936 25.0986 113.901 25.306C113.901 25.4788 113.866 26.2049 113.761 26.6543C113.236 28.9015 112.606 30.0424 110.193 30.4572C109.423 30.5955 108.478 30.3535 107.989 30.1461C106.589 29.5929 105.96 28.3138 105.61 26.6889C105.575 26.4123 105.54 26.1357 105.505 25.8937C105.505 25.7209 105.47 25.4788 105.47 25.306C105.47 24.822 105.435 24.1651 105.47 23.6811C105.47 23.4737 105.505 23.3008 105.505 23.0934C105.575 22.6439 105.645 22.1599 105.785 21.7796C106.17 20.5005 106.869 19.567 108.094 19.1176C108.409 18.9793 108.933 18.841 109.563 18.841C111.487 18.7718 112.711 19.4287 113.306 20.8462Z" fill="#243B4A"/>
<path fill-rule="evenodd" clip-rule="evenodd" d="M126.214 16.0415C127.894 16.0069 128.838 16.1107 130.167 16.4218C131.742 16.7675 132.126 18.1504 132.126 18.5998C132.126 19.153 132.126 18.669 132.126 19.2221C132.126 19.6024 132.161 20.605 132.091 21.0545C132.056 21.1928 131.951 21.2965 131.777 21.2965C131.672 21.2965 131.497 21.2965 131.322 21.2619C131.077 21.2619 130.972 21.2619 130.587 21.1928C129.363 21.0199 129.223 19.879 129.188 19.7062C129.118 19.395 129.188 19.2913 128.943 18.9801C128.698 18.669 127.894 18.5998 127.334 18.5307C125.76 18.3233 123.976 18.6344 123.486 19.7407C123.381 20.0173 123.311 20.4667 123.381 20.8125C123.626 21.9188 124.465 22.2299 125.48 22.5757C126.214 22.8177 127.019 22.9559 127.824 23.1634C130.167 23.8202 131.986 24.4771 132.511 27.1046C132.721 28.1763 132.476 29.3518 132.161 30.1124C131.497 31.6336 130.132 32.4633 128.418 32.8782C125.935 33.5005 123.941 33.293 122.122 32.8436C120.687 32.4633 119.708 31.0458 119.708 29.7321C119.708 29.3518 119.673 29.1444 119.673 28.7986C119.673 28.5221 119.708 28.1418 119.743 27.9689C119.778 27.7615 119.988 27.6923 120.198 27.7269C120.407 27.7269 120.477 27.7615 120.792 27.796C121.037 27.8306 121.282 27.8998 121.492 28.0035C122.261 28.3492 122.331 29.0406 122.366 29.2135C122.436 29.6284 122.646 29.9741 122.926 30.147C123.346 30.4581 124.255 30.5618 124.92 30.631C126.354 30.8038 128.173 30.631 128.768 29.8358C129.048 29.4901 129.188 29.1098 129.223 28.5221C129.223 28.3492 129.188 28.2109 129.188 28.0726C129.048 27.3812 128.593 27.0009 127.998 26.7589C125.97 25.8946 123.136 25.8254 121.492 24.5808C120.827 24.0623 120.372 23.3708 120.128 22.4719C120.058 22.1954 119.988 21.7113 119.988 21.4002C119.988 21.1236 119.988 20.7088 120.023 20.4322C120.093 20.0173 120.163 19.637 120.303 19.2913C120.757 18.185 121.492 17.4244 122.471 16.8712C123.136 16.4909 123.941 16.2835 124.815 16.1107C125.165 16.1107 125.725 16.0761 126.214 16.0415Z" fill="#243B4A"/>
<path fill-rule="evenodd" clip-rule="evenodd" d="M141.956 16.0412C145.35 15.9374 147.448 17.182 148.463 19.4638C148.708 20.0515 148.848 20.6393 149.023 21.2961C149.232 22.1604 149.267 23.3013 149.232 24.3385C149.232 24.6842 149.267 25.3756 149.093 25.5139C148.988 25.5831 148.673 25.5485 148.498 25.5485C148.008 25.5485 147.483 25.5485 146.994 25.5485C145.07 25.5485 143.146 25.5485 141.222 25.5485C140.627 25.5485 140.032 25.5485 139.438 25.5485C139.193 25.5485 138.878 25.5139 138.808 25.7214C138.773 25.8597 138.808 26.0325 138.843 26.1708C138.948 26.724 139.018 27.208 139.158 27.6574C139.613 28.902 140.312 29.6626 141.606 30.0429C141.886 30.1466 142.236 30.1466 142.586 30.2157C142.936 30.2849 143.426 30.2849 143.81 30.2503C144.16 30.2157 144.475 30.1812 144.86 30.112C145.629 29.9392 145.629 29.9392 145.804 29.9046C147.169 29.628 148.288 30.0429 148.638 30.8035C148.708 31.0109 148.778 31.1492 148.778 31.1492C148.848 31.2875 148.953 31.5641 148.778 31.7023C148.603 31.8406 148.183 32.0135 147.938 32.1172C146.959 32.5321 145.909 32.8087 144.72 33.0161C144.3 33.0852 143.705 33.1544 143.216 33.1544C139.403 33.2235 136.884 31.8752 135.765 29.3169C135.485 28.6946 135.31 28.0723 135.135 27.3117C135.03 26.9314 134.995 26.482 134.925 26.1017C134.925 25.9634 134.89 25.7214 134.89 25.6176C134.82 25.0299 134.82 24.4076 134.855 23.8199C134.855 23.5779 134.89 23.3359 134.925 23.0593C135.03 22.1604 135.205 21.3307 135.52 20.5701C136.324 18.5304 137.758 17.0438 139.927 16.3869C140.347 16.2486 140.767 16.1794 141.187 16.1103C141.362 16.1103 141.746 16.0757 141.956 16.0412ZM142.936 18.8415C144.265 19.1181 144.965 19.8441 145.315 21.0541C145.419 21.4344 145.489 21.8839 145.524 22.3679C145.524 22.6099 145.524 22.8173 145.454 22.8519C145.28 22.9556 144.37 22.8864 144.055 22.8864C142.831 22.8864 140.802 22.8864 139.543 22.8864C139.228 22.8864 138.913 22.9556 138.843 22.7827C138.738 22.5407 139.018 21.5381 139.088 21.3307C139.403 20.3281 139.962 19.4984 140.907 19.0835C141.117 18.9798 141.362 18.9106 141.606 18.8415C141.746 18.8069 141.921 18.7724 142.096 18.7724C142.271 18.7724 142.656 18.8069 142.936 18.8415Z" fill="#243B4A"/>
<path fill-rule="evenodd" clip-rule="evenodd" d="M73.4618 16.0387C74.3714 16.0041 75.141 16.0387 76.0855 16.2807C76.2953 16.3153 76.4703 16.3498 76.6801 16.3498H79.6186C80.2833 16.3498 80.9129 16.3498 81.5776 16.3498C81.7875 16.3498 82.2073 16.2807 82.3472 16.3844C82.5221 16.4881 82.4871 16.7993 82.4521 17.145C82.3122 18.3896 81.3677 18.7008 80.773 18.7353C80.4232 18.7353 80.2133 18.7353 79.6536 18.7353C79.5137 18.7353 79.4437 18.8736 79.5137 18.9773C79.6536 19.1848 79.8285 19.4268 79.8635 19.5305C80.1433 19.9799 80.3882 20.4985 80.5281 21.1208C80.843 22.6074 80.3882 24.1977 79.8285 25.1312C79.6886 25.3386 79.5486 25.5115 79.4087 25.6843C79.2338 25.8918 78.884 26.2375 78.6741 26.4103C77.7296 27.1364 76.7501 27.5167 75.3508 27.7932C74.9311 27.8624 74.4763 27.897 74.0565 27.897C73.9166 27.897 73.7067 27.897 73.5318 27.897C72.9371 27.8624 72.5173 27.8624 72.0276 27.7932C71.8177 27.7587 71.4679 27.6204 71.258 27.6895C71.0831 27.7587 71.0131 28.0007 70.9082 28.1735C70.6633 28.5884 70.3834 29.0033 70.1386 29.3836C70.0686 29.4873 69.8237 29.7638 69.8937 29.9713C69.9986 30.1441 70.8382 30.075 71.1181 30.1096C72.2725 30.1787 73.4618 30.2133 74.6162 30.2824C75.3159 30.3516 76.4703 30.4553 77.2049 30.4899C78.919 30.6973 80.5631 30.9393 81.4027 32.011C81.8225 32.5296 81.9974 33.1173 82.1373 33.9125C82.1373 34.0854 82.1373 34.2582 82.1373 34.4311C82.2073 34.9497 82.1023 35.6065 81.9624 36.0214C81.2977 38.0957 79.5836 39.0638 77.3798 39.6169C76.8551 39.7552 76.3303 39.7552 75.7706 39.8589C75.3858 39.8935 75.036 39.9281 74.6512 39.9626H73.9166C73.7067 39.9972 73.3919 39.9972 73.182 39.9626C72.8671 39.8935 72.4474 39.9626 72.2025 39.9281C71.7477 39.8589 71.3279 39.9281 70.8732 39.8244C69.1591 39.5132 67.5149 39.2366 66.6404 38.1303C66.3605 37.7846 66.1507 37.4389 66.0107 36.9549C65.6609 35.7794 66.1157 34.5694 66.6404 33.8779C66.8853 33.5668 67.1301 33.2902 67.41 33.0136C67.5149 32.9099 67.7248 32.8062 67.7248 32.5988C67.6199 32.4259 67.375 32.3222 67.2001 32.2185C66.8853 31.9765 66.6054 31.6307 66.4655 31.1813C65.9757 29.6601 67.2701 28.5193 68.0047 27.8278C68.2146 27.6204 68.6693 27.2401 68.8093 26.9635C68.8442 26.9289 68.8792 26.7906 68.7743 26.6869C68.5644 26.5486 68.2146 26.2721 68.0747 26.1683C67.5849 25.788 67.1301 25.0275 66.8853 24.4052C66.7104 23.9903 66.6404 23.5409 66.5355 23.0914C66.3605 22.3308 66.4655 21.2937 66.6404 20.6368C67.1301 18.6662 68.3195 17.3179 70.0686 16.6264C70.6983 16.3844 71.3629 16.2461 72.0975 16.1078C72.3424 16.0733 72.6573 16.0387 72.8671 16.0387C73.0421 16.0387 73.3219 16.0387 73.4618 16.0387ZM76.89 20.0491C77.0649 20.3602 77.2049 20.7059 77.3098 21.0862C77.4148 21.432 77.4497 21.9851 77.3798 22.4C77.0999 24.1286 76.2254 24.8546 74.5463 25.2349C74.2314 25.304 73.7767 25.3386 73.4268 25.304C73.3219 25.304 73.112 25.2695 73.0071 25.2695C72.6223 25.2003 72.2725 25.1658 71.9576 25.0275C70.6983 24.5435 69.7888 23.1951 70.1736 21.2937C70.2435 21.0171 70.3135 20.7059 70.4184 20.4639C70.8032 19.6688 71.4679 19.1156 72.3424 18.8736C72.5873 18.7699 72.7972 18.7353 73.0071 18.7008C73.147 18.6662 73.3569 18.6662 73.4968 18.6662C75.1759 18.6316 76.2604 19.0465 76.89 20.0491ZM71.5378 33.3594C71.9226 33.4285 72.2725 33.3594 72.6223 33.4285C72.7972 33.4285 72.9721 33.4285 73.182 33.4285C73.7767 33.4631 74.3714 33.4976 74.966 33.5668C75.141 33.5668 75.2809 33.5668 75.4558 33.5668C76.4703 33.7396 77.4497 33.6705 78.1144 34.1545C78.4642 34.4311 78.6041 35.1571 78.4292 35.7103C78.2893 36.1943 77.9045 36.5054 77.5197 36.7474C75.9106 37.7155 71.223 37.7846 69.7538 36.6437C68.5994 35.7448 69.7188 33.7396 70.5933 33.3248C70.9082 33.2902 71.223 33.2902 71.5378 33.3594Z" fill="#243B4A"/>
<path fill-rule="evenodd" clip-rule="evenodd" d="M56.9155 16.0061C60.0639 15.9369 61.3582 17.5272 61.8479 20.0856C62.1278 21.4685 61.9529 23.4391 61.9879 24.9603C61.9879 25.8937 61.9879 26.8617 61.9879 27.7952C61.9879 28.4521 61.9879 29.2126 61.9529 29.8349C61.9179 30.6647 62.5825 30.4918 63.0723 30.561C63.4921 30.6301 64.2267 31.045 64.2617 31.9093C64.2966 32.255 64.3316 32.6353 64.1217 32.7044C63.8769 32.8081 63.4221 32.739 63.1073 32.739C62.3377 32.739 61.5681 32.739 60.7985 32.739C59.6791 32.739 58.5946 32.739 57.4752 32.739C57.1954 32.739 56.3908 32.8081 56.2159 32.7044C56.1109 32.6353 56.1109 32.3241 56.1109 32.1167C56.1109 31.8056 56.2858 30.6992 57.1604 30.6647C57.6501 30.6647 57.9999 30.6301 58.1749 30.2498C58.2798 30.0078 58.2098 29.5929 58.2098 29.2818C58.2098 28.6249 58.2098 27.9335 58.2098 27.2766C58.2098 25.9629 58.2098 24.6145 58.2098 23.3008C58.2098 21.3302 58.2448 19.7744 56.8106 19.1867C55.5162 18.6681 53.4173 19.567 52.5778 20.051C52.3329 20.1893 51.7032 20.5005 51.5283 20.7079C51.4934 20.9153 51.5283 21.3648 51.5283 21.6759C51.5283 22.3328 51.5283 22.9897 51.5283 23.6465C51.5283 25.79 51.5283 27.9335 51.5283 30.0769C51.5633 30.2152 51.5983 30.3535 51.6683 30.3881C51.9481 30.5955 52.2629 30.6301 52.6827 30.6647C53.5573 30.7338 53.7672 31.5981 53.7672 31.9438C53.7672 32.1513 53.8021 32.4624 53.7322 32.6353C53.6272 32.8773 52.3329 32.7736 51.9481 32.7736C50.5488 32.7736 49.1146 32.7736 47.7153 32.7736C47.2955 32.7736 46.8758 32.7736 46.456 32.7736C46.2811 32.7736 46.0712 32.8081 45.9313 32.739C45.6864 32.6353 45.7564 32.1167 45.7564 31.771C45.7913 31.4253 46.0712 30.6647 46.8758 30.5955C47.2606 30.561 47.3655 30.5955 47.6454 30.3881C47.8553 30.2152 47.8203 29.8004 47.8203 29.4201C47.8203 28.5903 47.8203 27.7952 47.8203 26.9655C47.8203 25.2023 47.8203 23.4045 47.8203 21.6413C47.8203 21.1573 47.8203 20.6387 47.8203 20.1547C47.8203 19.8782 47.8553 19.5324 47.7503 19.325C47.6104 18.9447 47.3305 18.8064 46.8758 18.8064H46.8408C46.1411 18.7718 45.6514 18.115 45.7564 17.4581C45.8263 17.0087 45.8963 16.4555 46.0712 16.3864C46.2811 16.3172 46.6309 16.3518 46.8758 16.3518C47.4705 16.3518 48.0651 16.3518 48.6598 16.3518C49.0446 16.3518 50.4089 16.2827 50.5838 16.3864C50.8287 16.5247 50.7937 17.7001 50.9686 18.0113C51.2135 18.0804 52.123 17.4581 52.3679 17.3198C53.2424 16.8012 54.2569 16.4555 55.3763 16.1789C55.7261 16.1444 56.0759 16.0752 56.4607 16.0406C56.7056 16.0061 56.8106 16.0061 56.9155 16.0061Z" fill="#243B4A"/>
<path fill-rule="evenodd" clip-rule="evenodd" d="M10.7045 16.0078C12.0338 16.0078 13.0483 16.319 13.7829 16.9067C14.0278 17.0796 14.2377 17.3216 14.4126 17.5636C14.4826 17.6673 14.6225 17.8056 14.6925 17.9439C14.7974 17.8747 15.0073 17.7364 15.1122 17.6673C15.3921 17.4944 15.6719 17.3561 15.9518 17.1833C16.8963 16.6647 17.9108 16.3535 19.1351 16.1115C19.5549 16.0424 20.1846 16.0078 20.6044 16.0424C21.0241 16.077 21.269 16.077 21.6538 16.1807C22.7732 16.4573 23.6128 16.9758 24.1375 17.8401C24.9071 19.0847 24.9421 20.7442 24.9421 22.7494C24.9421 24.5471 24.9421 26.3449 24.9421 28.1426C24.9421 28.7304 24.8022 30.2861 25.187 30.459C25.5368 30.6318 25.8166 30.5627 26.2364 30.6318C27.2859 30.7701 27.2159 32.0493 27.2159 32.3259C27.2159 32.4987 27.2159 32.7062 27.111 32.7753C26.936 32.879 25.7467 32.8099 25.4318 32.8099C23.9276 32.8099 22.4584 32.8099 20.9542 32.8099C20.6044 32.8099 19.31 32.879 19.1351 32.7753C18.9952 32.6716 19.0302 32.3259 19.0302 32.0147C19.0302 30.0787 20.9192 30.9084 21.1641 30.2861C21.269 30.0441 21.199 29.5601 21.199 29.2144C21.199 28.4538 21.199 27.6932 21.199 26.9326C21.199 25.6189 21.199 24.2706 21.199 22.9568C21.199 21.6431 21.1641 20.4331 20.5694 19.707C20.2895 19.3267 19.9047 19.2576 19.31 19.1885C19.0302 19.1539 18.8203 19.1885 18.6454 19.1885C18.3655 19.223 18.1556 19.2576 17.8758 19.3267C17.2111 19.4996 16.6864 19.6725 16.1267 19.949C15.9168 20.0528 15.462 20.2602 15.2522 20.4676C15.2871 20.6405 15.2871 20.8479 15.2871 21.0899C15.2871 21.4356 15.2871 21.7122 15.3221 22.0579C15.3221 23.4063 15.3221 24.72 15.3221 26.0683C15.3221 27.0709 15.3221 28.0735 15.3221 29.0761C15.3221 29.4564 15.2871 30.0441 15.3921 30.3553C15.637 31.0813 17.2461 30.4936 17.3511 32.0493C17.3511 32.4296 17.456 32.7407 17.2111 32.8445C17.0362 32.8445 16.8613 32.8445 16.6864 32.879C16.2666 32.879 15.8468 32.879 15.3921 32.879C14.0278 32.879 12.6285 32.879 11.2642 32.879C10.8795 32.879 9.55015 32.9482 9.48018 32.7407C9.41022 32.5679 9.41022 32.2913 9.41022 32.0839C9.41022 31.7382 9.55015 30.7356 10.5996 30.701C10.9144 30.701 11.1593 30.6318 11.3342 30.5627C11.5441 30.459 11.684 30.217 11.684 29.975C11.684 28.9724 11.684 27.9352 11.684 26.9326C11.684 25.204 11.684 23.51 11.684 21.7814C11.684 21.6431 11.649 21.4702 11.649 21.3319C11.5441 20.6751 11.4392 20.1565 11.1243 19.7416C10.8445 19.3613 10.2148 19.1539 9.72505 19.1539C9.51517 19.1885 9.34026 19.1885 9.13037 19.223C8.04593 19.4305 7.27634 19.7416 6.50674 20.2602C6.26187 20.433 5.91205 20.6059 5.73714 20.8133C5.73714 20.9516 5.73714 21.1936 5.73714 21.3665C5.73714 21.7468 5.73714 22.1271 5.73714 22.5074C5.73714 23.752 5.73714 24.9966 5.73714 26.2412C5.73714 27.1746 5.73714 28.1426 5.73714 29.0761C5.73714 29.4218 5.66718 30.0787 5.77213 30.3207C5.91205 30.701 6.15692 30.5973 6.5767 30.6664C7.69612 30.8047 7.80106 31.8764 7.80106 32.2913C7.80106 32.4642 7.83604 32.6716 7.76608 32.7753C7.66114 32.9482 6.36681 32.879 5.98202 32.879C4.58275 32.879 3.18348 32.879 1.78421 32.879C1.4344 32.879 0.280001 32.9482 0.105093 32.8445C-0.0698153 32.637 0.000148046 32.2567 0.000148046 31.911C0.000148046 31.7382 0.0701114 30.5627 1.0496 30.5973C1.46938 30.5973 1.85418 30.5973 2.02909 30.2515C2.09905 30.0095 2.06407 29.6638 2.06407 29.3872C2.06407 28.7995 2.06407 28.1772 2.06407 27.5895C2.06407 25.4806 2.06407 23.3717 2.06407 21.2974C2.06407 20.7442 2.16901 19.4996 1.92414 19.1885C1.71425 18.9119 1.50436 18.8427 1.11956 18.7736C0.105093 18.6007 -0.0348336 17.4598 0.0351297 17.2178C0.0701114 16.9758 0.105093 16.6647 0.175056 16.4918C0.280001 16.2844 0.804727 16.3535 1.11956 16.3535C2.02909 16.3535 2.97359 16.3535 3.88311 16.3535C4.19795 16.3535 4.79264 16.2844 4.93257 16.4573C5.00253 16.561 5.00253 16.6647 5.00253 16.8375C5.07249 17.1833 5.07249 17.8747 5.28238 18.0821C5.45729 17.9784 5.80711 17.771 6.017 17.6673C6.54172 17.3216 7.06645 16.9758 7.66114 16.7338C8.22084 16.4918 8.81553 16.319 9.48018 16.1807C9.76004 16.1461 10.0399 16.1115 10.2848 16.077C10.4597 16.0078 10.5996 16.0078 10.7045 16.0078Z" fill="#243B4A"/>
</g>
<defs>
<clipPath id="clip0_1306_6985">
<rect width="191" height="40" fill="white"/>
</clipPath>
</defs>
</svg>
