<svg width="180" height="112" viewBox="0 0 180 112" fill="none" xmlns="http://www.w3.org/2000/svg">
<path fill-rule="evenodd" clip-rule="evenodd" d="M129.783 106.553C145.854 106.958 162.277 106.147 177.643 111.896C178.559 112.235 179.567 111.741 179.898 110.783C180.222 109.825 179.75 108.771 178.834 108.425C163.108 102.544 146.312 103.281 129.867 102.868C128.895 102.838 128.085 103.649 128.064 104.666C128.036 105.683 128.811 106.523 129.783 106.553Z" fill="#37BA95"/>
<path fill-rule="evenodd" clip-rule="evenodd" d="M128.338 82.1462C133.348 77.3249 138.815 73.7131 145.424 71.923C146.368 71.6681 146.932 70.6621 146.692 69.6775C146.446 68.6929 145.48 68.1011 144.543 68.3561C137.357 70.3017 131.403 74.1943 125.957 79.4334C125.238 80.1217 125.189 81.2884 125.851 82.0371C126.507 82.7851 127.627 82.8345 128.338 82.1462Z" fill="#37BA95"/>
<path fill-rule="evenodd" clip-rule="evenodd" d="M114.403 29.5123C116.7 21.2768 121.223 14.8342 128.156 10.1818C128.973 9.63275 129.212 8.49195 128.684 7.63634C128.163 6.78072 127.071 6.53161 126.253 7.08064C118.581 12.232 113.564 19.3614 111.021 28.4798C110.746 29.4556 111.289 30.48 112.219 30.7645C113.156 31.0497 114.135 30.4881 114.403 29.5123Z" fill="#37BA95"/>
<path fill-rule="evenodd" clip-rule="evenodd" d="M35.2453 18.3331C33.8785 20.0156 32.6525 21.8285 31.6098 23.7586C31.1448 24.6179 30.3275 26.4441 30.2007 28.0102C30.0598 29.6787 30.6022 31.0863 31.9973 31.8277C33.8502 32.8108 35.3299 32.7084 36.4713 32.1136C37.5704 31.5425 38.4299 30.4201 38.9724 28.9152C40.0081 26.0388 39.8531 21.6429 39.3106 19.1342C40.769 17.5601 42.3683 16.1325 44.0804 14.8635C56.8329 5.41194 75.5389 8.89705 89.933 23.0291C94.9705 27.977 97.3942 38.3682 98.6554 49.5796C100.621 67.0361 99.5008 86.5332 99.3458 92.2454C99.3106 93.656 99.4374 94.4931 99.5079 94.6604C99.839 95.4829 100.424 95.6966 100.832 95.7777C101.424 95.8882 101.896 95.7703 102.277 95.564C102.791 95.281 103.214 94.7828 103.411 94.0141C103.517 93.5896 103.545 92.9986 103.531 92.3685C103.517 91.9315 103.432 91.4539 103.517 91.1407C104.066 89.1347 104.729 87.1758 105.377 85.203C107.54 78.571 110.337 72.3562 113.444 66.1488C123.315 46.4247 132.861 25.5841 149.045 10.5567C149.771 9.88236 149.841 8.71649 149.193 7.95595C148.552 7.1954 147.439 7.12611 146.706 7.80117C130.198 23.1256 120.391 44.3251 110.323 64.4398C107.681 69.7201 105.257 75.0078 103.242 80.5387C103.446 70.7548 103.369 57.2116 101.657 45.2286C100.135 34.5714 97.2392 25.153 92.3425 20.3428C76.5745 4.86142 56.0085 1.5031 42.0442 11.8574C40.5506 12.9658 39.1274 14.1848 37.8029 15.5069C30.4966 1.70726 14.8554 -3.82369 1.03206 2.77655C0.144318 3.19883 -0.243181 4.2925 0.158416 5.21739C0.567059 6.14228 1.60976 6.55057 2.4975 6.12829C14.9541 0.180995 29.0805 5.48859 35.2453 18.3331ZM36.2669 22.9531C35.6962 23.7962 35.1678 24.6703 34.6746 25.5738C34.4139 26.0587 33.963 26.991 33.7728 27.9033C33.7305 28.1171 33.7235 28.4516 33.7235 28.6064C34.2096 28.857 34.59 28.9778 34.9 28.815C35.2875 28.6145 35.4849 28.1429 35.6751 27.6159C36.1542 26.2938 36.3092 24.5413 36.2669 22.9531Z" fill="#37BA95"/>
</svg>
