<svg width="79" height="117" viewBox="0 0 79 117" fill="none" xmlns="http://www.w3.org/2000/svg">
<mask id="path-1-outside-1_1529_18894" maskUnits="userSpaceOnUse" x="-5.63629" y="-4.60826" width="86.2869" height="127.143" fill="black">
<rect fill="white" x="-5.63629" y="-4.60826" width="86.2869" height="127.143"/>
<path fill-rule="evenodd" clip-rule="evenodd" d="M59.3237 32.0245C49.6101 24.0166 38.2934 22.3014 25.5255 21.827C23.3696 21.7474 18.1002 21.7416 14.0559 22.905C11.1959 23.7269 8.96404 25.1642 8.62082 27.4372C8.31934 29.4233 9.48743 31.0948 11.4373 32.4301C15.6709 35.3303 23.6228 36.6839 26.0825 36.8948C37.1624 37.8413 48.5344 36.4461 59.1229 33.0527C59.7133 33.5527 60.2997 34.078 60.8801 34.6285C62.6262 36.2898 64.5355 38.445 65.785 40.8275C66.9999 43.1426 67.5945 45.6756 66.7416 48.1669C64.9635 53.3655 58.8134 56.9256 51.4006 59.326C49.7855 59.8504 48.1109 60.3163 46.4039 60.7316C45.5023 59.995 44.4643 59.2997 43.3176 58.6465C34.4211 53.577 19.1144 50.9146 14.4335 50.7377C12.3495 50.6588 8.5167 50.4622 5.63095 51.4088C3.5673 52.0852 1.98056 53.3361 1.67692 55.5151C1.40523 57.4561 2.56402 59.0441 4.49061 60.2873C8.65097 62.9716 16.4432 64.065 18.9923 64.2653C24.7881 64.7232 35.9686 64.1438 46.1839 61.7251C47.9585 63.251 49.0744 64.9491 49.1463 66.8411C49.2474 69.4725 47.1367 71.6942 44.038 73.576C43.1031 74.1432 42.0789 74.6787 40.9933 75.1776C40.8987 75.1418 40.8058 75.108 40.7112 75.0721C33.1057 72.2491 23.2404 71.2891 18.8593 71.2468C16.8825 71.2269 13.2998 71.4381 10.665 72.5922C8.78564 73.417 7.38804 74.7194 7.22351 76.6789C7.05434 78.6913 8.48698 79.9319 10.4994 80.6386C13.2453 81.6005 17.0627 81.5734 18.4806 81.5537C22.4735 81.5015 33.2057 79.6645 41.0187 76.1705C43.2345 77.0383 45.2289 78.0761 46.7815 79.3161C48.4223 80.6227 49.5695 82.1526 49.93 83.9503C50.815 88.3851 47.2574 91.7358 42.266 94.1729C40.7461 94.9151 39.0918 95.5703 37.3769 96.1392C36.2604 94.7204 34.5857 93.4863 32.5865 92.4609C27.8751 90.0465 21.3682 88.762 16.4781 88.7636C14.7909 88.7634 11.8729 88.9223 9.7677 89.9039C8.24515 90.6128 7.14094 91.7442 7.06427 93.4798C6.96961 95.5888 8.27935 97.0116 10.1474 97.9557C12.7465 99.2668 16.4403 99.6406 18.3888 99.8565C22.2147 100.279 30.0315 99.4314 37.0302 97.2117C37.4333 97.8295 37.7171 98.4828 37.8591 99.1752C38.3976 101.781 36.8959 104.838 32.3286 108.389C30.1164 110.108 27.7293 111.592 25.1076 112.597C21.3296 114.046 17.4839 114.648 13.4736 114.982C13.2209 115.004 13.032 115.224 13.0541 115.476C13.0744 115.728 13.2976 115.917 13.5503 115.894C17.6478 115.554 21.5783 114.932 25.4384 113.451C28.144 112.413 30.6107 110.884 32.894 109.111C37.865 105.246 39.3451 101.826 38.7604 98.9911C38.61 98.2667 38.3239 97.5764 37.9224 96.9202C39.5868 96.3596 41.1901 95.7184 42.6697 94.9947C48.0925 92.3471 51.7929 88.5881 50.8307 83.7716C50.1194 80.2139 46.6636 77.5488 42.1492 75.6424C42.9835 75.2336 43.7769 74.8066 44.5151 74.3583C47.9507 72.2725 50.1769 69.7227 50.0657 66.8074C49.9908 64.8655 48.9509 63.0784 47.2429 61.4664C48.757 61.0857 50.2451 60.6643 51.6857 60.1963C59.4136 57.6929 65.757 53.8832 67.6119 48.4615C68.3632 46.2665 68.114 44.0411 67.2978 41.9317C66.1051 38.8595 63.6937 36.0393 61.5134 33.967C61.0608 33.5361 60.6032 33.1194 60.1423 32.719C61.3182 32.3253 62.485 31.9089 63.6395 31.4656C66.4958 30.3713 69.8833 28.9392 72.5654 26.8667C74.3972 25.4496 75.901 23.7356 76.7121 21.6358C77.8775 18.6296 77.118 15.9168 75.478 13.5922C73.8923 11.3421 71.4723 9.4603 69.2442 8.03821C59.4922 1.81338 47.5775 -0.714842 36.3074 2.7771C36.0667 2.85166 35.9317 3.10822 36.0063 3.34998C36.0812 3.58992 36.3384 3.72633 36.5811 3.6501C47.5878 0.239936 59.2237 2.72911 68.7488 8.80915C70.8827 10.1697 73.2071 11.9642 74.7274 14.1185C76.1917 16.1962 76.8976 18.6177 75.856 21.3057C74.9118 23.7449 72.9449 25.6096 70.6575 27.0917C68.3154 28.6094 65.6326 29.7226 63.3088 30.6115C61.9942 31.1144 60.6639 31.5864 59.3237 32.0245ZM36.4489 96.4387C35.414 95.2255 33.917 94.1723 32.1665 93.2752C27.5788 90.9231 21.2418 89.6773 16.4789 89.6789C14.8894 89.6799 12.1381 89.8075 10.1578 90.7319C8.95623 91.2924 8.04187 92.1518 7.98074 93.5212C7.90504 95.2458 9.03478 96.3663 10.5638 97.1392C13.0623 98.3993 16.6171 98.7389 18.4907 98.9465C22.1834 99.3532 29.6722 98.5455 36.4489 96.4387ZM39.785 75.7099C32.3768 73.097 23.0532 72.2027 18.8491 72.1612C16.9663 72.1421 13.5461 72.3289 11.0339 73.4312C9.48267 74.11 8.27338 75.1366 8.13877 76.7551C8.00586 78.3332 9.22607 79.2208 10.8039 79.7739C13.4406 80.6986 17.1081 80.6566 18.4686 80.6393C22.2512 80.5888 32.1986 78.9112 39.785 75.7099ZM45.2706 60.9966C44.5436 60.4553 43.7335 59.938 42.8625 59.4412C34.0961 54.4455 19.0105 51.8263 14.3994 51.6519C12.3907 51.5759 8.6991 51.3677 5.91783 52.2792C4.20368 52.8391 2.83877 53.8319 2.58592 55.6422C2.44148 56.679 2.8347 57.5772 3.56448 58.3594C4.35469 59.2095 5.52775 59.9202 6.87805 60.5232C11.062 62.3916 16.9389 63.1856 19.065 63.3527C24.6666 63.7955 35.3569 63.2561 45.2706 60.9966ZM58.2801 32.3598C48.8328 24.8052 37.8458 23.1997 25.4914 22.7412C23.3905 22.6645 18.2527 22.6518 14.3108 23.7837C13.0377 24.1504 11.8908 24.633 11.0261 25.2835C10.2245 25.888 9.67041 26.6337 9.52897 27.5734C9.36637 28.6491 9.76281 29.5952 10.5062 30.432C11.3103 31.3347 12.5055 32.108 13.8818 32.7721C18.1381 34.8251 24.1109 35.8075 26.1607 35.9827C36.924 36.9016 47.9682 35.5862 58.2801 32.3598Z"/>
</mask>
<path fill-rule="evenodd" clip-rule="evenodd" d="M59.3237 32.0245C49.6101 24.0166 38.2934 22.3014 25.5255 21.827C23.3696 21.7474 18.1002 21.7416 14.0559 22.905C11.1959 23.7269 8.96404 25.1642 8.62082 27.4372C8.31934 29.4233 9.48743 31.0948 11.4373 32.4301C15.6709 35.3303 23.6228 36.6839 26.0825 36.8948C37.1624 37.8413 48.5344 36.4461 59.1229 33.0527C59.7133 33.5527 60.2997 34.078 60.8801 34.6285C62.6262 36.2898 64.5355 38.445 65.785 40.8275C66.9999 43.1426 67.5945 45.6756 66.7416 48.1669C64.9635 53.3655 58.8134 56.9256 51.4006 59.326C49.7855 59.8504 48.1109 60.3163 46.4039 60.7316C45.5023 59.995 44.4643 59.2997 43.3176 58.6465C34.4211 53.577 19.1144 50.9146 14.4335 50.7377C12.3495 50.6588 8.5167 50.4622 5.63095 51.4088C3.5673 52.0852 1.98056 53.3361 1.67692 55.5151C1.40523 57.4561 2.56402 59.0441 4.49061 60.2873C8.65097 62.9716 16.4432 64.065 18.9923 64.2653C24.7881 64.7232 35.9686 64.1438 46.1839 61.7251C47.9585 63.251 49.0744 64.9491 49.1463 66.8411C49.2474 69.4725 47.1367 71.6942 44.038 73.576C43.1031 74.1432 42.0789 74.6787 40.9933 75.1776C40.8987 75.1418 40.8058 75.108 40.7112 75.0721C33.1057 72.2491 23.2404 71.2891 18.8593 71.2468C16.8825 71.2269 13.2998 71.4381 10.665 72.5922C8.78564 73.417 7.38804 74.7194 7.22351 76.6789C7.05434 78.6913 8.48698 79.9319 10.4994 80.6386C13.2453 81.6005 17.0627 81.5734 18.4806 81.5537C22.4735 81.5015 33.2057 79.6645 41.0187 76.1705C43.2345 77.0383 45.2289 78.0761 46.7815 79.3161C48.4223 80.6227 49.5695 82.1526 49.93 83.9503C50.815 88.3851 47.2574 91.7358 42.266 94.1729C40.7461 94.9151 39.0918 95.5703 37.3769 96.1392C36.2604 94.7204 34.5857 93.4863 32.5865 92.4609C27.8751 90.0465 21.3682 88.762 16.4781 88.7636C14.7909 88.7634 11.8729 88.9223 9.7677 89.9039C8.24515 90.6128 7.14094 91.7442 7.06427 93.4798C6.96961 95.5888 8.27935 97.0116 10.1474 97.9557C12.7465 99.2668 16.4403 99.6406 18.3888 99.8565C22.2147 100.279 30.0315 99.4314 37.0302 97.2117C37.4333 97.8295 37.7171 98.4828 37.8591 99.1752C38.3976 101.781 36.8959 104.838 32.3286 108.389C30.1164 110.108 27.7293 111.592 25.1076 112.597C21.3296 114.046 17.4839 114.648 13.4736 114.982C13.2209 115.004 13.032 115.224 13.0541 115.476C13.0744 115.728 13.2976 115.917 13.5503 115.894C17.6478 115.554 21.5783 114.932 25.4384 113.451C28.144 112.413 30.6107 110.884 32.894 109.111C37.865 105.246 39.3451 101.826 38.7604 98.9911C38.61 98.2667 38.3239 97.5764 37.9224 96.9202C39.5868 96.3596 41.1901 95.7184 42.6697 94.9947C48.0925 92.3471 51.7929 88.5881 50.8307 83.7716C50.1194 80.2139 46.6636 77.5488 42.1492 75.6424C42.9835 75.2336 43.7769 74.8066 44.5151 74.3583C47.9507 72.2725 50.1769 69.7227 50.0657 66.8074C49.9908 64.8655 48.9509 63.0784 47.2429 61.4664C48.757 61.0857 50.2451 60.6643 51.6857 60.1963C59.4136 57.6929 65.757 53.8832 67.6119 48.4615C68.3632 46.2665 68.114 44.0411 67.2978 41.9317C66.1051 38.8595 63.6937 36.0393 61.5134 33.967C61.0608 33.5361 60.6032 33.1194 60.1423 32.719C61.3182 32.3253 62.485 31.9089 63.6395 31.4656C66.4958 30.3713 69.8833 28.9392 72.5654 26.8667C74.3972 25.4496 75.901 23.7356 76.7121 21.6358C77.8775 18.6296 77.118 15.9168 75.478 13.5922C73.8923 11.3421 71.4723 9.4603 69.2442 8.03821C59.4922 1.81338 47.5775 -0.714842 36.3074 2.7771C36.0667 2.85166 35.9317 3.10822 36.0063 3.34998C36.0812 3.58992 36.3384 3.72633 36.5811 3.6501C47.5878 0.239936 59.2237 2.72911 68.7488 8.80915C70.8827 10.1697 73.2071 11.9642 74.7274 14.1185C76.1917 16.1962 76.8976 18.6177 75.856 21.3057C74.9118 23.7449 72.9449 25.6096 70.6575 27.0917C68.3154 28.6094 65.6326 29.7226 63.3088 30.6115C61.9942 31.1144 60.6639 31.5864 59.3237 32.0245ZM36.4489 96.4387C35.414 95.2255 33.917 94.1723 32.1665 93.2752C27.5788 90.9231 21.2418 89.6773 16.4789 89.6789C14.8894 89.6799 12.1381 89.8075 10.1578 90.7319C8.95623 91.2924 8.04187 92.1518 7.98074 93.5212C7.90504 95.2458 9.03478 96.3663 10.5638 97.1392C13.0623 98.3993 16.6171 98.7389 18.4907 98.9465C22.1834 99.3532 29.6722 98.5455 36.4489 96.4387ZM39.785 75.7099C32.3768 73.097 23.0532 72.2027 18.8491 72.1612C16.9663 72.1421 13.5461 72.3289 11.0339 73.4312C9.48267 74.11 8.27338 75.1366 8.13877 76.7551C8.00586 78.3332 9.22607 79.2208 10.8039 79.7739C13.4406 80.6986 17.1081 80.6566 18.4686 80.6393C22.2512 80.5888 32.1986 78.9112 39.785 75.7099ZM45.2706 60.9966C44.5436 60.4553 43.7335 59.938 42.8625 59.4412C34.0961 54.4455 19.0105 51.8263 14.3994 51.6519C12.3907 51.5759 8.6991 51.3677 5.91783 52.2792C4.20368 52.8391 2.83877 53.8319 2.58592 55.6422C2.44148 56.679 2.8347 57.5772 3.56448 58.3594C4.35469 59.2095 5.52775 59.9202 6.87805 60.5232C11.062 62.3916 16.9389 63.1856 19.065 63.3527C24.6666 63.7955 35.3569 63.2561 45.2706 60.9966ZM58.2801 32.3598C48.8328 24.8052 37.8458 23.1997 25.4914 22.7412C23.3905 22.6645 18.2527 22.6518 14.3108 23.7837C13.0377 24.1504 11.8908 24.633 11.0261 25.2835C10.2245 25.888 9.67041 26.6337 9.52897 27.5734C9.36637 28.6491 9.76281 29.5952 10.5062 30.432C11.3103 31.3347 12.5055 32.108 13.8818 32.7721C18.1381 34.8251 24.1109 35.8075 26.1607 35.9827C36.924 36.9016 47.9682 35.5862 58.2801 32.3598Z" fill="#37BA95"/>
<path fill-rule="evenodd" clip-rule="evenodd" d="M59.3237 32.0245C49.6101 24.0166 38.2934 22.3014 25.5255 21.827C23.3696 21.7474 18.1002 21.7416 14.0559 22.905C11.1959 23.7269 8.96404 25.1642 8.62082 27.4372C8.31934 29.4233 9.48743 31.0948 11.4373 32.4301C15.6709 35.3303 23.6228 36.6839 26.0825 36.8948C37.1624 37.8413 48.5344 36.4461 59.1229 33.0527C59.7133 33.5527 60.2997 34.078 60.8801 34.6285C62.6262 36.2898 64.5355 38.445 65.785 40.8275C66.9999 43.1426 67.5945 45.6756 66.7416 48.1669C64.9635 53.3655 58.8134 56.9256 51.4006 59.326C49.7855 59.8504 48.1109 60.3163 46.4039 60.7316C45.5023 59.995 44.4643 59.2997 43.3176 58.6465C34.4211 53.577 19.1144 50.9146 14.4335 50.7377C12.3495 50.6588 8.5167 50.4622 5.63095 51.4088C3.5673 52.0852 1.98056 53.3361 1.67692 55.5151C1.40523 57.4561 2.56402 59.0441 4.49061 60.2873C8.65097 62.9716 16.4432 64.065 18.9923 64.2653C24.7881 64.7232 35.9686 64.1438 46.1839 61.7251C47.9585 63.251 49.0744 64.9491 49.1463 66.8411C49.2474 69.4725 47.1367 71.6942 44.038 73.576C43.1031 74.1432 42.0789 74.6787 40.9933 75.1776C40.8987 75.1418 40.8058 75.108 40.7112 75.0721C33.1057 72.2491 23.2404 71.2891 18.8593 71.2468C16.8825 71.2269 13.2998 71.4381 10.665 72.5922C8.78564 73.417 7.38804 74.7194 7.22351 76.6789C7.05434 78.6913 8.48698 79.9319 10.4994 80.6386C13.2453 81.6005 17.0627 81.5734 18.4806 81.5537C22.4735 81.5015 33.2057 79.6645 41.0187 76.1705C43.2345 77.0383 45.2289 78.0761 46.7815 79.3161C48.4223 80.6227 49.5695 82.1526 49.93 83.9503C50.815 88.3851 47.2574 91.7358 42.266 94.1729C40.7461 94.9151 39.0918 95.5703 37.3769 96.1392C36.2604 94.7204 34.5857 93.4863 32.5865 92.4609C27.8751 90.0465 21.3682 88.762 16.4781 88.7636C14.7909 88.7634 11.8729 88.9223 9.7677 89.9039C8.24515 90.6128 7.14094 91.7442 7.06427 93.4798C6.96961 95.5888 8.27935 97.0116 10.1474 97.9557C12.7465 99.2668 16.4403 99.6406 18.3888 99.8565C22.2147 100.279 30.0315 99.4314 37.0302 97.2117C37.4333 97.8295 37.7171 98.4828 37.8591 99.1752C38.3976 101.781 36.8959 104.838 32.3286 108.389C30.1164 110.108 27.7293 111.592 25.1076 112.597C21.3296 114.046 17.4839 114.648 13.4736 114.982C13.2209 115.004 13.032 115.224 13.0541 115.476C13.0744 115.728 13.2976 115.917 13.5503 115.894C17.6478 115.554 21.5783 114.932 25.4384 113.451C28.144 112.413 30.6107 110.884 32.894 109.111C37.865 105.246 39.3451 101.826 38.7604 98.9911C38.61 98.2667 38.3239 97.5764 37.9224 96.9202C39.5868 96.3596 41.1901 95.7184 42.6697 94.9947C48.0925 92.3471 51.7929 88.5881 50.8307 83.7716C50.1194 80.2139 46.6636 77.5488 42.1492 75.6424C42.9835 75.2336 43.7769 74.8066 44.5151 74.3583C47.9507 72.2725 50.1769 69.7227 50.0657 66.8074C49.9908 64.8655 48.9509 63.0784 47.2429 61.4664C48.757 61.0857 50.2451 60.6643 51.6857 60.1963C59.4136 57.6929 65.757 53.8832 67.6119 48.4615C68.3632 46.2665 68.114 44.0411 67.2978 41.9317C66.1051 38.8595 63.6937 36.0393 61.5134 33.967C61.0608 33.5361 60.6032 33.1194 60.1423 32.719C61.3182 32.3253 62.485 31.9089 63.6395 31.4656C66.4958 30.3713 69.8833 28.9392 72.5654 26.8667C74.3972 25.4496 75.901 23.7356 76.7121 21.6358C77.8775 18.6296 77.118 15.9168 75.478 13.5922C73.8923 11.3421 71.4723 9.4603 69.2442 8.03821C59.4922 1.81338 47.5775 -0.714842 36.3074 2.7771C36.0667 2.85166 35.9317 3.10822 36.0063 3.34998C36.0812 3.58992 36.3384 3.72633 36.5811 3.6501C47.5878 0.239936 59.2237 2.72911 68.7488 8.80915C70.8827 10.1697 73.2071 11.9642 74.7274 14.1185C76.1917 16.1962 76.8976 18.6177 75.856 21.3057C74.9118 23.7449 72.9449 25.6096 70.6575 27.0917C68.3154 28.6094 65.6326 29.7226 63.3088 30.6115C61.9942 31.1144 60.6639 31.5864 59.3237 32.0245ZM36.4489 96.4387C35.414 95.2255 33.917 94.1723 32.1665 93.2752C27.5788 90.9231 21.2418 89.6773 16.4789 89.6789C14.8894 89.6799 12.1381 89.8075 10.1578 90.7319C8.95623 91.2924 8.04187 92.1518 7.98074 93.5212C7.90504 95.2458 9.03478 96.3663 10.5638 97.1392C13.0623 98.3993 16.6171 98.7389 18.4907 98.9465C22.1834 99.3532 29.6722 98.5455 36.4489 96.4387ZM39.785 75.7099C32.3768 73.097 23.0532 72.2027 18.8491 72.1612C16.9663 72.1421 13.5461 72.3289 11.0339 73.4312C9.48267 74.11 8.27338 75.1366 8.13877 76.7551C8.00586 78.3332 9.22607 79.2208 10.8039 79.7739C13.4406 80.6986 17.1081 80.6566 18.4686 80.6393C22.2512 80.5888 32.1986 78.9112 39.785 75.7099ZM45.2706 60.9966C44.5436 60.4553 43.7335 59.938 42.8625 59.4412C34.0961 54.4455 19.0105 51.8263 14.3994 51.6519C12.3907 51.5759 8.6991 51.3677 5.91783 52.2792C4.20368 52.8391 2.83877 53.8319 2.58592 55.6422C2.44148 56.679 2.8347 57.5772 3.56448 58.3594C4.35469 59.2095 5.52775 59.9202 6.87805 60.5232C11.062 62.3916 16.9389 63.1856 19.065 63.3527C24.6666 63.7955 35.3569 63.2561 45.2706 60.9966ZM58.2801 32.3598C48.8328 24.8052 37.8458 23.1997 25.4914 22.7412C23.3905 22.6645 18.2527 22.6518 14.3108 23.7837C13.0377 24.1504 11.8908 24.633 11.0261 25.2835C10.2245 25.888 9.67041 26.6337 9.52897 27.5734C9.36637 28.6491 9.76281 29.5952 10.5062 30.432C11.3103 31.3347 12.5055 32.108 13.8818 32.7721C18.1381 34.8251 24.1109 35.8075 26.1607 35.9827C36.924 36.9016 47.9682 35.5862 58.2801 32.3598Z" stroke="#37BA95" stroke-width="2" mask="url(#path-1-outside-1_1529_18894)"/>
</svg>
