<svg width="48" height="48" viewBox="0 0 48 48" fill="none" xmlns="http://www.w3.org/2000/svg">
<path fill-rule="evenodd" clip-rule="evenodd" d="M44.5261 31.9397C43.2543 36.523 42.6128 41.3216 42.025 45.9765C41.9018 46.9791 42.5894 47.91 43.5581 47.9816C44.5275 48.1248 45.4141 47.4083 45.5373 46.4773C46.1031 41.9656 46.7085 37.3111 47.9329 32.9426C48.1984 32.0116 47.6518 31.0086 46.7114 30.7222C45.7717 30.4357 44.7924 31.0088 44.5261 31.9397Z" fill="#EF664F"/>
<path fill-rule="evenodd" clip-rule="evenodd" d="M28.4951 18.0472C21.052 25.4234 14.567 33.7307 6.92423 40.9637C6.21044 41.6082 6.1722 42.7541 6.83854 43.4702C7.5056 44.1863 8.62726 44.2577 9.34105 43.5415C17.0058 36.3085 23.512 28.0013 30.9771 20.625C31.6739 19.9089 31.6838 18.7633 30.9983 18.0472C30.3136 17.4027 29.1919 17.331 28.4951 18.0472Z" fill="#EF664F"/>
<path fill-rule="evenodd" clip-rule="evenodd" d="M1.86645 4.22484C6.12652 4.01 10.3866 3.79557 14.6474 3.58073C15.6232 3.58073 16.3766 2.72094 16.3292 1.71834C16.281 0.715746 15.4504 2.41202e-05 14.4739 2.41629e-05C10.2067 0.214867 5.94028 0.42929 1.67383 0.644132C0.698038 0.715747 -0.0504491 1.57526 0.00266023 2.57785C0.0557696 3.50884 0.891359 4.29645 1.86645 4.22484Z" fill="#EF664F"/>
</svg>
