<svg width="32" height="32" viewBox="0 0 32 32" fill="none" xmlns="http://www.w3.org/2000/svg">
<path fill-rule="evenodd" clip-rule="evenodd" d="M29.1483 15.2075C28.1545 19.3426 28.2196 23.3247 28.1005 27.519C28.0773 28.3381 28.7061 29.0191 29.5042 29.0438C30.3028 29.0684 30.9692 28.422 30.9928 27.6029C31.1057 23.6257 31.0145 19.841 31.9577 15.9131C32.1487 15.1187 31.6737 14.3144 30.8983 14.1219C30.1234 13.9246 29.3388 14.413 29.1483 15.2075Z" fill="#EF664F"/>
<path fill-rule="evenodd" clip-rule="evenodd" d="M20.7048 7.19237C13.9624 13.4986 7.60969 21.6109 3.16943 29.8021C2.78221 30.5176 3.03443 31.4206 3.73268 31.8154C4.43093 32.2102 5.31241 31.9535 5.69963 31.238C9.99329 23.3182 16.1372 15.4724 22.6568 9.37831C23.246 8.82565 23.287 7.8881 22.7484 7.2861C22.2098 6.68409 21.294 6.63971 20.7048 7.19237Z" fill="#EF664F"/>
<path fill-rule="evenodd" clip-rule="evenodd" d="M18.9968 0.303257C12.8302 -0.737916 6.4741 1.03847 0.866881 3.55012C0.135358 3.88073 -0.198346 4.7541 0.121364 5.49921C0.441556 6.24925 1.29557 6.58975 2.0271 6.26408C7.13377 3.97448 12.9093 2.27701 18.5257 3.22443C19.3136 3.35766 20.0586 2.80994 20.1883 2.00563C20.3185 1.20131 19.7842 0.436488 18.9968 0.303257Z" fill="#EF664F"/>
</svg>
