<svg width="12" height="13" viewBox="0 0 12 13" fill="none" xmlns="http://www.w3.org/2000/svg">
<path d="M5.64147 1.06005C5.78819 0.762748 6.21213 0.762748 6.35886 1.06005L7.86638 4.11462C7.92464 4.23268 8.03727 4.3145 8.16755 4.33344L11.5385 4.82326C11.8666 4.87093 11.9976 5.27412 11.7602 5.50554L9.32094 7.88319C9.22666 7.97508 9.18364 8.10748 9.2059 8.23724L9.78172 11.5945C9.83777 11.9213 9.49479 12.1705 9.20134 12.0162L6.1863 10.4311C6.06977 10.3698 5.93056 10.3698 5.81403 10.4311L2.79898 12.0162C2.50553 12.1705 2.16256 11.9213 2.2186 11.5945L2.79443 8.23724C2.81668 8.10748 2.77366 7.97508 2.67939 7.88319L0.240166 5.50554C0.00275888 5.27412 0.133763 4.87093 0.461851 4.82326L3.83277 4.33344C3.96306 4.3145 4.07568 4.23268 4.13395 4.11462L5.64147 1.06005Z" fill="#FAAF42"/>
</svg>
