<svg width="48" height="80" viewBox="0 0 48 80" fill="none" xmlns="http://www.w3.org/2000/svg">
<path fill-rule="evenodd" clip-rule="evenodd" d="M22.2114 55.1038C22.1866 54.5518 22.1915 54.0144 22.2164 53.51C22.3008 51.9929 23.6421 51.9981 23.7464 52.0002C23.9649 52.0054 24.9386 52.0701 25.1721 53.253C25.187 53.3235 25.2218 53.8343 25.2317 54.0312C25.2516 54.451 25.2615 54.8636 25.2069 55.2778C25.2565 55.9802 25.3658 56.703 25.5745 57.3829C25.8775 58.3867 26.3693 59.3131 27.2585 59.8066C28.8481 60.6944 30.9394 60.6584 32.688 60.884C33.4182 60.978 33.9746 61.6183 33.9994 62.3912C34.0193 63.1646 33.5027 63.8394 32.7774 63.9798C30.5917 64.4049 28.0781 66.4945 26.4785 68.1771C25.9867 68.6941 25.4354 69.9256 24.8194 70.7141C24.3226 71.3461 23.7712 71.7696 23.2496 71.9378C23.0459 72.003 21.9183 72.2412 21.4116 71.0139C21.2725 70.6693 20.7808 68.8644 20.7361 68.6586C20.4678 67.4794 20.0853 66.426 19.3352 65.4881C18.6845 64.6749 17.8946 63.9647 16.9458 63.5709C16.5633 63.4122 16.1659 63.2915 15.7685 63.1672C15.6294 63.1495 15.237 63.0973 15.0979 63.0477C14.8147 62.9484 14.6061 62.7928 14.457 62.6377C14.1739 62.3442 14.0298 61.9938 14.005 61.5948C13.9851 61.3316 14.0199 61.0193 14.1987 60.673C14.3328 60.427 14.6359 60.0568 15.1823 59.8165C15.7536 59.5653 16.9806 59.3267 17.1991 59.2645C18.7192 58.8342 20.2095 58.1799 21.3769 57.0455C21.9581 56.4784 22.0922 55.8668 22.2114 55.1038ZM23.1851 59.545C23.7713 60.8224 24.6455 61.8977 25.8626 62.575C26.3643 62.8565 26.9107 63.0701 27.477 63.2362C26.3096 64.0906 25.2267 65.0619 24.3673 65.9623C24.0891 66.2553 23.7861 66.7295 23.4632 67.2501C23.0857 65.8599 22.5294 64.6113 21.6153 63.4686C21.0739 62.7949 20.4628 62.1792 19.7823 61.6658C21.0142 61.153 22.1816 60.4668 23.1851 59.545Z" fill="#FAAF42"/>
<path fill-rule="evenodd" clip-rule="evenodd" d="M29.1901 26.0417C29.0566 25.6203 28.9491 25.204 28.8638 24.809C28.6149 23.6192 29.6524 23.3455 29.7334 23.3255C29.9034 23.2843 30.6692 23.1327 31.0946 23.9984C31.1207 24.0498 31.2533 24.4372 31.3018 24.5873C31.4041 24.9076 31.4972 25.2244 31.5407 25.5557C31.7246 26.0882 31.9587 26.6241 32.2607 27.1063C32.7027 27.8191 33.2746 28.4332 34.0639 28.6304C35.476 28.9872 37.0846 28.5263 38.4824 28.3385C39.0662 28.2599 39.6287 28.6394 39.8079 29.2315C39.9834 29.8251 39.724 30.4534 39.1926 30.7122C37.5917 31.4933 36.0822 33.6284 35.1946 35.2599C34.9217 35.7612 34.7506 36.8269 34.4379 37.5638C34.185 38.155 33.8466 38.5965 33.4784 38.8344C33.3345 38.927 32.5125 39.3446 31.8668 38.5012C31.688 38.2636 30.9342 36.9708 30.857 36.8211C30.4056 35.9655 29.8919 35.2307 29.118 34.6613C28.4468 34.1677 27.6894 33.7825 26.8747 33.6747C26.5463 33.6312 26.2142 33.6203 25.8814 33.6066C25.7702 33.6217 25.4562 33.6626 25.3384 33.653C25.0991 33.635 24.9056 33.558 24.7583 33.469C24.4788 33.3008 24.2949 33.0599 24.1931 32.7567C24.1232 32.5574 24.0854 32.3089 24.1519 32.0043C24.2046 31.7865 24.362 31.4376 24.7345 31.1388C25.1239 30.8264 26.0226 30.3879 26.1787 30.2946C27.2641 29.6473 28.2802 28.8331 28.9473 27.7148C29.279 27.1562 29.256 26.6559 29.1901 26.0417ZM30.8621 29.2717C31.5796 30.1374 32.4778 30.7873 33.5585 31.0586C34.0045 31.1722 34.471 31.2241 34.943 31.2352C34.2178 32.1371 33.5822 33.112 33.1046 33.9856C32.9503 34.2696 32.8144 34.6988 32.6727 35.168C32.0931 34.1719 31.4046 33.3223 30.4617 32.6286C29.9038 32.2202 29.3041 31.8709 28.6719 31.6152C29.5177 30.9638 30.2777 30.1918 30.8621 29.2717Z" fill="#FAAF42"/>
<path fill-rule="evenodd" clip-rule="evenodd" d="M14.0346 9.72452C14.106 9.40075 14.1923 9.09009 14.2851 8.80158C14.5697 7.93548 15.3461 8.14682 15.4063 8.16424C15.5321 8.20121 16.0863 8.38997 16.0379 9.11174C16.0356 9.15492 15.9765 9.45631 15.9516 9.57196C15.8979 9.81838 15.8396 10.059 15.7436 10.2905C15.6633 10.7053 15.6144 11.1412 15.6297 11.5676C15.6494 12.1964 15.7905 12.8097 16.2292 13.2338C17.0125 13.9952 18.2301 14.2991 19.2084 14.7015C19.617 14.8694 19.84 15.3268 19.7344 15.7786C19.6258 16.2299 19.2216 16.5407 18.7794 16.5095C17.4467 16.4164 15.6655 17.2369 14.4771 17.9637C14.1118 18.1869 13.601 18.8149 13.1216 19.1763C12.7355 19.4653 12.3502 19.6251 12.0218 19.6416C11.8936 19.6478 11.2031 19.6107 11.1001 18.8207C11.073 18.5994 11.0683 17.477 11.0744 17.3508C11.1021 16.6258 11.044 15.9559 10.755 15.2958C10.5041 14.7235 10.1567 14.1892 9.66799 13.8137C9.47098 13.6622 9.25941 13.5306 9.0484 13.3968C8.97055 13.365 8.75124 13.2737 8.67834 13.2234C8.52965 13.1219 8.4329 12.9993 8.37062 12.8863C8.25211 12.6722 8.22304 12.4467 8.27061 12.2117C8.29998 12.056 8.36864 11.8804 8.52606 11.7076C8.64199 11.5858 8.8751 11.4183 9.22909 11.364C9.59918 11.3071 10.3473 11.3594 10.4837 11.3573C11.4314 11.344 12.3967 11.1962 13.2494 10.7202C13.6744 10.4818 13.8471 10.1482 14.0346 9.72452ZM13.9092 12.4495C14.0505 13.2809 14.3901 14.0398 14.9902 14.6214C15.2373 14.8625 15.5208 15.0711 15.8232 15.2553C15.0139 15.5691 14.2355 15.9639 13.5976 16.3522C13.3909 16.4788 13.1416 16.7065 12.8736 16.9581C12.8708 16.0938 12.7423 15.2838 12.39 14.4796C12.1809 14.0051 11.9224 13.5533 11.6077 13.1501C12.4013 13.0442 13.1845 12.8279 13.9092 12.4495Z" fill="#FAAF42"/>
</svg>
