<svg width="189" height="40" viewBox="0 0 189 40" fill="none" xmlns="http://www.w3.org/2000/svg">
<g clip-path="url(#clip0_678_77466)">
<mask id="mask0_678_77466" style="mask-type:luminance" maskUnits="userSpaceOnUse" x="-36" y="-35" width="260" height="109">
<path d="M223.816 -35H-35.6448V73.3333H223.816V-35Z" fill="white"/>
</mask>
<g mask="url(#mask0_678_77466)">
<path d="M66.1993 29.7327C66.1993 29.0927 66.1786 27.9052 66.0053 27.596C65.9324 27.4702 65.7475 27.3985 65.4906 27.3777L65.2344 27.3577C65.1731 27.2844 65.1922 27.151 65.2535 27.1094C65.6456 27.1302 66.0244 27.1402 66.4256 27.1402C66.8567 27.1402 67.1335 27.1302 67.5041 27.1094C67.587 27.161 67.5754 27.2944 67.5256 27.3577L67.2778 27.3777C67.0216 27.3985 66.826 27.4919 66.7647 27.6269C66.6221 27.9669 66.6221 29.1535 66.6221 29.7327V30.901C66.6221 31.7985 66.4778 32.7485 65.9017 33.3669C65.4591 33.8535 64.6981 34.1227 63.9388 34.1227C63.23 34.1227 62.5221 33.9869 62.0189 33.5544C61.4751 33.1002 61.2173 32.3469 61.2173 31.1177V28.6794C61.2173 27.6052 61.1966 27.4294 60.6006 27.3777L60.3453 27.3577C60.2831 27.316 60.303 27.1402 60.3644 27.1094C60.8775 27.1302 61.2273 27.1402 61.6385 27.1402C62.0596 27.1402 62.3994 27.1302 62.9009 27.1094C62.9631 27.1402 62.9838 27.316 62.9225 27.3577L62.6763 27.3777C62.0803 27.4294 62.0596 27.6052 62.0596 28.6794V30.911C62.0596 32.5727 62.5727 33.6669 64.1444 33.6669C65.634 33.6669 66.1993 32.4919 66.1993 30.921V29.7327Z" fill="#243B4A"/>
</g>
<mask id="mask1_678_77466" style="mask-type:luminance" maskUnits="userSpaceOnUse" x="-36" y="-35" width="260" height="109">
<path d="M223.816 -35H-35.6448V73.3333H223.816V-35Z" fill="white"/>
</mask>
<g mask="url(#mask1_678_77466)">
<path d="M79.624 32.2019C79.624 32.511 79.624 33.7402 79.6547 34.0085C79.6356 34.0702 79.5734 34.1227 79.4607 34.1227C79.3372 33.9469 79.0396 33.5852 78.146 32.5635L75.7627 29.8369C75.4842 29.516 74.7862 28.6702 74.5707 28.4419H74.55C74.5094 28.566 74.4978 28.8052 74.4978 29.1127V31.3635C74.4978 31.8502 74.5094 33.1927 74.6843 33.5027C74.7456 33.616 74.9512 33.6777 75.209 33.6977L75.5265 33.7302C75.5878 33.8119 75.5779 33.9352 75.5049 33.9877C75.044 33.9677 74.6843 33.956 74.3038 33.956C73.8719 33.956 73.595 33.9677 73.2353 33.9877C73.1623 33.9352 73.1524 33.7919 73.2146 33.7302L73.4914 33.6977C73.7293 33.6669 73.8926 33.6052 73.944 33.491C74.0883 33.1219 74.0775 31.8602 74.0775 31.3635V28.3802C74.0775 28.0902 74.0675 27.8744 73.852 27.636C73.7078 27.4919 73.4599 27.4202 73.2146 27.3894L73.0413 27.3677C72.9791 27.306 72.9791 27.151 73.0604 27.1094C73.4914 27.1402 74.0369 27.1402 74.2209 27.1402C74.3867 27.1402 74.5599 27.1302 74.6942 27.1094C74.8998 27.636 76.1126 29.0002 76.4508 29.381L77.4463 30.5077C78.1559 31.3019 78.6591 31.881 79.1432 32.3777H79.1622C79.2045 32.3252 79.2045 32.1594 79.2045 31.9427V29.7327C79.2045 29.2477 79.1929 27.9052 78.999 27.596C78.9376 27.501 78.7727 27.4394 78.3615 27.3894L78.1866 27.3677C78.1153 27.306 78.1244 27.1402 78.2073 27.1094C78.6798 27.1302 79.0296 27.1402 79.4201 27.1402C79.8602 27.1402 80.1288 27.1302 80.477 27.1094C80.5599 27.161 80.5599 27.306 80.4985 27.3677L80.3543 27.3894C80.0252 27.4394 79.8196 27.5227 79.779 27.6052C79.6049 27.9785 79.624 29.2577 79.624 29.7327V32.2019Z" fill="#243B4A"/>
</g>
<mask id="mask2_678_77466" style="mask-type:luminance" maskUnits="userSpaceOnUse" x="-36" y="-35" width="260" height="109">
<path d="M223.816 -35H-35.6448V73.3333H223.816V-35Z" fill="white"/>
</mask>
<g mask="url(#mask2_678_77466)">
<path d="M87.2752 28.711C87.2752 27.616 87.2545 27.4402 86.6485 27.3894L86.3915 27.3685C86.3294 27.326 86.3509 27.1402 86.4123 27.1094C86.9254 27.131 87.2752 27.1402 87.7071 27.1402C88.1174 27.1402 88.4664 27.131 88.9803 27.1094C89.0417 27.1402 89.0624 27.326 89.0011 27.3685L88.7449 27.3894C88.1381 27.4402 88.1174 27.616 88.1174 28.711V32.3877C88.1174 33.4819 88.1381 33.626 88.7449 33.6977L89.0011 33.7302C89.0624 33.771 89.0417 33.9569 88.9803 33.9877C88.4664 33.9685 88.1174 33.9569 87.7071 33.9569C87.2752 33.9569 86.9254 33.9685 86.4123 33.9877C86.3509 33.9569 86.3294 33.7927 86.3915 33.7302L86.6485 33.6977C87.2545 33.626 87.2752 33.4819 87.2752 32.3877V28.711Z" fill="#243B4A"/>
</g>
<mask id="mask3_678_77466" style="mask-type:luminance" maskUnits="userSpaceOnUse" x="-36" y="-35" width="260" height="109">
<path d="M223.816 -35H-35.6448V73.3333H223.816V-35Z" fill="white"/>
</mask>
<g mask="url(#mask3_678_77466)">
<path d="M95.5951 28.236C95.3589 27.6585 95.2047 27.4402 94.7629 27.3894L94.5764 27.3685C94.5059 27.3069 94.515 27.1619 94.5979 27.1094C94.8955 27.131 95.2246 27.141 95.6664 27.141C96.1182 27.141 96.4771 27.131 96.9098 27.1094C96.9811 27.1519 97.0019 27.3069 96.9306 27.3685L96.7756 27.3894C96.3851 27.4402 96.3039 27.5019 96.2931 27.5852C96.3138 27.6894 96.4871 28.2477 96.8062 29.0319C97.2787 30.2302 97.7521 31.416 98.2668 32.5944C98.5835 31.9127 99.0162 30.8502 99.2525 30.3019C99.5492 29.6002 100.033 28.4327 100.207 27.9885C100.29 27.7719 100.3 27.6585 100.3 27.5852C100.3 27.5135 100.197 27.4302 99.8369 27.3894L99.6528 27.3685C99.5799 27.3069 99.6006 27.1519 99.6736 27.1094C99.9604 27.131 100.352 27.141 100.74 27.141C101.08 27.141 101.399 27.131 101.738 27.1094C101.809 27.1519 101.809 27.316 101.759 27.3685L101.451 27.3894C101.204 27.4094 101.05 27.5344 100.915 27.751C100.629 28.236 100.227 29.0744 99.7656 30.126L99.2102 31.3952C98.799 32.3477 98.3166 33.5435 98.1417 34.0919C98.111 34.1119 98.0704 34.1227 98.0306 34.1227C97.9784 34.1227 97.927 34.1119 97.8747 34.0919C97.7612 33.6577 97.5772 33.1527 97.4023 32.7185L95.5951 28.236Z" fill="#243B4A"/>
</g>
<mask id="mask4_678_77466" style="mask-type:luminance" maskUnits="userSpaceOnUse" x="-36" y="-35" width="260" height="109">
<path d="M223.816 -35H-35.6448V73.3333H223.816V-35Z" fill="white"/>
</mask>
<g mask="url(#mask4_678_77466)">
<path d="M107.961 28.691C107.961 27.6152 107.94 27.4602 107.334 27.3894L107.169 27.3677C107.108 27.3252 107.129 27.1402 107.19 27.1094C107.633 27.1302 107.982 27.1402 108.403 27.1402H110.334C110.992 27.1402 111.598 27.1402 111.72 27.1094C111.782 27.2852 111.844 28.0285 111.885 28.4844C111.844 28.546 111.68 28.566 111.628 28.5035C111.474 28.0185 111.382 27.6577 110.847 27.5227C110.633 27.4702 110.304 27.4602 109.85 27.4602H109.111C108.805 27.4602 108.805 27.4819 108.805 27.8744V29.9394C108.805 30.2294 108.836 30.2294 109.141 30.2294H109.739C110.169 30.2294 110.488 30.2077 110.611 30.1669C110.736 30.1252 110.808 30.0627 110.859 29.8044L110.942 29.381C110.992 29.3194 111.165 29.3194 111.207 29.391C111.207 29.6402 111.165 30.0435 111.165 30.436C111.165 30.8069 111.207 31.201 111.207 31.4252C111.165 31.4985 110.992 31.4985 110.942 31.4369L110.847 31.0352C110.808 30.8494 110.736 30.6944 110.531 30.6427C110.387 30.6002 110.139 30.5902 109.739 30.5902H109.141C108.836 30.5902 108.805 30.6002 108.805 30.8702V32.3252C108.805 32.8727 108.836 33.2235 108.997 33.3977C109.122 33.5219 109.337 33.636 110.242 33.636C111.034 33.636 111.33 33.5952 111.557 33.481C111.742 33.3785 112.019 33.0169 112.286 32.4802C112.359 32.4277 112.503 32.4585 112.543 32.5535C112.471 32.9144 112.214 33.7085 112.08 33.9869C111.156 33.9677 110.242 33.956 109.327 33.956H108.403C107.961 33.956 107.611 33.9677 107.004 33.9869C106.942 33.956 106.923 33.7919 106.985 33.7302L107.323 33.6977C107.91 33.6469 107.961 33.491 107.961 32.4085V28.691Z" fill="#243B4A"/>
</g>
<mask id="mask5_678_77466" style="mask-type:luminance" maskUnits="userSpaceOnUse" x="-36" y="-35" width="260" height="109">
<path d="M223.816 -35H-35.6448V73.3333H223.816V-35Z" fill="white"/>
</mask>
<g mask="url(#mask5_678_77466)">
<path d="M119.094 28.7019C119.094 27.7202 119.063 27.5444 118.643 27.4919L118.314 27.4519C118.242 27.3994 118.242 27.2335 118.325 27.1927C118.898 27.1402 119.609 27.1094 120.614 27.1094C121.252 27.1094 121.857 27.1619 122.331 27.4202C122.822 27.6777 123.182 28.1435 123.182 28.8677C123.182 29.8477 122.413 30.3844 121.9 30.591C121.848 30.6527 121.9 30.7569 121.95 30.8402C122.771 32.1719 123.316 32.9985 124.016 33.586C124.191 33.7402 124.448 33.8544 124.725 33.8744C124.777 33.8952 124.785 33.9785 124.735 34.0185C124.643 34.0494 124.478 34.071 124.283 34.071C123.408 34.071 122.884 33.8119 122.157 32.7702C121.889 32.3877 121.468 31.6752 121.149 31.211C120.994 30.9835 120.829 30.881 120.42 30.881C119.957 30.881 119.938 30.8902 119.938 31.1085V32.4094C119.938 33.4919 119.957 33.6169 120.554 33.6985L120.768 33.731C120.829 33.781 120.81 33.9569 120.749 33.9877C120.287 33.9685 119.938 33.9569 119.526 33.9569C119.094 33.9569 118.723 33.9685 118.242 33.9877C118.181 33.9569 118.159 33.8027 118.222 33.731L118.477 33.6985C119.073 33.6269 119.094 33.4919 119.094 32.4094V28.7019ZM119.938 30.1777C119.938 30.3635 119.938 30.4769 119.968 30.5194C119.999 30.5502 120.153 30.5702 120.676 30.5702C121.047 30.5702 121.437 30.5294 121.735 30.301C122.012 30.0852 122.248 29.7235 122.248 29.0219C122.248 28.2052 121.746 27.4302 120.603 27.4302C119.968 27.4302 119.938 27.471 119.938 27.761V30.1777Z" fill="#243B4A"/>
</g>
<mask id="mask6_678_77466" style="mask-type:luminance" maskUnits="userSpaceOnUse" x="-36" y="-35" width="260" height="109">
<path d="M223.816 -35H-35.6448V73.3333H223.816V-35Z" fill="white"/>
</mask>
<g mask="url(#mask6_678_77466)">
<path d="M131.509 34.1232C130.647 34.1232 130.102 33.8549 129.906 33.7407C129.783 33.5132 129.65 32.7807 129.629 32.2957C129.681 32.2224 129.834 32.2024 129.877 32.2649C130.031 32.7916 130.452 33.8024 131.643 33.8024C132.506 33.8024 132.929 33.2366 132.929 32.6157C132.929 32.1607 132.835 31.6541 132.085 31.1707L131.111 30.5299C130.595 30.1874 130 29.5999 130 28.7541C130 27.7724 130.761 26.9766 132.095 26.9766C132.414 26.9766 132.783 27.0382 133.051 27.1099C133.184 27.1524 133.327 27.1716 133.409 27.1716C133.502 27.4207 133.594 27.9982 133.594 28.4332C133.554 28.4949 133.389 28.5257 133.338 28.4641C133.206 27.9674 132.929 27.2957 131.941 27.2957C130.936 27.2957 130.719 27.9674 130.719 28.4432C130.719 29.0432 131.211 29.4749 131.592 29.7124L132.414 30.2299C133.061 30.6324 133.698 31.2307 133.698 32.2124C133.698 33.3482 132.846 34.1232 131.509 34.1232Z" fill="#243B4A"/>
</g>
<mask id="mask7_678_77466" style="mask-type:luminance" maskUnits="userSpaceOnUse" x="-36" y="-35" width="260" height="109">
<path d="M223.816 -35H-35.6448V73.3333H223.816V-35Z" fill="white"/>
</mask>
<g mask="url(#mask7_678_77466)">
<path d="M140.681 28.711C140.681 27.616 140.662 27.4402 140.054 27.3894L139.797 27.3685C139.735 27.326 139.756 27.1402 139.818 27.1094C140.332 27.131 140.681 27.1402 141.112 27.1402C141.524 27.1402 141.872 27.131 142.387 27.1094C142.449 27.1402 142.469 27.326 142.406 27.3685L142.149 27.3894C141.545 27.4402 141.524 27.616 141.524 28.711V32.3877C141.524 33.4819 141.545 33.626 142.149 33.6977L142.406 33.7302C142.469 33.771 142.449 33.9569 142.387 33.9877C141.872 33.9685 141.524 33.9569 141.112 33.9569C140.681 33.9569 140.332 33.9685 139.818 33.9877C139.756 33.9569 139.735 33.7927 139.797 33.7302L140.054 33.6977C140.662 33.626 140.681 33.4819 140.681 32.3877V28.711Z" fill="#243B4A"/>
</g>
<mask id="mask8_678_77466" style="mask-type:luminance" maskUnits="userSpaceOnUse" x="-36" y="-35" width="260" height="109">
<path d="M223.816 -35H-35.6448V73.3333H223.816V-35Z" fill="white"/>
</mask>
<g mask="url(#mask8_678_77466)">
<path d="M152.087 32.4115C152.087 33.494 152.106 33.6498 152.7 33.7006L153.031 33.7331C153.092 33.774 153.071 33.959 153.01 33.9906C152.423 33.9706 152.075 33.959 151.664 33.959C151.253 33.959 150.894 33.9706 150.235 33.9906C150.173 33.959 150.154 33.7831 150.235 33.7331L150.606 33.7006C151.192 33.6498 151.243 33.494 151.243 32.4115V27.794C151.243 27.4731 151.243 27.464 150.934 27.464H150.369C149.928 27.464 149.364 27.4848 149.106 27.7223C148.86 27.9498 148.756 28.1765 148.643 28.4356C148.562 28.4973 148.416 28.4448 148.376 28.364C148.542 27.8981 148.695 27.2356 148.766 26.824C148.799 26.804 148.931 26.7931 148.962 26.824C149.024 27.154 149.364 27.1431 149.836 27.1431H153.998C154.551 27.1431 154.643 27.1231 154.798 26.8548C154.849 26.8356 154.963 26.8448 154.982 26.8856C154.868 27.309 154.798 28.1456 154.828 28.4565C154.788 28.5381 154.613 28.5381 154.561 28.4756C154.53 28.219 154.457 27.8365 154.305 27.7223C154.069 27.5465 153.679 27.464 153.112 27.464H152.383C152.075 27.464 152.087 27.4731 152.087 27.8148V32.4115Z" fill="#243B4A"/>
</g>
<mask id="mask9_678_77466" style="mask-type:luminance" maskUnits="userSpaceOnUse" x="-36" y="-35" width="260" height="109">
<path d="M223.816 -35H-35.6448V73.3333H223.816V-35Z" fill="white"/>
</mask>
<g mask="url(#mask9_678_77466)">
<path d="M163.794 32.3877C163.794 33.491 163.855 33.6569 164.41 33.6977L164.803 33.7302C164.862 33.7927 164.843 33.9569 164.781 33.9877C164.144 33.9677 163.794 33.9569 163.383 33.9569C162.95 33.9569 162.583 33.9677 162.037 33.9877C161.976 33.9569 161.954 33.7927 162.016 33.7302L162.336 33.6977C162.931 33.636 162.95 33.491 162.95 32.3877V31.8602C162.95 31.2927 162.919 31.1585 162.623 30.581L161.41 28.2044C161.061 27.5227 160.907 27.471 160.599 27.4202L160.311 27.3685C160.25 27.2952 160.261 27.1519 160.332 27.1094C160.659 27.1302 161.03 27.1402 161.524 27.1402C161.997 27.1402 162.365 27.1302 162.623 27.1094C162.715 27.1402 162.715 27.306 162.654 27.3685L162.521 27.3894C162.162 27.4402 162.089 27.4919 162.089 27.5752C162.089 27.6777 162.356 28.2669 162.408 28.371C162.787 29.1344 163.167 29.9494 163.569 30.6644C163.886 30.1152 164.226 29.5169 164.534 28.9177C164.822 28.3802 165.2 27.6777 165.2 27.5535C165.2 27.4919 165.016 27.4202 164.77 27.3894L164.585 27.3685C164.514 27.2952 164.524 27.1519 164.606 27.1094C164.974 27.1302 165.273 27.1402 165.591 27.1402C165.91 27.1402 166.198 27.1302 166.547 27.1094C166.63 27.1619 166.64 27.306 166.569 27.3685L166.281 27.4202C165.746 27.5127 165.437 28.1644 164.924 29.0527L164.278 30.1777C163.824 30.9635 163.794 31.056 163.794 31.8502V32.3877Z" fill="#243B4A"/>
</g>
<mask id="mask10_678_77466" style="mask-type:luminance" maskUnits="userSpaceOnUse" x="0" y="1" width="34" height="37">
<path d="M33.59 1.16406H0.220703V37.3107H33.59V1.16406Z" fill="white"/>
</mask>
<g mask="url(#mask10_678_77466)">
<path d="M26.2253 4.85371C26.1988 4.80288 24.6047 4.00954 24.6047 4.00954C22.5779 3.58204 19.2381 3.76955 16.9096 4.63038H16.9013C14.5711 3.76955 11.2346 3.58204 9.20702 4.00954C9.20702 4.00954 7.61213 4.80288 7.58809 4.85371L5.11783 10.3337C5.03742 10.4862 5.16425 10.6162 5.30434 10.5879C9.05947 9.87121 13.3717 9.65038 16.9038 9.65038H16.9071C20.4384 9.65038 24.7514 9.87121 28.5057 10.5879C28.6475 10.6162 28.7727 10.4862 28.6931 10.3337L26.2253 4.85371ZM16.3219 8.79871C13.6452 8.69205 9.02631 8.69204 6.71024 9.52538L8.35652 5.38371L9.47809 4.78038L8.28689 8.19205C10.7 7.73371 13.3692 7.56288 16.3285 8.53621L16.3219 8.79871ZM17.4509 8.79871V8.53621C20.4086 7.56288 23.0795 7.73371 25.4917 8.19205L24.2947 4.78038L25.4179 5.38371L27.0642 9.52538C24.8667 8.69288 20.2469 8.69288 17.4509 8.79871Z" fill="#243B4A"/>
</g>
<mask id="mask11_678_77466" style="mask-type:luminance" maskUnits="userSpaceOnUse" x="0" y="1" width="34" height="37">
<path d="M33.59 1.16406H0.220703V37.3107H33.59V1.16406Z" fill="white"/>
</mask>
<g mask="url(#mask11_678_77466)">
<path d="M32.2163 2.80573L32.1997 2.79906L32.0944 2.7749C27.1224 1.70573 22.0119 1.16406 16.9048 1.16406C11.7951 1.16406 6.67806 1.7074 1.69691 2.77823L1.648 2.78823L1.60158 2.80323C0.804963 3.00073 0.219727 3.7524 0.219727 4.62156L0.221384 7.3424C0.221384 26.9657 12.3 34.9266 16.0021 36.8991C16.298 37.0574 16.6055 37.1382 16.9106 37.1382C17.2173 37.1382 17.5215 37.0574 17.815 36.8966C21.5071 34.9291 33.589 26.9657 33.589 7.3424V4.62156C33.589 3.77323 33.0203 3.02823 32.2163 2.80573ZM16.2242 35.7699C12.1425 33.5057 3.94502 27.0832 1.8254 13.9166L1.92487 13.8957C6.59184 12.9049 11.3997 12.3849 16.2242 12.3391V35.7699ZM29.1376 23.1499C29.1351 23.1532 29.1326 23.1599 29.1301 23.1641C28.263 24.9699 27.2824 26.5707 26.2495 27.9749C26.247 27.9774 26.247 27.9782 26.2462 27.9782C25.3062 29.2557 24.3305 30.3799 23.3598 31.3491V26.0407L20.4717 24.1091V33.8716C19.3983 34.6857 18.4093 35.3141 17.5862 35.7699V22.1766L20.4717 24.1091V17.3532L23.3598 19.2832V12.6216C24.3247 12.7074 25.2879 12.8074 26.2462 12.9316V21.2149L29.1301 23.1449V13.3699C30.0535 13.5282 30.9728 13.6974 31.8872 13.8916L31.9858 13.9132C31.4138 17.4682 30.3976 20.5274 29.1376 23.1499ZM17.5862 15.4199V12.3391C18.5494 12.3474 19.5118 12.3724 20.4717 12.4199V17.3532L17.5862 15.4199ZM32.4973 7.3424C32.4973 9.1299 32.3895 10.8166 32.1964 12.4124C22.181 10.2857 11.6443 10.2857 1.61485 12.4174C1.42087 10.8191 1.31311 9.13073 1.31311 7.3424L1.31145 4.62073C1.31145 4.25156 1.56428 3.9424 1.90663 3.85656L1.92487 3.85073C6.75598 2.81156 11.767 2.26073 16.9048 2.26073C22.0368 2.26073 27.0411 2.81073 31.864 3.84656L31.8756 3.85073C32.2328 3.92406 32.4989 4.24156 32.4989 4.62073L32.4973 7.3424Z" fill="#243B4A"/>
</g>
<mask id="mask12_678_77466" style="mask-type:luminance" maskUnits="userSpaceOnUse" x="0" y="1" width="34" height="37">
<path d="M33.59 1.16406H0.220703V37.3107H33.59V1.16406Z" fill="white"/>
</mask>
<g mask="url(#mask12_678_77466)">
<path d="M26.2467 21.2121L23.3604 19.2812V26.0379L26.2467 27.9688V21.2121Z" fill="#243B4A"/>
</g>
<mask id="mask13_678_77466" style="mask-type:luminance" maskUnits="userSpaceOnUse" x="0" y="1" width="34" height="37">
<path d="M33.59 1.16406H0.220703V37.3107H33.59V1.16406Z" fill="white"/>
</mask>
<g mask="url(#mask13_678_77466)">
<path d="M10.0495 25.4741C12.9624 25.4741 15.3332 23.0916 15.3332 20.1632C15.3332 17.2341 12.9624 14.8516 10.0495 14.8516C7.13656 14.8516 4.7666 17.2341 4.7666 20.1632C4.7666 23.0924 7.13656 25.4741 10.0495 25.4741ZM11.0111 24.7024C11.4181 24.2599 11.9038 23.6132 12.2711 22.7732C12.78 22.8832 13.2161 23.0199 13.5733 23.1557C12.9234 23.9291 12.029 24.4849 11.0111 24.7024ZM13.9729 22.5966C13.5825 22.4374 13.0934 22.2716 12.5065 22.1391C12.6623 21.6449 12.7693 21.0991 12.7999 20.4982H14.6501C14.5946 21.2649 14.355 21.9774 13.9729 22.5966ZM13.9729 17.7307C14.355 18.3507 14.5946 19.0624 14.6501 19.8291H12.7999C12.7693 19.2299 12.6623 18.6816 12.5065 18.1891C13.0959 18.0549 13.5825 17.8899 13.9729 17.7307ZM13.5733 17.1707C13.2161 17.3074 12.78 17.4441 12.2711 17.5549C11.9038 16.7124 11.4181 16.0682 11.0111 15.6249C12.029 15.8424 12.9234 16.3991 13.5733 17.1707ZM10.3819 15.9349C10.7417 16.3066 11.2191 16.8932 11.588 17.6749C11.2158 17.7291 10.8138 17.7641 10.3819 17.7766V15.9349ZM10.3819 18.4474C10.9083 18.4324 11.3982 18.3857 11.8433 18.3149C11.9942 18.7691 12.0995 19.2741 12.1326 19.8291H10.3819V18.4474ZM10.3819 20.4974H12.1326C12.0995 21.0516 11.9942 21.5566 11.84 22.0116C11.3974 21.9391 10.9083 21.8949 10.3819 21.8791V20.4974ZM10.3819 22.5507C10.8129 22.5641 11.2133 22.5991 11.5839 22.6524C11.2166 23.4316 10.7408 24.0182 10.3819 24.3882V22.5507ZM6.52563 23.1557C6.88291 23.0199 7.32059 22.8832 7.82956 22.7724C8.19761 23.6141 8.68504 24.2616 9.09288 24.7041C8.07079 24.4866 7.17635 23.9299 6.52563 23.1557ZM9.71542 24.3841C9.35648 24.0099 8.88398 23.4249 8.51676 22.6507C8.8873 22.5982 9.28685 22.5632 9.71542 22.5499V24.3841ZM9.71542 21.8799C9.18987 21.8957 8.7041 21.9399 8.26144 22.0107C8.10726 21.5574 8.00115 21.0524 7.96965 20.4982H9.71542V21.8799ZM9.71542 19.8291H7.96965C8.00115 19.2749 8.10726 18.7699 8.26144 18.3149C8.7041 18.3857 9.18987 18.4324 9.71542 18.4474V19.8291ZM9.71542 17.7766C9.28685 17.7641 8.8873 17.7291 8.51676 17.6757C8.88398 16.9007 9.35648 16.3149 9.71542 15.9424V17.7766ZM9.09288 15.6232C8.68504 16.0666 8.19761 16.7116 7.82956 17.5549C7.32059 17.4441 6.88291 17.3057 6.52646 17.1699C7.17718 16.3974 8.07162 15.8407 9.09288 15.6232ZM6.12525 17.7307C6.51651 17.8899 7.00476 18.0549 7.5958 18.1891C7.4383 18.6816 7.33219 19.2299 7.30152 19.8291H5.44883C5.50271 19.0624 5.74393 18.3499 6.12525 17.7307ZM5.44883 20.4974H7.30152C7.33219 21.0974 7.4383 21.6441 7.59414 22.1374C7.00476 22.2707 6.51651 22.4366 6.12525 22.5957C5.7431 21.9774 5.50271 21.2649 5.44883 20.4974Z" fill="#243B4A"/>
</g>
<mask id="mask14_678_77466" style="mask-type:luminance" maskUnits="userSpaceOnUse" x="38" y="4" width="151" height="22">
<path d="M188.067 4.92969H38.8564V25.413H188.067V4.92969Z" fill="white"/>
</mask>
<g mask="url(#mask14_678_77466)">
<path d="M43.1239 8.60469C43.1239 5.97219 42.8893 5.68802 41.4966 5.56886L40.9081 5.52219C40.7663 5.42719 40.8136 5.00052 40.9553 4.92969C42.3223 4.97635 43.1239 5.00052 44.1145 5.00052C45.0586 5.00052 45.8602 4.97635 46.8036 4.92969C46.9445 5.00052 46.9917 5.42719 46.8508 5.52219L46.4969 5.56886C45.1059 5.75969 45.0586 6.08969 45.0586 8.60469V17.4005C45.0586 19.2722 44.9633 20.908 44.5165 21.998C43.7373 23.8964 42.0636 25.413 39.8694 25.413C39.5876 25.413 38.8564 25.3889 38.8564 24.9147C38.8564 24.5114 39.2088 23.823 39.7045 23.823C39.988 23.823 40.2715 23.8697 40.5782 23.9664C40.9081 24.0605 41.238 24.1322 41.5679 24.1322C42.0636 24.1322 42.3471 23.8472 42.5121 23.5155C43.0542 22.4005 43.1239 18.8455 43.1239 17.5647V8.60469Z" fill="#243B4A"/>
</g>
<mask id="mask15_678_77466" style="mask-type:luminance" maskUnits="userSpaceOnUse" x="38" y="4" width="151" height="22">
<path d="M188.067 4.92969H38.8564V25.413H188.067V4.92969Z" fill="white"/>
</mask>
<g mask="url(#mask15_678_77466)">
<path d="M46.8008 14.185C46.8008 10.1858 49.7858 7.125 53.8833 7.125C58.479 7.125 60.7868 10.465 60.7868 13.985C60.7868 18.025 57.723 20.9642 53.8833 20.9642C49.4675 20.9642 46.8008 17.785 46.8008 14.185ZM58.7973 14.605C58.7973 11.3058 57.3458 7.745 53.5459 7.745C51.476 7.745 48.7911 9.16583 48.7911 13.5458C48.7911 16.5042 50.2235 20.3458 54.1419 20.3458C56.5301 20.3458 58.7973 18.5458 58.7973 14.605Z" fill="#243B4A"/>
</g>
<mask id="mask16_678_77466" style="mask-type:luminance" maskUnits="userSpaceOnUse" x="38" y="4" width="151" height="22">
<path d="M188.067 4.92969H38.8564V25.413H188.067V4.92969Z" fill="white"/>
</mask>
<g mask="url(#mask16_678_77466)">
<path d="M65.3067 14.1906C64.3518 14.1906 64.312 14.2315 64.312 14.8323V17.6506C64.312 19.7506 64.4115 20.0306 65.5256 20.1506L66.1017 20.2115C66.2219 20.2906 66.1813 20.6506 66.0627 20.7106C64.9876 20.6698 64.312 20.6506 63.5353 20.6506C62.6806 20.6506 62.0042 20.6915 61.2283 20.7106C61.109 20.6506 61.07 20.3298 61.1877 20.2115L61.5259 20.1506C62.64 19.9506 62.6806 19.7506 62.6806 17.6506V10.4506C62.6806 8.35063 62.5414 8.01146 61.5068 7.93062L60.9888 7.89062C60.8694 7.81062 60.91 7.45062 61.0294 7.39062C62.0042 7.40979 62.6806 7.45062 63.5353 7.45062C64.312 7.45062 64.9876 7.43146 65.8431 7.39062C65.9624 7.45062 66.0031 7.81062 65.8829 7.89062L65.5049 7.93062C64.3518 8.05062 64.312 8.35063 64.312 10.4506V12.7515C64.312 13.3706 64.3518 13.3915 65.3067 13.3915H70.9966C71.9516 13.3915 71.9922 13.3706 71.9922 12.7515V10.4506C71.9922 8.35063 71.9516 8.05062 70.7778 7.93062L70.4006 7.89062C70.2804 7.81062 70.3194 7.45062 70.4396 7.39062C71.3539 7.43146 72.0312 7.45062 72.8468 7.45062C73.6227 7.45062 74.2992 7.43146 75.1944 7.39062C75.3121 7.45062 75.3527 7.81062 75.235 7.89062L74.8156 7.93062C73.6634 8.05062 73.6227 8.35063 73.6227 10.4506V17.6506C73.6227 19.7506 73.6634 20.0106 74.8156 20.1506L75.2931 20.2115C75.4124 20.2906 75.3727 20.6506 75.2525 20.7106C74.2992 20.6698 73.6227 20.6506 72.8468 20.6506C72.0312 20.6506 71.3158 20.6698 70.4396 20.7106C70.3194 20.6506 70.2804 20.3298 70.4006 20.2115L70.7778 20.1506C71.9922 19.9506 71.9922 19.7506 71.9922 17.6506V14.8323C71.9922 14.2315 71.9516 14.1906 70.9966 14.1906H65.3067Z" fill="#243B4A"/>
</g>
<mask id="mask17_678_77466" style="mask-type:luminance" maskUnits="userSpaceOnUse" x="38" y="4" width="151" height="22">
<path d="M188.067 4.92969H38.8564V25.413H188.067V4.92969Z" fill="white"/>
</mask>
<g mask="url(#mask17_678_77466)">
<path d="M88.8833 17.2506C88.8833 17.8515 88.8833 20.2306 88.9413 20.7498C88.9023 20.8706 88.783 20.9698 88.5641 20.9698C88.3262 20.6315 87.7485 19.9315 86.0176 17.9506L81.402 12.6706C80.8657 12.0506 79.512 10.4106 79.0942 9.97229H79.0561C78.9749 10.2115 78.955 10.6706 78.955 11.2706V15.6315C78.955 16.5706 78.9749 19.1715 79.3131 19.7698C79.4333 19.9915 79.8312 20.1106 80.3285 20.1506L80.9453 20.2115C81.0647 20.3706 81.0439 20.6115 80.9047 20.7106C80.0094 20.6706 79.3131 20.6506 78.5778 20.6506C77.7414 20.6506 77.2051 20.6706 76.5088 20.7106C76.3695 20.6115 76.3504 20.3298 76.4681 20.2115L77.0061 20.1506C77.4629 20.0906 77.7812 19.9706 77.8823 19.7506C78.1584 19.0315 78.1393 16.5915 78.1393 15.6315V9.85146C78.1393 9.29062 78.1202 8.86979 77.7024 8.41146C77.4239 8.13146 76.9464 7.99062 76.4681 7.93062L76.1299 7.89146C76.0106 7.77146 76.0106 7.47229 76.1706 7.39062C77.0061 7.45062 78.0597 7.45062 78.4178 7.45062C78.737 7.45062 79.0752 7.43146 79.3338 7.39062C79.7309 8.41146 82.0785 11.0515 82.7358 11.7915L84.6656 13.9706C86.0367 15.5106 87.0115 16.6306 87.9474 17.5906H87.988C88.0676 17.4915 88.0676 17.1706 88.0676 16.7506V12.4706C88.0676 11.5306 88.0477 8.93146 87.6689 8.33062C87.5495 8.15062 87.232 8.03062 86.4354 7.93062L86.0972 7.89146C85.9579 7.77146 85.9787 7.45062 86.137 7.39062C87.0521 7.43146 87.7286 7.45062 88.4854 7.45062C89.34 7.45062 89.8565 7.43146 90.5329 7.39062C90.6937 7.49146 90.6937 7.77146 90.5735 7.89146L90.295 7.93062C89.6592 8.03062 89.2605 8.19146 89.1809 8.35063C88.8427 9.07063 88.8833 11.5506 88.8833 12.4706V17.2506Z" fill="#243B4A"/>
</g>
<mask id="mask18_678_77466" style="mask-type:luminance" maskUnits="userSpaceOnUse" x="38" y="4" width="151" height="22">
<path d="M188.067 4.92969H38.8564V25.413H188.067V4.92969Z" fill="white"/>
</mask>
<g mask="url(#mask18_678_77466)">
<path d="M94.1416 20.9711C92.4687 20.9711 91.4152 20.452 91.038 20.232C90.7984 19.7911 90.539 18.372 90.5 17.4328C90.5995 17.2911 90.8987 17.252 90.9783 17.3728C91.2759 18.3911 92.0916 20.3528 94.3994 20.3528C96.0697 20.3528 96.8862 19.252 96.8862 18.0528C96.8862 17.172 96.708 16.1928 95.254 15.252L93.3648 14.0111C92.3701 13.352 91.2162 12.2111 91.2162 10.572C91.2162 8.67198 92.6892 7.13281 95.2747 7.13281C95.8915 7.13281 96.6077 7.25281 97.1258 7.39198C97.3827 7.47365 97.6613 7.51281 97.8196 7.51281C97.9995 7.99198 98.1794 9.11281 98.1794 9.95198C98.0998 10.0728 97.7815 10.132 97.6812 10.0128C97.4234 9.05198 96.8862 7.75198 94.9755 7.75198C93.0258 7.75198 92.608 9.05198 92.608 9.97365C92.608 11.132 93.5638 11.972 94.2999 12.4328L95.8915 13.432C97.1448 14.212 98.3783 15.372 98.3783 17.272C98.3783 19.472 96.727 20.9711 94.1416 20.9711Z" fill="#243B4A"/>
</g>
<mask id="mask19_678_77466" style="mask-type:luminance" maskUnits="userSpaceOnUse" x="38" y="4" width="151" height="22">
<path d="M188.067 4.92969H38.8564V25.413H188.067V4.92969Z" fill="white"/>
</mask>
<g mask="url(#mask19_678_77466)">
<path d="M110.187 12.9914C109.055 12.9914 109.008 13.0372 109.008 13.748V17.0914C109.008 19.5797 109.125 19.9122 110.445 20.0555L111.131 20.1272C111.272 20.2214 111.224 20.648 111.082 20.7172C109.809 20.6705 109.008 20.648 108.088 20.648C107.073 20.648 106.271 20.6947 105.352 20.7172C105.21 20.648 105.162 20.268 105.305 20.1272L105.705 20.0555C107.026 19.8172 107.073 19.5797 107.073 17.0914V8.55635C107.073 6.06719 106.908 5.66386 105.682 5.56969L105.069 5.52219C104.928 5.42802 104.975 5.00052 105.116 4.92969C106.271 4.95302 107.073 5.00052 108.088 5.00052C109.008 5.00052 109.809 4.97719 110.823 4.92969C110.965 5.00052 111.012 5.42802 110.87 5.52219L110.421 5.56969C109.055 5.71302 109.008 6.06719 109.008 8.55635V11.283C109.008 12.018 109.055 12.0405 110.187 12.0405H116.932C118.063 12.0405 118.11 12.018 118.11 11.283V8.55635C118.11 6.06719 118.063 5.71302 116.671 5.56969L116.222 5.52219C116.081 5.42802 116.128 5.00052 116.271 4.92969C117.354 4.97719 118.157 5.00052 119.123 5.00052C120.044 5.00052 120.846 4.97719 121.907 4.92969C122.048 5.00052 122.096 5.42802 121.953 5.52219L121.459 5.56969C120.092 5.71302 120.044 6.06719 120.044 8.55635V17.0914C120.044 19.5797 120.092 19.8889 121.459 20.0555L122.025 20.1272C122.166 20.2214 122.119 20.648 121.977 20.7172C120.846 20.6705 120.044 20.648 119.123 20.648C118.157 20.648 117.309 20.6705 116.271 20.7172C116.128 20.648 116.081 20.268 116.222 20.1272L116.671 20.0555C118.11 19.8172 118.11 19.5797 118.11 17.0914V13.748C118.11 13.0372 118.063 12.9914 116.932 12.9914H110.187Z" fill="#243B4A"/>
</g>
<mask id="mask20_678_77466" style="mask-type:luminance" maskUnits="userSpaceOnUse" x="38" y="4" width="151" height="22">
<path d="M188.067 4.92969H38.8564V25.413H188.067V4.92969Z" fill="white"/>
</mask>
<g mask="url(#mask20_678_77466)">
<path d="M121.876 14.185C121.876 10.1858 124.862 7.125 128.958 7.125C133.554 7.125 135.861 10.465 135.861 13.985C135.861 18.025 132.798 20.9642 128.958 20.9642C124.543 20.9642 121.876 17.785 121.876 14.185ZM133.872 14.605C133.872 11.3058 132.421 7.745 128.619 7.745C126.552 7.745 123.866 9.16583 123.866 13.5458C123.866 16.5042 125.299 20.3458 129.217 20.3458C131.605 20.3458 133.872 18.5458 133.872 14.605Z" fill="#243B4A"/>
</g>
<mask id="mask21_678_77466" style="mask-type:luminance" maskUnits="userSpaceOnUse" x="38" y="4" width="151" height="22">
<path d="M188.067 4.92969H38.8564V25.413H188.067V4.92969Z" fill="white"/>
</mask>
<g mask="url(#mask21_678_77466)">
<path d="M139.462 17.6515C139.462 19.7515 139.503 20.0115 140.775 20.1515L141.312 20.2115C141.432 20.3106 141.393 20.6515 141.272 20.7115C140.138 20.6706 139.483 20.6515 138.686 20.6515C137.851 20.6515 137.135 20.6706 136.26 20.7115C136.14 20.6515 136.101 20.3306 136.221 20.2115L136.639 20.1515C137.791 19.9923 137.832 19.7515 137.832 17.6515V10.2723C137.832 8.57146 137.791 8.23146 136.896 8.13146L136.18 8.05062C136.041 7.93146 136.06 7.63146 136.221 7.55146C137.274 7.41062 138.509 7.39062 140.158 7.39062C141.81 7.39062 143.043 7.61062 143.979 8.19146C144.894 8.77146 145.571 9.81146 145.571 11.1906C145.571 13.0306 144.437 13.9523 143.581 14.3715C142.705 14.7915 141.651 14.9706 140.835 14.9706C140.696 14.9123 140.696 14.6115 140.816 14.5723C142.964 14.1715 143.739 12.9506 143.739 11.2115C143.739 9.27062 142.606 8.01229 140.537 8.01229C139.483 8.01229 139.462 8.09063 139.462 8.73229V17.6515Z" fill="#243B4A"/>
</g>
<mask id="mask22_678_77466" style="mask-type:luminance" maskUnits="userSpaceOnUse" x="38" y="4" width="151" height="22">
<path d="M188.067 4.92969H38.8564V25.413H188.067V4.92969Z" fill="white"/>
</mask>
<g mask="url(#mask22_678_77466)">
<path d="M147.741 10.4506C147.741 8.35063 147.7 8.03062 146.548 7.93146L146.049 7.89146C145.93 7.81062 145.971 7.45062 146.089 7.39062C147.064 7.43146 147.7 7.45062 148.595 7.45062C149.371 7.45062 150.048 7.43146 150.904 7.39062C151.022 7.45062 151.063 7.81062 150.943 7.89146L150.566 7.93146C149.412 8.05062 149.371 8.35063 149.371 10.4506V12.7523C149.371 13.1315 149.412 13.5106 149.631 13.5106C149.81 13.5106 150.048 13.3915 150.187 13.2906C150.465 13.0515 150.983 12.5306 151.202 12.3306L153.351 10.1915C153.728 9.83063 154.704 8.81062 154.902 8.53146C155.002 8.39062 155.043 8.29063 155.043 8.21063C155.043 8.13146 154.963 8.07146 154.704 8.01146L154.167 7.89146C154.027 7.75062 154.046 7.49146 154.206 7.39062C154.902 7.43146 155.698 7.45062 156.394 7.45062C157.09 7.45062 157.768 7.43146 158.363 7.39062C158.504 7.49146 158.524 7.77146 158.403 7.89146C157.887 7.93146 157.112 8.13146 156.555 8.45146C155.998 8.77062 154.882 9.71062 153.768 10.7715L151.977 12.4706C151.699 12.7523 151.52 12.9315 151.52 13.0906C151.52 13.2323 151.639 13.3915 151.899 13.7106C153.788 15.8898 155.32 17.6906 156.872 19.3306C157.35 19.8106 157.712 20.0715 158.388 20.1515L158.771 20.2115C158.912 20.3106 158.872 20.6506 158.731 20.7115C158.214 20.6706 157.669 20.6506 156.733 20.6506C155.918 20.6506 155.22 20.6706 154.306 20.7115C154.167 20.6706 154.107 20.3298 154.226 20.2115L154.683 20.1298C154.963 20.0906 155.16 20.0306 155.16 19.9315C155.16 19.8106 155.021 19.6515 154.882 19.4706C154.503 18.9906 153.987 18.4506 153.231 17.5906L151.639 15.7906C150.506 14.5115 150.187 14.1115 149.709 14.1115C149.412 14.1115 149.371 14.3715 149.371 15.0715V17.6515C149.371 19.7506 149.412 20.0306 150.525 20.1515L151.063 20.2115C151.181 20.2915 151.143 20.6506 151.022 20.7115C150.048 20.6706 149.371 20.6506 148.595 20.6506C147.78 20.6506 147.104 20.6706 146.288 20.7115C146.169 20.6506 146.128 20.3515 146.248 20.2115L146.646 20.1515C147.7 19.9915 147.741 19.7506 147.741 17.6515V10.4506Z" fill="#243B4A"/>
</g>
<mask id="mask23_678_77466" style="mask-type:luminance" maskUnits="userSpaceOnUse" x="38" y="4" width="151" height="22">
<path d="M188.067 4.92969H38.8564V25.413H188.067V4.92969Z" fill="white"/>
</mask>
<g mask="url(#mask23_678_77466)">
<path d="M161.395 10.4915C161.395 8.37146 161.356 8.03062 160.18 7.93146L159.685 7.89146C159.565 7.81062 159.604 7.45146 159.724 7.39062C160.718 7.43146 161.395 7.45146 162.23 7.45146C163.027 7.45146 163.703 7.43146 164.697 7.39062C164.818 7.45146 164.856 7.81062 164.738 7.89146L164.24 7.93146C163.066 8.03062 163.027 8.37146 163.027 10.4915V17.6106C163.027 19.7315 163.066 20.0115 164.24 20.1515L164.738 20.2115C164.856 20.2915 164.818 20.6506 164.697 20.7115C163.703 20.6706 163.027 20.6506 162.23 20.6506C161.395 20.6506 160.794 20.6706 159.8 20.7115C159.681 20.6506 159.642 20.3306 159.761 20.2115L160.18 20.1515C161.356 20.0115 161.395 19.7315 161.395 17.6106V10.4915Z" fill="#243B4A"/>
</g>
<mask id="mask24_678_77466" style="mask-type:luminance" maskUnits="userSpaceOnUse" x="38" y="4" width="151" height="22">
<path d="M188.067 4.92969H38.8564V25.413H188.067V4.92969Z" fill="white"/>
</mask>
<g mask="url(#mask24_678_77466)">
<path d="M178.604 17.2506C178.604 17.8515 178.604 20.2306 178.666 20.7498C178.625 20.8706 178.506 20.9698 178.287 20.9698C178.049 20.6315 177.471 19.9315 175.74 17.9506L171.125 12.6706C170.588 12.0506 169.235 10.4106 168.817 9.97229H168.778C168.698 10.2115 168.678 10.6706 168.678 11.2706V15.6315C168.678 16.5706 168.698 19.1715 169.036 19.7698C169.156 19.9915 169.554 20.1106 170.051 20.1506L170.668 20.2115C170.786 20.3706 170.767 20.6115 170.627 20.7106C169.732 20.6706 169.036 20.6506 168.3 20.6506C167.465 20.6506 166.928 20.6706 166.231 20.7106C166.092 20.6115 166.071 20.3298 166.191 20.2115L166.729 20.1506C167.186 20.0906 167.504 19.9706 167.604 19.7506C167.883 19.0315 167.862 16.5915 167.862 15.6315V9.85146C167.862 9.29062 167.843 8.86979 167.425 8.41146C167.147 8.13146 166.669 7.99062 166.191 7.93062L165.853 7.89146C165.733 7.77146 165.733 7.47229 165.893 7.39062C166.729 7.45062 167.782 7.45062 168.14 7.45062C168.46 7.45062 168.798 7.43146 169.056 7.39062C169.455 8.41146 171.801 11.0515 172.457 11.7915L174.388 13.9706C175.761 15.5106 176.734 16.6306 177.67 17.5906H177.711C177.79 17.4915 177.79 17.1706 177.79 16.7506V12.4706C177.79 11.5306 177.77 8.93146 177.392 8.33062C177.272 8.15062 176.955 8.03062 176.16 7.93062L175.822 7.89146C175.681 7.77146 175.701 7.45062 175.86 7.39062C176.775 7.43146 177.451 7.45062 178.207 7.45062C179.064 7.45062 179.581 7.43146 180.256 7.39062C180.416 7.49146 180.416 7.77146 180.296 7.89146L180.018 7.93062C179.381 8.03062 178.983 8.19146 178.904 8.35063C178.565 9.07063 178.604 11.5506 178.604 12.4706V17.2506Z" fill="#243B4A"/>
</g>
<mask id="mask25_678_77466" style="mask-type:luminance" maskUnits="userSpaceOnUse" x="38" y="4" width="151" height="22">
<path d="M188.067 4.92969H38.8564V25.413H188.067V4.92969Z" fill="white"/>
</mask>
<g mask="url(#mask25_678_77466)">
<path d="M183.83 20.9711C182.157 20.9711 181.103 20.452 180.725 20.232C180.487 19.7911 180.227 18.372 180.187 17.4328C180.288 17.2911 180.587 17.252 180.665 17.3728C180.964 18.3911 181.78 20.3528 184.088 20.3528C185.758 20.3528 186.574 19.252 186.574 18.0528C186.574 17.172 186.395 16.1928 184.942 15.252L183.054 14.0111C182.058 13.352 180.904 12.2111 180.904 10.572C180.904 8.67198 182.376 7.13281 184.963 7.13281C185.58 7.13281 186.296 7.25281 186.814 7.39198C187.073 7.47365 187.349 7.51281 187.508 7.51281C187.688 7.99198 187.868 9.11281 187.868 9.95198C187.786 10.0728 187.47 10.132 187.369 10.0128C187.112 9.05198 186.574 7.75198 184.665 7.75198C182.714 7.75198 182.296 9.05198 182.296 9.97365C182.296 11.132 183.252 11.972 183.986 12.4328L185.58 13.432C186.833 14.212 188.067 15.372 188.067 17.272C188.067 19.472 186.415 20.9711 183.83 20.9711Z" fill="#243B4A"/>
</g>
</g>
<defs>
<clipPath id="clip0_678_77466">
<rect width="189" height="40" fill="white"/>
</clipPath>
</defs>
</svg>
