<svg width="25" height="24" viewBox="0 0 25 24" fill="none" xmlns="http://www.w3.org/2000/svg">
<g clip-path="url(#clip0_1306_15400)">
<path d="M22.2234 7.11175C22.2386 7.32494 22.2386 7.53817 22.2386 7.75136C22.2386 14.2539 17.2894 21.7463 8.24373 21.7463C5.45691 21.7463 2.8681 20.9391 0.69043 19.5382C1.08638 19.5838 1.46705 19.5991 1.87824 19.5991C4.1777 19.5991 6.29448 18.8224 7.98484 17.4976C5.8224 17.4519 4.01021 16.0356 3.38584 14.0864C3.69043 14.132 3.99498 14.1625 4.31481 14.1625C4.75641 14.1625 5.19807 14.1016 5.60921 13.995C3.35541 13.5381 1.66501 11.5585 1.66501 9.16759V9.1067C2.3198 9.47219 3.08129 9.70061 3.88834 9.73103C2.56346 8.84777 1.69548 7.34017 1.69548 5.63458C1.69548 4.72089 1.93909 3.88333 2.36551 3.15236C4.78684 6.13713 8.42645 8.08633 12.5076 8.29956C12.4315 7.93408 12.3858 7.55341 12.3858 7.17269C12.3858 4.462 14.5787 2.25391 17.3046 2.25391C18.7208 2.25391 20 2.84781 20.8985 3.8072C22.0101 3.59402 23.0761 3.18283 24.0203 2.61939C23.6548 3.76155 22.8781 4.72094 21.8579 5.33003C22.8477 5.22348 23.8071 4.94931 24.6903 4.56864C24.0204 5.54322 23.1828 6.4112 22.2234 7.11175Z" fill="#EAEEEE"/>
</g>
<defs>
<clipPath id="clip0_1306_15400">
<rect width="24" height="24" fill="white" transform="translate(0.69043)"/>
</clipPath>
</defs>
</svg>
