<svg width="266" height="36" viewBox="0 0 266 36" fill="none" xmlns="http://www.w3.org/2000/svg">
<path fill-rule="evenodd" clip-rule="evenodd" d="M70.8981 21.2003C59.4701 24.4535 46.2758 27.6912 33.5829 28.4996C22.734 29.1896 12.255 28.1179 3.67775 23.558C2.46867 22.916 0.954569 23.3574 0.300686 24.5455C-0.354193 25.7327 0.0963433 27.2194 1.30543 27.8624C10.6621 32.8353 22.0711 34.136 33.9048 33.3824C46.826 32.5603 60.2585 29.3011 71.9158 26.0009C73.2684 28.6914 76.0693 31.1998 81.0033 33.0506C88.5818 35.8938 98.9293 35.8585 109.83 34.2564C125.64 31.9339 142.647 26.3953 153.581 22.4599C154.03 22.2994 154.698 22.0439 155.515 21.7073C155.764 22.2475 156.043 22.7799 156.352 23.3026C159.034 27.8575 163.778 31.5405 168.613 32.8559C199.273 41.1965 235.057 31.2028 264.193 23.0696C265.509 22.7006 266.276 21.3461 265.908 20.0474C265.529 18.7486 264.153 17.994 262.828 18.363C234.509 26.2691 199.742 36.2442 169.938 28.1394C166.27 27.1411 162.702 24.3107 160.668 20.8538C160.439 20.4682 160.24 20.0738 160.05 19.6735C164.067 17.719 168.792 14.9942 171.334 12.0776C173.945 9.08766 174.593 5.89605 172.321 2.8816C170.367 0.304625 167.407 0.0853874 164.326 1.42134C161.007 2.85223 157.588 6.19744 156.482 7.76731C154.409 10.6996 153.751 13.8804 154.13 16.982C153.153 17.3872 152.359 17.6886 151.87 17.8648C141.175 21.7131 124.551 27.145 109.092 29.4167C99.1456 30.8789 89.6972 31.0736 82.7816 28.48C79.8321 27.3731 77.8834 26.0812 76.8258 24.5818C78.9131 23.9691 80.9256 23.3662 82.8484 22.7907C86.6511 21.6525 94.5684 19.7684 100.225 16.4104C104.724 13.7405 107.774 10.1085 107.596 5.55545C107.506 3.21631 106.127 1.65523 103.933 0.78025C100.655 -0.526341 94.9851 0.105898 92.8739 0.546322C86.4706 1.87934 77.9243 7.39739 73.696 13.6152C72.0085 16.0963 71.0047 18.6918 70.8981 21.2003ZM76.158 19.6715C77.9671 19.1371 79.7155 18.6125 81.3951 18.1095C84.9446 17.0466 92.3645 15.3583 97.6464 12.2224C100.443 10.5625 102.727 8.57381 102.616 5.74237C102.607 5.52216 102.385 5.45954 102.189 5.36949C101.885 5.23149 101.537 5.13653 101.166 5.06215C98.6571 4.55909 95.2871 5.04549 93.9075 5.33323C88.5349 6.45191 81.3881 11.1155 77.8405 16.3331C77.091 17.4351 76.4939 18.5577 76.158 19.6715ZM159.054 14.729C161.396 13.5457 163.848 12.1148 165.782 10.5577C166.808 9.73064 167.676 8.88016 168.224 7.99736C168.682 7.26723 168.862 6.51944 168.314 5.79715C168.094 5.50451 167.765 5.49867 167.426 5.55348C167.068 5.61221 166.699 5.73745 166.33 5.89894C163.898 6.95008 161.386 9.4057 160.579 10.5577C159.632 11.8936 159.163 13.3069 159.054 14.729Z" fill="#FAAF42"/>
</svg>
