<svg width="25" height="24" viewBox="0 0 25 24" fill="none" xmlns="http://www.w3.org/2000/svg">
<path d="M23.2307 6.50346C22.9777 5.51804 22.2322 4.74196 21.2857 4.47858C19.57 4 12.6904 4 12.6904 4C12.6904 4 5.81087 4 4.09517 4.47858C3.14864 4.742 2.40316 5.51804 2.15014 6.50346C1.69043 8.28958 1.69043 12.0162 1.69043 12.0162C1.69043 12.0162 1.69043 15.7428 2.15014 17.5289C2.40316 18.5143 3.14864 19.258 4.09517 19.5214C5.81087 20 12.6904 20 12.6904 20C12.6904 20 19.57 20 21.2857 19.5214C22.2322 19.258 22.9777 18.5143 23.2307 17.5289C23.6904 15.7428 23.6904 12.0162 23.6904 12.0162C23.6904 12.0162 23.6904 8.28958 23.2307 6.50346ZM10.4404 15.3996V8.63271L16.1904 12.0163L10.4404 15.3996Z" fill="#EAEEEE"/>
</svg>
